<?xml version="1.0" standalone="no"?>
<!DOCTYPE svg PUBLIC "-//W3C//DTD SVG 1.1//EN" "http://www.w3.org/Graphics/SVG/1.1/DTD/svg11.dtd" >
<svg xmlns="http://www.w3.org/2000/svg" xmlns:xlink="http://www.w3.org/1999/xlink" version="1.1">
<metadata>
Created by FontForge 20170731 at Fri Jul 11 15:29:15 2014
 By Aleksey,,,
Copyright (c) 2014 by Jonathan Hill. All rights reserved.
</metadata>
<defs>
<font id="Loew-Black" horiz-adv-x="582" >
  <font-face 
    font-family="Loew Black"
    font-weight="900"
    font-stretch="normal"
    units-per-em="1000"
    panose-1="0 0 10 0 0 0 0 0 0 0"
    ascent="773"
    descent="-227"
    x-height="500"
    cap-height="700"
    bbox="-106 -344 1341 1226"
    underline-thickness="50"
    underline-position="-200"
    unicode-range="U+0020-FB02"
  />
<missing-glyph horiz-adv-x="500" 
d="M500 0h-500v700h500v-700zM80 650l170 -255l170 255h-340zM450 605l-170 -255l170 -255v510zM250 305l-170 -255h340zM220 350l-170 255v-510z" />
    <glyph glyph-name="fi" unicode="fi" horiz-adv-x="718" 
d="M266 710q72 0 153 -25l-25 -124q-40 14 -65 13q-47 0 -47 -43v-31h388v-500h-203v346h-185v-346h-204v346h-58v154h58v37q0 93 52 133t136 40z" />
    <glyph glyph-name="fl" unicode="fl" horiz-adv-x="706" 
d="M266 710q46 0 93 -10h307v-700h-203v561h-69q-40 14 -65 13q-47 0 -47 -43v-31h113v-154h-113v-346h-204v346h-58v154h58v37q0 93 52 133t136 40z" />
    <glyph glyph-name="f_f" unicode="ff" horiz-adv-x="816" 
d="M266 710q72 0 153 -25l-25 -124q-40 14 -65 13q-47 0 -47 -43v-31h204v37q0 93 52 133t136 40q72 0 153 -25l-25 -124q-40 14 -65 13q-47 0 -47 -43v-31h113v-154h-113v-346h-204v346h-204v-346h-204v346h-58v154h58v37q0 93 52 133t136 40z" />
    <glyph glyph-name="f_f_i" unicode="ffi" horiz-adv-x="1126" 
d="M266 710q72 0 153 -25l-25 -124q-40 14 -65 13q-47 0 -47 -43v-31h204v37q0 93 52 133t136 40q72 0 153 -25l-25 -124q-40 14 -65 13q-47 0 -47 -43v-31h388v-500h-203v346h-185v-346h-204v346h-204v-346h-204v346h-58v154h58v37q0 93 52 133t136 40z" />
    <glyph glyph-name="f_f_l" unicode="ffl" horiz-adv-x="1114" 
d="M266 710q72 0 153 -25l-25 -124q-40 14 -65 13q-47 0 -47 -43v-31h204v37q0 93 52 133t136 40q46 0 93 -10h307v-700h-203v561h-69q-40 14 -65 13q-47 0 -47 -43v-31h113v-154h-113v-346h-204v346h-204v-346h-204v346h-58v154h58v37q0 93 52 133t136 40z" />
    <glyph glyph-name=".notdef" horiz-adv-x="500" 
d="M500 0h-500v700h500v-700zM80 650l170 -255l170 255h-340zM450 605l-170 -255l170 -255v510zM250 305l-170 -255h340zM220 350l-170 255v-510z" />
    <glyph glyph-name=".null" horiz-adv-x="0" 
 />
    <glyph glyph-name="nonmarkingreturn" horiz-adv-x="333" 
 />
    <glyph glyph-name="space" unicode=" " horiz-adv-x="250" 
 />
    <glyph glyph-name="exclam" unicode="!" horiz-adv-x="287" 
d="M258 700l-21 -482h-186l-21 482h228zM68 144q32 27 76 27t75 -27q31 -26 31 -64t-31 -65q-32 -26 -75 -26q-44 0 -76 26q-31 27 -31 65t31 64z" />
    <glyph glyph-name="quotedbl" unicode="&#x22;" horiz-adv-x="432" 
d="M188 710l-14 -265h-131l-13 265h158zM402 710l-13 -265h-131l-13 265h157z" />
    <glyph glyph-name="numbersign" unicode="#" horiz-adv-x="754" 
d="M651 700l-24 -133h106l-27 -154h-106l-21 -117h106l-27 -154h-106l-25 -142h-157l25 142h-113l-25 -142h-157l25 142h-106l27 154h106l21 117h-106l27 154h106l23 133h157l-23 -133h113l24 133h157zM443 413h-113l-21 -117h113z" />
    <glyph glyph-name="dollar" unicode="$" horiz-adv-x="710" 
d="M265 818h180v-113q127 -17 223 -74l-91 -168q-128 64 -241 64q-40 0 -40 -26q0 -9 17 -17q14 -6 90 -25q50 -13 76 -22q85 -26 123 -56q79 -55 79 -152q0 -98 -58 -158.5t-166 -75.5l-12 -1v-112h-180v117q-131 23 -235 91l97 162q137 -76 280 -76q44 0 44 25
q0 18 -18 27t-92 25q-10 3 -24 6.5l-24 6l-18 4.5q-74 20 -111 40q-56 31 -76 62q-28 44 -28 100q0 94 54 152.5t151 76.5v117z" />
    <glyph glyph-name="percent" unicode="%" horiz-adv-x="946" 
d="M832 717l-538 -734h-179l537 734h180zM208 710q87 0 137 -54t50 -147q0 -92 -50 -147t-137 -55t-137.5 54.5t-50.5 147.5q0 92 50 146.5t138 54.5zM242 566q-13 22 -34.5 22t-34.5 -22q-13 -20 -13 -58q0 -36 13 -58q13 -21 34.5 -21t34.5 21q13 22 13 58q0 38 -13 58z
M739 -9q-87 0 -137.5 55t-50.5 146q0 92 50 147q49 55 138 55t138 -55q50 -55 50 -147q0 -93 -50.5 -147t-137.5 -54zM691 192q0 -36 13.5 -57.5t34.5 -21.5t34.5 21.5t13.5 57.5t-13.5 58t-34.5 22t-34.5 -22t-13.5 -58z" />
    <glyph glyph-name="ampersand" unicode="&#x26;" horiz-adv-x="778" 
d="M394 710q83 0 143 -48q60 -46 60 -123q-2 -68 -30 -109.5t-80 -68.5l-9 -5l61 -63q26 34 49 84l141 -67q-34 -83 -71 -136l76 -77l-153 -112l-46 50q-85 -57 -193 -63q-113 -7 -198.5 51t-88.5 154q-5 120 152 206l10 6l-5 6q-46 57 -46 117q-1 90 70 145.5t158 52.5z
M389 570q-20 0 -36 -13t-16 -35q0 -18 21 -43l12 -13l31 15q33 17 33 48q0 18 -13.5 29.5t-31.5 11.5zM412 170l-85 95l-13 -7q-53 -26 -51 -61q1 -27 23 -42.5t57 -14.5q41 2 69 30z" />
    <glyph glyph-name="quotesingle" unicode="'" horiz-adv-x="217" 
d="M188 710l-14 -265h-131l-13 265h158z" />
    <glyph glyph-name="parenleft" unicode="(" horiz-adv-x="342" 
d="M148 758l172 -84q-31 -73 -50 -170q-20 -102 -20 -192q0 -95 21 -196q21 -102 51 -172l-173 -84q-52 91 -85 211q-34 123 -34 241t34 238q35 123 84 208z" />
    <glyph glyph-name="parenright" unicode=")" horiz-adv-x="342" 
d="M22 674l172 84q49 -85 84 -208q34 -120 34 -238q0 -115 -35 -241q-34 -124 -84 -211l-173 84q30 68 52 172q21 101 21 196q0 93 -21 192q-19 97 -50 170z" />
    <glyph glyph-name="asterisk" unicode="*" horiz-adv-x="372" 
d="M245 710l-3 -68l64 24l36 -112l-66 -18l43 -53l-96 -70l-37 57l-37 -57l-96 70l43 53l-66 18l37 112l63 -24l-3 68h118z" />
    <glyph glyph-name="plus" unicode="+" horiz-adv-x="578" 
d="M548 366v-155h-182v-182h-154v182h-182v155h182v181h154v-181h182z" />
    <glyph glyph-name="comma" unicode="," horiz-adv-x="262" 
d="M232 80q0 -23 -14 -45l-141 -205l-57 26l58 143q-59 25 -59 81q0 38 31 64.5t75 26.5t75.5 -26.5t31.5 -64.5z" />
    <glyph glyph-name="hyphen" unicode="-" horiz-adv-x="408" 
d="M378 344v-169h-348v169h348z" />
    <glyph glyph-name="period" unicode="." horiz-adv-x="272" 
d="M135 171q44 0 75.5 -26.5t31.5 -64.5q2 -28 -18 -51t-48.5 -33t-61 -6t-54.5 25q-24 19 -29 47.5t6.5 52.5t38 41t59.5 15z" />
    <glyph glyph-name="slash" unicode="/" horiz-adv-x="568" 
d="M548 717l-350 -734h-179l350 734h179z" />
    <glyph glyph-name="zero" unicode="0" horiz-adv-x="716" 
d="M120 595q87 95 237 95q151 0 237 -95t86 -255t-86 -255t-237 -95q-150 0 -237 95q-86 95 -86 255t86 255zM357 495q-46 0 -73 -42t-27 -113t27 -113t73 -42q47 0 74 42t27 113q0 72 -27 113.5t-74 41.5z" />
    <glyph glyph-name="one" unicode="1" horiz-adv-x="432" 
d="M383 680v-680h-218v489l-116 -26l-39 162l202 55h171z" />
    <glyph glyph-name="two" unicode="2" horiz-adv-x="611" 
d="M316 690q113 0 190.5 -61t77.5 -171q0 -66 -42 -121t-144 -132l-38 -28h231v-177h-571v163l300 217q40 28 40 63q0 27 -15.5 41.5t-42.5 14.5q-34 0 -74 -20t-72 -55l-136 117q49 72 129 110.5t167 38.5z" />
    <glyph glyph-name="three" unicode="3" horiz-adv-x="630" 
d="M578 680v-155l-145 -115q27 -6 53 -17q109 -51 109 -166q0 -108 -77 -173q-76 -64 -202 -64q-151 0 -296 107l133 138q30 -27 72 -43.5t78 -15.5q73 4 73 61q0 51 -80 49q-42 0 -101 -13l-34 114l149 117h-241v176h509z" />
    <glyph glyph-name="four" unicode="4" horiz-adv-x="678" 
d="M577 680v-402h82v-161h-82v-117h-218v117h-315l-29 168l312 395h250zM360 431l-115 -153h115v153z" />
    <glyph glyph-name="five" unicode="5" horiz-adv-x="619" 
d="M570 680v-176h-295l-4 -69q39 10 83 10q108 0 177 -54t69 -166t-78.5 -174.5t-192.5 -60.5q-88 0 -170.5 34t-138.5 95l111 126q39 -34 86.5 -53.5t87.5 -18.5q36 0 56.5 17.5t20.5 50.5q0 27 -20.5 45t-50.5 18q-69 0 -111 -43l-137 68l19 351h488z" />
    <glyph glyph-name="six" unicode="6" horiz-adv-x="633" 
d="M351 690q128 0 233 -69l-90 -137q-52 33 -116 33q-97 0 -114 -97l-2 -16q58 33 135 33q106 0 161 -58q56 -58 56 -140q0 -97 -74.5 -173t-200.5 -76q-142 0 -217 77q-33 34 -53 79q-34 79 -34 179q0 174 82 270.5t234 94.5zM259 239q9 -88 79 -88q32 0 51 21q21 21 21 55
t-21 55q-20 21 -51 21.5t-54.5 -18t-24.5 -46.5z" />
    <glyph glyph-name="seven" unicode="7" 
d="M568 680v-170l-286 -510h-246l284 493h-300v187h548z" />
    <glyph glyph-name="eight" unicode="8" horiz-adv-x="657" 
d="M600 505q0 -98 -94 -149q116 -52 116 -166q0 -86 -82 -143t-212 -57t-212 57t-82 143q0 113 116 167q-94 49 -94 148q0 79 77 132q79 53 195 53q117 0 194 -53q78 -53 78 -132zM256 471q0 -30 20 -47.5t52 -17.5t51.5 17.5t19.5 47.5q0 28 -20 47t-51 19t-51.5 -19
t-20.5 -47zM250 214q0 -29 21.5 -48t56.5 -19t56.5 19t21.5 48q0 31 -21.5 49.5t-57.5 18.5q-35 0 -56 -18.5t-21 -49.5z" />
    <glyph glyph-name="nine" unicode="9" horiz-adv-x="633" 
d="M294 690q142 0 216 -77q33 -33 53 -80q35 -76 35 -177q0 -175 -81.5 -271t-234.5 -95q-128 0 -233 69l90 137q53 -33 116 -33q91 0 112 87q2 8 4 26q-60 -33 -135 -33q-106 0 -161 57q-56 59 -56 141q0 99 74 174t201 75zM295 529q-33 0 -52 -21q-20 -21 -20 -55t20 -55
q20 -20 52 -20t53.5 17t25.5 46q-10 88 -79 88z" />
    <glyph glyph-name="colon" unicode=":" horiz-adv-x="262" 
d="M50 486q31 27 75 27t75 -27q32 -26 32 -63.5t-32 -64.5q-31 -27 -75 -27t-75 27t-31 64.5t31 63.5zM125 171q33 2 59.5 -15t38.5 -41t7 -52.5t-30 -47.5q-22 -21 -54.5 -25t-61 6t-48 33t-17.5 51q0 38 31.5 64.5t74.5 26.5z" />
    <glyph glyph-name="semicolon" unicode=";" horiz-adv-x="262" 
d="M50 486q31 27 75 27t75 -27q32 -26 32 -63.5t-32 -64.5q-31 -27 -75 -27t-75 27t-31 64.5t31 63.5zM125 171q44 0 75.5 -26.5t31.5 -64.5q0 -23 -14 -45l-141 -205l-57 26l58 143q-59 25 -59 81q0 38 31.5 64.5t74.5 26.5z" />
    <glyph glyph-name="less" unicode="&#x3c;" horiz-adv-x="570" 
d="M540 638v-199l-307 -92l307 -92v-199l-510 184v214z" />
    <glyph glyph-name="equal" unicode="=" horiz-adv-x="570" 
d="M540 476v-155h-510v155h510zM540 252v-155h-510v155h510z" />
    <glyph glyph-name="greater" unicode="&#x3e;" horiz-adv-x="570" 
d="M30 638l510 -184v-214l-510 -184v199l307 92l-307 92v199z" />
    <glyph glyph-name="question" unicode="?" horiz-adv-x="587" 
d="M299 710q117 0 187.5 -58t70.5 -158q0 -54 -27 -95.5t-88 -91.5l-13 -11q-12 -9 -20 -17q-17 -17 -17 -46l-1 -15h-185l-3 47q-4 41 20 84q8 14 36 42l25 22l26 23q26 23 26 43q0 21 -16 33t-42 12q-25 0 -42 -12.5t-20 -34.5l-197 20q17 101 91 156q76 57 189 57z
M298 171q33 1 59.5 -15.5t38.5 -41t7 -52.5t-30 -47q-22 -21 -54.5 -25t-61 6t-48 33t-17.5 51q0 37 31.5 64t74.5 27z" />
    <glyph glyph-name="at" unicode="@" horiz-adv-x="995" 
d="M497 710q217 0 342.5 -129t125.5 -336q0 -115 -70.5 -175t-175.5 -62q-97 -1 -180 44v44q-47 -51 -113 -51q-74 0 -116 55q-41 56 -41 140q0 83 41 139q42 56 116 56q65 0 113 -51v44h153v-272q14 -2 19 -2q35 0 59 25.5t24 63.5q0 135 -81 220q-79 87 -216 87
q-135 0 -215 -87q-80 -86 -80 -220t80 -222q81 -86 215 -86q47 0 90 10l39 -153q-64 -14 -129 -14q-213 -1 -341.5 130t-125.5 337q-4 204 124 335t343 130zM483 306q-26 0 -45 -19.5t-19 -46.5t19 -46.5t45 -19.5q38 0 56 35v62q-18 35 -56 35z" />
    <glyph glyph-name="A" unicode="A" horiz-adv-x="862" 
d="M572 700l270 -700h-260l-36 107h-231l-35 -107h-260l267 700h285zM430 457l-58 -177h117z" />
    <glyph glyph-name="B" unicode="B" horiz-adv-x="737" 
d="M60 0v700h392q110 0 169.5 -46t59.5 -133q0 -111 -97 -154q61 -21 92 -67.5t31 -106.5q0 -83 -57 -138t-183 -55h-407zM278 523v-98h109q67 0 67 49t-67 49h-109zM278 281v-104h134q44 -2 62 25t0 54.5t-62 24.5h-134z" />
    <glyph glyph-name="C" unicode="C" horiz-adv-x="750" 
d="M414 710q94 0 175 -43t131 -116l-189 -105q-41 60 -115 60q-64 0 -104 -45t-40 -111q0 -67 40 -111q41 -45 104 -45q74 0 115 60l189 -105q-51 -75 -132 -117t-174 -42q-98 -2 -184 47t-136.5 133t-48.5 180q-2 96 48.5 180t136.5 133t184 47z" />
    <glyph glyph-name="D" unicode="D" horiz-adv-x="789" 
d="M60 0v700h308q154 3 266.5 -101t109.5 -250q3 -145 -109.5 -248.5t-266.5 -100.5h-308zM360 506h-82v-312h82q68 0 114 45q48 45 48 111t-48 111q-46 45 -114 45z" />
    <glyph glyph-name="E" unicode="E" horiz-adv-x="682" 
d="M647 700v-195h-369v-58h344v-185h-344v-67h374v-195h-592v700h587z" />
    <glyph glyph-name="F" unicode="F" horiz-adv-x="655" 
d="M625 700v-195h-347v-92h316v-185h-316v-228h-218v700h565z" />
    <glyph glyph-name="G" unicode="G" horiz-adv-x="792" 
d="M435 710q162 -1 281 -104l-142 -148q-59 52 -139 52q-69 0 -116 -43q-47 -44 -47 -117q0 -65 41 -111q42 -45 109 -45q59 0 109 24v41h-96v154h303v-317q-139 -106 -316 -106q-100 -2 -188 47t-139.5 133t-49.5 180q0 83 32.5 153.5t88.5 115.5q113 93 269 91z" />
    <glyph glyph-name="H" unicode="H" horiz-adv-x="795" 
d="M735 700v-700h-217v254h-240v-254h-218v700h218v-251h240v251h217z" />
    <glyph glyph-name="I" unicode="I" horiz-adv-x="337" 
d="M278 700v-700h-218v700h218z" />
    <glyph glyph-name="J" unicode="J" horiz-adv-x="619" 
d="M342 700h218v-410q0 -173 -78 -239q-72 -61 -209 -61q-98 0 -159.5 28.5t-93.5 93.5l175 112q18 -35 67 -35q80 0 80 101v410z" />
    <glyph glyph-name="K" unicode="K" horiz-adv-x="774" 
d="M749 700l-244 -295l249 -405h-279l-113 231l-84 -102v-129h-218v700h218v-252l180 252h291z" />
    <glyph glyph-name="L" unicode="L" horiz-adv-x="626" 
d="M278 700v-505h328v-195h-546v700h218z" />
    <glyph glyph-name="M" unicode="M" horiz-adv-x="983" 
d="M923 700v-700h-214v409l-184 -311h-72l-184 311v-409h-214v700h284l150 -246l150 246h284z" />
    <glyph glyph-name="N" unicode="N" horiz-adv-x="785" 
d="M730 700v-700h-223l-238 341v-341h-214v700h224l238 -341v341h213z" />
    <glyph glyph-name="O" unicode="O" horiz-adv-x="843" 
d="M232 662q87 48 189 48q103 0 189 -48q87 -48 137 -131q51 -83 51 -181t-50.5 -181t-137.5 -131q-86 -48 -189 -48q-102 0 -188.5 47.5t-137.5 131.5q-50 83 -50 181t50 181t137 131zM272 350q0 -65 41 -111q42 -45 109 -45q43 0 78 21t53 56q19 36 19 79t-19 78
q-18 36 -53 57t-79 21q-66 0 -107.5 -45t-41.5 -111z" />
    <glyph glyph-name="P" unicode="P" horiz-adv-x="727" 
d="M60 0v700h313q162 0 238 -62.5t76 -194.5q0 -130 -76.5 -191.5t-235.5 -61.5h-97v-190h-218zM364 513h-86v-156h87q49 0 72.5 18.5t23.5 58.5q0 41 -23 60t-74 19z" />
    <glyph glyph-name="Q" unicode="Q" horiz-adv-x="874" 
d="M798 350q0 -115 -70 -209l101 -101l-116 -107l-105 104q-86 -47 -186 -47q-102 0 -189 47.5t-138 131.5q-50 83 -50 181t50 181q51 84 137.5 131.5t188.5 47.5q153 3 266.5 -105.5t110.5 -254.5zM271 350q0 -66 42 -111t108 -45q10 0 28 2l-67 68l116 107l67 -67
q7 21 7 46q0 66 -42.5 111t-108.5 45t-108 -45t-42 -111z" />
    <glyph glyph-name="R" unicode="R" horiz-adv-x="743" 
d="M60 0v700h319q174 0 251 -59t77 -191q0 -171 -131 -221l148 -229h-250l-123 200h-26h-47v-200h-218zM390 504h-112v-137h112q49 0 70 16t21 52q0 37 -21 53t-70 16z" />
    <glyph glyph-name="S" unicode="S" horiz-adv-x="710" 
d="M360 710q175 0 308 -79l-91 -168q-128 64 -241 64q-40 0 -40 -26q0 -9 17 -17q14 -6 90 -25q50 -13 76 -22q85 -26 123 -56q79 -55 79 -152q0 -114 -78.5 -176.5t-220.5 -62.5q-201 0 -352 100l97 162q137 -76 280 -76q44 0 44 25q0 18 -18 27t-92 25q-67 17 -110 30
q-41 13 -89 39q-82 51 -82 152q0 116 83 176t217 60z" />
    <glyph glyph-name="T" unicode="T" horiz-adv-x="643" 
d="M624 700v-185h-193v-515h-218v515h-193v185h604z" />
    <glyph glyph-name="U" unicode="U" horiz-adv-x="766" 
d="M494 700h217v-375q0 -168 -84 -251.5t-242 -83.5t-241.5 83.5t-83.5 251.5v375h218v-375q0 -136 108 -136t108 136v375z" />
    <glyph glyph-name="V" unicode="V" horiz-adv-x="838" 
d="M818 700l-258 -700h-285l-255 700h260l138 -444l140 444h260z" />
    <glyph glyph-name="W" unicode="W" horiz-adv-x="1156" 
d="M1136 700l-227 -700h-222l-109 355l-109 -355h-222l-227 700h243l106 -359l104 359h211l103 -359l106 359h243z" />
    <glyph glyph-name="X" unicode="X" horiz-adv-x="790" 
d="M760 700l-227 -342l237 -358h-266l-111 182l-112 -182h-261l237 356l-227 344h266l101 -167l102 167h261z" />
    <glyph glyph-name="Y" unicode="Y" horiz-adv-x="802" 
d="M782 700l-272 -463v-237h-218v234l-272 466h260l122 -233l123 233h257z" />
    <glyph glyph-name="Z" unicode="Z" horiz-adv-x="689" 
d="M647 700v-152l-304 -356h316v-192h-629v155l291 353h-266v192h592z" />
    <glyph glyph-name="bracketleft" unicode="[" horiz-adv-x="357" 
d="M337 750v-139h-114v-603h114v-139h-307v881h307z" />
    <glyph glyph-name="backslash" unicode="\" horiz-adv-x="568" 
d="M20 717h179l350 -734h-179z" />
    <glyph glyph-name="bracketright" unicode="]" horiz-adv-x="357" 
d="M327 750v-881h-307v139h114v603h-114v139h307z" />
    <glyph glyph-name="asciicircum" unicode="^" horiz-adv-x="579" 
d="M416 710l134 -372h-195l-66 211l-66 -211h-193l134 372h252z" />
    <glyph glyph-name="underscore" unicode="_" horiz-adv-x="664" 
d="M634 -52v-116h-604v116h604z" />
    <glyph glyph-name="grave" unicode="`" horiz-adv-x="391" 
d="M239 728l123 -178h-174l-158 178h209z" />
    <glyph glyph-name="a" unicode="a" horiz-adv-x="585" 
d="M327 510q98 0 158 -45t60 -142v-323h-203v58q-65 -68 -154 -68q-70 0 -114 43t-44 112t47.5 107.5t129.5 38.5h135v12q0 51 -71 51q-64 -1 -136 -39l-57 129q123 64 249 66zM342 127v88h-54q-57 0 -57 -50q0 -25 14 -40t36 -15q35 0 61 17z" />
    <glyph glyph-name="b" unicode="b" horiz-adv-x="639" 
d="M45 700h203v-258q65 68 152 68q97 0 153 -74t56 -186t-56 -186t-153 -74q-87 0 -152 68v-58h-203v700zM324 338q-52 0 -76 -47v-82q24 -47 76 -47q35 0 60 26t25 62t-25 62t-60 26z" />
    <glyph glyph-name="c" unicode="c" horiz-adv-x="558" 
d="M304 510q70 0 130.5 -31.5t99.5 -86.5l-155 -85q-25 31 -65 31q-35 0 -60 -25.5t-25 -62.5q0 -36 25 -62t60 -26q40 0 65 31l155 -85q-39 -55 -99.5 -86.5t-130.5 -31.5q-114 0 -194 76q-80 77 -80 184t80 184q80 76 194 76z" />
    <glyph glyph-name="d" unicode="d" horiz-adv-x="639" 
d="M390 700h203v-700h-203v58q-65 -68 -151 -68q-98 0 -154 74t-56 186t56 186t154 74q86 0 151 -68v258zM315 338q-36 0 -61 -26t-25 -62t25 -62t61 -26q51 0 75 47v82q-24 47 -75 47z" />
    <glyph glyph-name="e" unicode="e" 
d="M294 510q121 0 191 -75q72 -73 72 -185v-48h-331q1 -32 27.5 -49t63.5 -17q58 0 95 34l105 -94q-92 -86 -218 -86q-111 0 -190 76t-79 184q0 107 77 184q77 76 187 76zM298 367q-29 0 -49.5 -20.5t-20.5 -50.5h140q0 31 -19 51t-51 20z" />
    <glyph glyph-name="f" unicode="f" horiz-adv-x="408" 
d="M266 710q72 0 153 -25l-25 -124q-40 14 -65 13q-47 0 -47 -43v-31h113v-154h-113v-346h-204v346h-58v154h58v37q0 93 52 133t136 40z" />
    <glyph glyph-name="g" unicode="g" horiz-adv-x="649" 
d="M244 510q86 0 151 -68v58h203v-480q0 -118 -73.5 -173t-192.5 -55q-149 2 -292 74l57 131q104 -51 192 -52q49 -1 77.5 18t28.5 57v39q-59 -59 -151 -59q-100 0 -155 69q-55 70 -55 181q0 112 56 186t154 74zM320 338q-36 0 -61 -25.5t-25 -62.5q0 -36 25 -62t61 -26
q50 0 75 46v84q-25 46 -75 46z" />
    <glyph glyph-name="h" unicode="h" horiz-adv-x="636" 
d="M50 700h203v-249q79 59 170 59q78 0 125.5 -41.5t47.5 -117.5v-351h-203v289q0 27 -14.5 42t-38.5 15q-47 0 -87 -29v-317h-203v700z" />
    <glyph glyph-name="i" unicode="i" horiz-adv-x="310" 
d="M86 684q31 26 74.5 26t74.5 -26t31 -62.5t-31 -62.5t-74.5 -26t-74.5 26t-31 62.5t31 62.5zM262 500v-500h-203v500h203z" />
    <glyph glyph-name="j" unicode="j" horiz-adv-x="302" 
d="M77 684q32 26 75 26t74 -26t31 -62.5t-31 -62.5t-74 -26t-75 26q-30 26 -30 62.5t30 62.5zM50 500h204v-533q0 -88 -51 -130t-128 -42q-58 0 -115 20l19 110q9 -3 17 -3q24 0 39 16t15 42v520z" />
    <glyph glyph-name="k" unicode="k" horiz-adv-x="630" 
d="M253 700v-361l117 161h240l-157 -204l167 -296h-221l-87 149l-59 -67v-82h-203v700h203z" />
    <glyph glyph-name="l" unicode="l" horiz-adv-x="298" 
d="M258 700v-700h-203v700h203z" />
    <glyph glyph-name="m" unicode="m" horiz-adv-x="950" 
d="M416 510q98 0 140 -68q50 39 90 53.5t91 14.5q78 0 126 -41.5t48 -117.5v-351h-204v289q0 27 -14.5 42t-38.5 15q-40 0 -75 -21v-54v-271h-203v289q0 27 -14.5 42t-38.5 15q-41 0 -75 -21v-325h-203v500h203v-56q75 66 168 66z" />
    <glyph glyph-name="n" unicode="n" horiz-adv-x="631" 
d="M418 510q78 0 125.5 -41.5t47.5 -117.5v-351h-203v289q0 27 -14.5 42t-38.5 15q-47 0 -87 -29v-317h-203v500h203v-49q79 59 170 59z" />
    <glyph glyph-name="o" unicode="o" horiz-adv-x="636" 
d="M318 510q117 2 204 -76.5t84 -183.5q0 -108 -85 -184q-83 -76 -203 -76q-119 0 -204 76q-84 76 -84 184t84 184q85 76 204 76zM317 338q-36 2 -62 -26t-26 -62t26 -62q28 -26 62 -26t61.5 26t25.5 62q0 37 -25.5 62.5t-61.5 25.5z" />
    <glyph glyph-name="p" unicode="p" horiz-adv-x="654" 
d="M404 510q97 0 153 -74t56 -186t-56 -186t-154 -74q-86 0 -151 68v-253h-203v695h203v-58q65 68 152 68zM328 338q-52 0 -76 -47v-82q24 -47 76 -47q35 0 60 26t25 62t-25.5 62t-59.5 26z" />
    <glyph glyph-name="q" unicode="q" horiz-adv-x="639" 
d="M239 510q86 0 151 -68v58h203v-695h-203v253q-65 -68 -151 -68q-98 0 -154 74t-56 186t56 186t154 74zM315 338q-36 0 -61 -26t-25 -62t25 -62t61 -26q51 0 75 47v82q-24 47 -75 47z" />
    <glyph glyph-name="r" unicode="r" horiz-adv-x="414" 
d="M405 510v-164q-90 0 -157 -85v-261h-203v500h203v-91q73 101 157 101z" />
    <glyph glyph-name="s" unicode="s" horiz-adv-x="520" 
d="M257 510q127 0 223 -57l-66 -123q-85 46 -158 46q-26 0 -26 -19q0 -7 10 -12t48 -14q87 -22 143 -57q58 -36 58 -113q0 -82 -56.5 -126.5t-158.5 -44.5q-146 0 -255 72l70 117q89 -55 183 -55q29 0 29 18q0 11 -8 14q-7 4 -50 15l-65 19q-71 25 -99 52q-38 38 -38 98
q0 83 60.5 126.5t155.5 43.5z" />
    <glyph glyph-name="t" unicode="t" horiz-adv-x="453" 
d="M282 624v-124h113v-154h-113v-146q0 -46 52 -46q33 0 65 19l25 -137q-84 -44 -170 -46q-78 -1 -126.5 44.5t-48.5 130.5v181h-59v154h59v124h203z" />
    <glyph glyph-name="u" unicode="u" horiz-adv-x="626" 
d="M40 500h203v-289q0 -27 14.5 -42t39.5 -15q48 0 86 29v317h203v-500h-203v49q-79 -59 -170 -59q-77 0 -125 41.5t-48 117.5v351z" />
    <glyph glyph-name="v" unicode="v" horiz-adv-x="631" 
d="M622 500l-180 -500h-252l-180 500h216l90 -293l90 293h216z" />
    <glyph glyph-name="w" unicode="w" horiz-adv-x="838" 
d="M829 500l-142 -500h-217l-51 197l-50 -197h-218l-141 500h202l58 -281l72 281h155l71 -281l58 281h203z" />
    <glyph glyph-name="x" unicode="x" horiz-adv-x="600" 
d="M589 500l-172 -250l173 -250h-231l-61 114l-62 -114h-227l173 250l-173 250h230l61 -113l62 113h227z" />
    <glyph glyph-name="y" unicode="y" horiz-adv-x="625" 
d="M405 500h211l-203 -544q-60 -161 -218 -161q-74 -1 -185 40l56 132q69 -27 109 -22q36 4 59 36l3 4l-211 515h214l86 -262z" />
    <glyph glyph-name="z" unicode="z" horiz-adv-x="540" 
d="M506 500v-130l-194 -207h204v-163h-491v130l193 207h-173v163h461z" />
    <glyph glyph-name="braceleft" unicode="{" horiz-adv-x="377" 
d="M357 750v-131h-35q-35 0 -35 -32v-169q0 -77 -48 -109q48 -31 48 -109v-168q0 -33 35 -33h35v-131h-110q-152 0 -152 139v193q0 17 -11 27.5t-27 10.5h-27v142h27q17 0 27.5 11t10.5 27v193q0 139 152 139h110z" />
    <glyph glyph-name="bar" unicode="|" horiz-adv-x="325" 
d="M266 750v-903h-206v903h206z" />
    <glyph glyph-name="braceright" unicode="}" horiz-adv-x="377" 
d="M20 619v131h110q152 0 152 -139v-193q0 -16 11 -27t27 -11h27v-142h-27q-16 0 -27 -11t-11 -27v-193q0 -139 -152 -139h-110v131h35q35 0 35 33v168q0 78 49 109q-49 31 -49 109v169q0 32 -35 32h-35z" />
    <glyph glyph-name="asciitilde" unicode="~" horiz-adv-x="544" 
d="M137 421q39 8 60 4q23 -4 74 -21l16 -5q53 -19 68 -22q14 -3 32 0q30 7 39 40l96 -10q14 -77 -10 -129.5t-79 -66.5q-38 -8 -61 -4t-73 21l-16 5q-60 21 -69 22q-13 3 -31 0q-30 -7 -39 -40l-96 10q-14 77 10 129.5t79 66.5z" />
    <glyph glyph-name="exclamdown" unicode="&#xa1;" horiz-adv-x="287" 
d="M68 483q32 27 76 27t75 -27q31 -26 31 -64t-31 -65q-32 -26 -75 -26q-44 0 -76 26q-31 27 -31 65t31 64zM237 281l21 -482h-228l21 482h186z" />
    <glyph glyph-name="cent" unicode="&#xa2;" horiz-adv-x="558" 
d="M219 618h160v-118q98 -26 155 -108l-155 -85q-25 31 -65 31q-35 0 -60 -26t-25 -62q0 -37 25 -62.5t60 -25.5q40 0 65 31l155 -85q-57 -82 -155 -108v-118h-160v121q-84 26 -136 93q-53 68 -53 154q0 85 53 153t136 94v121z" />
    <glyph glyph-name="sterling" unicode="&#xa3;" horiz-adv-x="662" 
d="M398 710q148 0 229 -89l-114 -127q-39 33 -101 33q-70 0 -70 -64v-62h212v-143h-212v-84h290v-174h-583v174h76v84h-76v144h76v86q0 110 71 166t202 56z" />
    <glyph glyph-name="currency" unicode="&#xa4;" horiz-adv-x="600" 
 />
    <glyph glyph-name="yen" unicode="&#xa5;" horiz-adv-x="802" 
d="M782 700l-160 -273h77v-143h-162l-27 -47v-16h189v-144h-189v-77h-218v77h-189v144h189v13l-29 50h-160v144h76l-159 272h260l122 -233l123 233h257z" />
    <glyph glyph-name="brokenbar" unicode="&#xa6;" horiz-adv-x="325" 
d="M266 750v-384h-206v384h206zM266 231v-384h-206v384h206z" />
    <glyph glyph-name="section" unicode="&#xa7;" horiz-adv-x="628" 
d="M317 710q155 0 270 -69l-79 -147q-114 56 -212 56q-35 0 -35 -23q1 -6 5.5 -9.5t25 -10t63.5 -16.5q96 -26 145 -51q49 -24 72.5 -59t25.5 -91q0 -82 -46 -134q46 -43 46 -115q0 -101 -68 -155t-193 -54q-175 0 -308 87l85 142q121 -67 245 -67q38 0 38 22q0 16 -15 23
q-10 6 -81 23q-49 12 -86 23q-32 9 -73 29q-87 43 -87 140q0 84 49 134q-49 43 -49 114q0 103 73.5 155.5t188.5 52.5zM296 302q-35 0 -35 -23q0 -9 12 -15q24 -8 74 -19q6 -2 12 -2q38 0 38 22q0 12 -5 17t-22 11q-40 9 -74 9z" />
    <glyph glyph-name="dieresis" unicode="&#xa8;" horiz-adv-x="430" 
d="M53 706q24 24 59.5 24t58.5 -24q24 -23 24 -58.5t-24 -59.5q-23 -23 -58.5 -23t-59.5 23q-23 24 -23 59.5t23 58.5zM259 706q24 24 59.5 24t58.5 -24q24 -23 24 -58.5t-24 -59.5q-23 -23 -58.5 -23t-59.5 23q-23 24 -23 59.5t23 58.5z" />
    <glyph glyph-name="copyright" unicode="&#xa9;" horiz-adv-x="779" 
d="M749 350q3 -146 -106 -255t-254 -105q-146 -4 -255 105t-105 255q0 149 105.5 254.5t254.5 105.5t254.5 -105.5t105.5 -254.5zM553 516q-69 69 -165 69q-95 0 -164 -69t-69 -165q0 -95 69 -164q70 -68 165 -68q96 0 164 68q69 69 69 164q0 96 -69 165zM388 536
q50 0 94 -24t68 -63l-105 -59q-20 32 -56 32q-29 0 -47.5 -20.5t-18.5 -51.5t18.5 -51.5t47.5 -20.5q36 0 56 32l105 -59q-24 -39 -68 -63t-94 -24q-79 0 -135 55q-56 56 -56 131t56 131q56 55 135 55z" />
    <glyph glyph-name="ordfeminine" unicode="&#xaa;" horiz-adv-x="401" 
d="M212 706q65 0 105.5 -30t40.5 -95v-215h-136v39q-42 -46 -102 -46q-46 0 -75.5 28.5t-29.5 75.5q0 46 31.5 71.5t86.5 25.5h89v8q0 34 -47 34q-45 -2 -91 -26l-37 86q79 42 165 44zM222 451v59h-36q-38 0 -38 -34q0 -16 9.5 -26.5t24.5 -10.5q24 0 40 12z" />
    <glyph glyph-name="guillemotleft" unicode="&#xab;" horiz-adv-x="671" 
d="M223 510l150 -77l-129 -168l129 -168l-152 -75l-191 243zM502 510l150 -77l-129 -168l129 -168l-152 -75l-191 243z" />
    <glyph glyph-name="logicalnot" unicode="&#xac;" horiz-adv-x="700" 
 />
    <glyph glyph-name="registered" unicode="&#xae;" horiz-adv-x="779" 
d="M749 350q3 -146 -106 -255t-254 -105q-146 -4 -255 105t-105 255q0 149 105.5 254.5t254.5 105.5t254.5 -105.5t105.5 -254.5zM553 516q-69 69 -165 69q-95 0 -164 -69t-69 -165q0 -95 69 -164q70 -68 165 -68q96 0 164 68q69 69 69 164q0 96 -69 165zM244 199v315h145
q77 0 112.5 -27.5t35.5 -86.5q0 -74 -54 -99l66 -102h-123l-53 87h-9h-12v-87h-108zM352 417v-47h42q18 0 25 5t7 18q0 14 -6.5 19t-25.5 5h-42z" />
    <glyph glyph-name="overscore" unicode="&#xaf;" horiz-adv-x="420" 
d="M391 710v-125h-361v125h361z" />
    <glyph glyph-name="degree" unicode="&#xb0;" horiz-adv-x="445" 
d="M415 595q0 -77 -56.5 -132.5t-135.5 -55.5q-81 0 -137 55q-56 56 -56 133t56 133q56 55 136 55q81 0 136 -55q57 -56 57 -133zM223 673q-33 0 -56.5 -23t-23.5 -55t23.5 -55t56.5 -23q32 0 55.5 23t23.5 55t-23.5 55t-55.5 23z" />
    <glyph glyph-name="plusminus" unicode="&#xb1;" horiz-adv-x="578" 
d="M366 444h182v-155h-182v-158h-154v158h-182v155h182v158h154v-158zM30 -96v155h518v-155h-518z" />
    <glyph glyph-name="twosuperior" unicode="&#xb2;" horiz-adv-x="328" 
d="M169 746q60 0 103 -34q43 -33 43 -91q0 -32 -18.5 -59t-61.5 -61l-15 -11h99v-107h-310v94l152 110q18 13 18 27q0 18 -20 18q-33 0 -69 -42l-83 71q24 39 68.5 62t93.5 23z" />
    <glyph glyph-name="threesuperior" unicode="&#xb3;" horiz-adv-x="336" 
d="M314 740v-90l-63 -50l10 -4q62 -30 62 -91q0 -57 -42 -92.5t-109 -35.5q-85 0 -164 62l73 75q36 -32 75 -31q33 0 33 27q0 21 -32 21q-16 0 -50 -8l-19 66l67 45h-119v106h278z" />
    <glyph glyph-name="acute" unicode="&#xb4;" horiz-adv-x="391" 
d="M361 728l-158 -178h-174l123 178h209z" />
    <glyph glyph-name="paragraph" unicode="&#xb6;" horiz-adv-x="803" 
d="M341 700h402v-863h-170v710h-62v-710h-170v400h-27q-134 0 -204 64t-70 167q0 110 75.5 171t225.5 61z" />
    <glyph glyph-name="middot" unicode="&#xb7;" horiz-adv-x="272" 
d="M135 391q44 0 75.5 -26.5t31.5 -64.5q2 -28 -18 -51t-48.5 -33t-61 -6t-54.5 25q-24 19 -29 47.5t6.5 52.5t38 41t59.5 15z" />
    <glyph glyph-name="cedilla" unicode="&#xb8;" horiz-adv-x="304" 
d="M117 16h93l-29 -57q15 -1 29 -6q29 -10 46 -33.5t17 -54.5q0 -49 -36 -75t-94 -26q-62 0 -114 28l25 70q22 -12 53 -12q21 1 34 12.5t13 27.5q1 13 -7.5 23t-23.5 11q-12 0 -21 -4l-23 20z" />
    <glyph glyph-name="onesuperior" unicode="&#xb9;" horiz-adv-x="234" 
d="M216 740v-358h-133v241l-55 -12l-24 98l112 31h100z" />
    <glyph glyph-name="ordmasculine" unicode="&#xba;" horiz-adv-x="457" 
d="M228 706q79 0 135.5 -50.5t56.5 -122.5t-56.5 -123t-135.5 -51q-80 0 -136 51t-56 123t56 122q55 51 136 51zM268 574q-17 17 -41 17t-42 -17q-17 -17 -17 -41.5t17 -41.5q18 -17 42 -17t41 17t17 41.5t-17 41.5z" />
    <glyph glyph-name="guillemotright" unicode="&#xbb;" horiz-adv-x="671" 
d="M170 510l193 -245l-192 -243l-151 75l129 168l-129 168zM449 510l193 -245l-191 -243l-152 75l129 168l-129 168z" />
    <glyph glyph-name="onequarter" unicode="&#xbc;" horiz-adv-x="722" 
d="M659 717l-463 -734h-161l462 734h162zM217 700v-358h-133v241l-55 -12l-24 98l112 31h100zM674 358v-201h40v-99h-41v-58h-127v58h-162l-16 95l161 205h145zM547 231l-51 -74h51v74z" />
    <glyph glyph-name="onehalf" unicode="&#xbd;" horiz-adv-x="754" 
d="M659 717l-463 -734h-161l462 734h162zM217 700v-358h-133v241l-55 -12l-24 98l112 31h100zM594 363q60 0 103 -34q43 -33 43 -91q0 -32 -18.5 -59t-61.5 -61l-15 -11h99v-107h-310v94l152 110q18 14 18 27q0 8 -6 13t-14 5q-33 0 -69 -42l-83 71q24 39 68.5 62t93.5 23z
" />
    <glyph glyph-name="threequarters" unicode="&#xbe;" horiz-adv-x="774" 
d="M714 717l-462 -734h-162l463 734h161zM314 700v-90l-63 -50l10 -5q62 -27 62 -90q0 -57 -42 -92.5t-109 -35.5q-85 0 -164 62l73 75q36 -32 75 -31q33 0 33 27q0 21 -32 21q-16 0 -50 -8l-19 66l67 45h-119v106h278zM726 358v-201h40v-99h-41v-58h-126v58h-163l-16 95
l162 205h144zM599 231l-51 -74h51v74z" />
    <glyph glyph-name="questiondown" unicode="&#xbf;" horiz-adv-x="587" 
d="M394 425q0 -38 -31.5 -64.5t-74.5 -26.5q-44 0 -76 26q-31 27 -31 65t31 64q34 27 75.5 27t75 -26.5t31.5 -64.5zM195 287l185 -1l3 -47q4 -45 -21 -85q-7 -15 -36 -41q-12 -12 -25 -23l-25 -22q-26 -23 -26 -43q-3 -27 27 -38.5t61.5 0t31.5 40.5l197 -20
q-17 -100 -92 -155q-75 -57 -188 -57q-118 0 -188 58q-70 57 -70 158q0 55 27 96.5t88 89.5q3 3 12.5 11t12 10t8.5 8t8 9.5t5 9.5t3.5 12.5t0.5 14.5z" />
    <glyph glyph-name="Agrave" unicode="&#xc0;" horiz-adv-x="862" 
d="M572 700l270 -700h-260l-36 107h-231l-35 -107h-260l267 700h285zM430 457l-58 -177h117zM395 928l123 -178h-174l-158 178h209z" />
    <glyph glyph-name="Aacute" unicode="&#xc1;" horiz-adv-x="862" 
d="M670 928l-159 -178h-173l123 178h209zM572 700l270 -700h-260l-36 107h-231l-35 -107h-260l267 700h285zM430 457l-58 -177h117z" />
    <glyph glyph-name="Acircumflex" unicode="&#xc2;" horiz-adv-x="862" 
d="M536 928l123 -178h-167l-62 74l-62 -74h-167l123 178h212zM572 700l270 -700h-260l-36 107h-231l-35 -107h-260l267 700h285zM430 457l-58 -177h117z" />
    <glyph glyph-name="Atilde" unicode="&#xc3;" horiz-adv-x="862" 
d="M317 924q27 6 46 3t58 -17q67 -23 86 -22q25 1 34 33l75 -9q10 -62 -9 -103.5t-61 -52.5q-27 -6 -46 -3q-22 3 -57 16l-19 7l-48 16q-11 2 -23 -1q-22 -6 -30 -32l-75 8q-11 61 8 103.5t61 53.5zM572 700l270 -700h-260l-36 107h-231l-35 -107h-260l267 700h285zM430 457
l-58 -177h117z" />
    <glyph glyph-name="Adieresis" unicode="&#xc4;" horiz-adv-x="862" 
d="M572 700l270 -700h-260l-36 107h-231l-35 -107h-260l267 700h285zM430 457l-58 -177h117zM268 906q24 24 59.5 24t58.5 -24q24 -23 24 -58.5t-24 -59.5q-23 -23 -58.5 -23t-59.5 23q-23 24 -23 59.5t23 58.5zM473 906q24 24 59.5 24t58.5 -24q24 -23 24 -58.5t-24 -59.5
q-23 -23 -58.5 -23t-59.5 23q-23 24 -23 59.5t23 58.5z" />
    <glyph glyph-name="Aring" unicode="&#xc5;" horiz-adv-x="862" 
d="M329 944q43 41 101 41t101 -41q42 -40 42 -99t-42 -99q-43 -41 -101 -41t-101 41q-42 40 -42 99t42 99zM464 878q-14 14 -34 14t-34 -14q-14 -13 -14 -33t14 -34q14 -13 34 -13t34 13q14 14 14 34t-14 33zM572 700l270 -700h-260l-36 107h-231l-35 -107h-260l267 700h285
zM430 457l-58 -177h117z" />
    <glyph glyph-name="AE" unicode="&#xc6;" horiz-adv-x="1052" 
d="M1017 700v-195h-369v-58h344v-185h-344v-67h374v-195h-592v107h-115l-35 -107h-260l267 700h730zM430 457l-58 -177h58v177z" />
    <glyph glyph-name="Ccedilla" unicode="&#xc7;" horiz-adv-x="750" 
d="M416 194q74 0 115 60l189 -105q-51 -75 -132 -117t-174 -42h-12l-15 -31q14 -1 28 -6q29 -10 46 -33.5t17 -54.5q0 -49 -36 -75t-94 -26q-62 0 -114 28l25 70q23 -12 53 -12q21 1 34 12.5t13 27.5q1 13 -7.5 23t-22.5 11q-13 0 -22 -4l-23 20l31 63q-117 31 -194 128
q-76 95 -76 219q-2 96 48.5 180t136.5 133t184 47q93 0 173.5 -42.5t132.5 -116.5l-189 -105q-41 60 -115 60q-64 0 -104 -45t-40 -111q0 -67 40 -111q41 -45 104 -45z" />
    <glyph glyph-name="Egrave" unicode="&#xc8;" horiz-adv-x="682" 
d="M647 700v-195h-369v-58h344v-185h-344v-67h374v-195h-592v700h587zM354 928l123 -178h-174l-158 178h209z" />
    <glyph glyph-name="Eacute" unicode="&#xc9;" horiz-adv-x="682" 
d="M629 928l-159 -178h-173l123 178h209zM647 700v-195h-369v-58h344v-185h-344v-67h374v-195h-592v700h587z" />
    <glyph glyph-name="Ecircumflex" unicode="&#xca;" horiz-adv-x="682" 
d="M495 928l123 -178h-167l-62 74l-62 -74h-167l123 178h212zM647 700v-195h-369v-58h344v-185h-344v-67h374v-195h-592v700h587z" />
    <glyph glyph-name="Edieresis" unicode="&#xcb;" horiz-adv-x="682" 
d="M286 765q-35 0 -58.5 23.5t-23.5 59.5q0 35 23 58q24 24 59.5 24t58.5 -24q24 -22 24 -59q0 -35 -23.5 -58.5t-59.5 -23.5zM432 906q24 24 59.5 24t58.5 -24q24 -23 24 -58.5t-24 -59.5q-23 -23 -58.5 -23t-59.5 23q-23 24 -23 59.5t23 58.5zM647 700v-195h-369v-58h344
v-185h-344v-67h374v-195h-592v700h587z" />
    <glyph glyph-name="Igrave" unicode="&#xcc;" horiz-adv-x="337" 
d="M278 700v-700h-218v700h218zM141 928l123 -178h-174l-158 178h209z" />
    <glyph glyph-name="Iacute" unicode="&#xcd;" horiz-adv-x="337" 
d="M416 928l-159 -178h-173l123 178h209zM278 700v-700h-218v700h218z" />
    <glyph glyph-name="Icircumflex" unicode="&#xce;" horiz-adv-x="337" 
d="M282 928l123 -178h-167l-62 74l-62 -74h-167l123 178h212zM278 700v-700h-218v700h218z" />
    <glyph glyph-name="Idieresis" unicode="&#xcf;" horiz-adv-x="337" 
d="M14 906q24 24 59.5 24t58.5 -24q24 -23 24 -58.5t-24 -59.5q-23 -23 -58.5 -23t-59.5 23q-23 24 -23 59.5t23 58.5zM219 906q24 24 59.5 24t58.5 -24q24 -23 24 -58.5t-24 -59.5q-23 -23 -58.5 -23t-59.5 23q-23 24 -23 59.5t23 58.5zM278 700v-700h-218v700h218z" />
    <glyph glyph-name="Eth" unicode="&#xd0;" horiz-adv-x="799" 
d="M70 435v265h308q154 3 266.5 -101t109.5 -250q3 -145 -109.5 -248.5t-266.5 -100.5h-308v265h-60v170h60zM288 265v-71h82q68 0 114 45q48 45 48 111t-48 111q-46 45 -114 45h-82v-71h82v-170h-82z" />
    <glyph glyph-name="Ntilde" unicode="&#xd1;" horiz-adv-x="785" 
d="M302 924q27 6 46 3t58 -17q67 -23 86 -22q25 1 34 33l74 -9q11 -62 -8 -103.5t-61 -52.5q-29 -5 -46.5 -2.5t-57.5 15.5l-19 7q-42 15 -48 16q-10 2 -22 -1q-23 -6 -31 -32l-74 8q-11 62 8 104t61 53zM730 700v-700h-223l-238 341v-341h-214v700h224l238 -341v341h213z
" />
    <glyph glyph-name="Ograve" unicode="&#xd2;" horiz-adv-x="843" 
d="M386 928l124 -178h-174l-158 178h208zM232 662q87 48 189 48q103 0 189 -48q87 -48 137 -131q51 -83 51 -181t-50.5 -181t-137.5 -131q-86 -48 -189 -48q-102 0 -188.5 47.5t-137.5 131.5q-50 83 -50 181t50 181t137 131zM272 350q0 -65 41 -111q42 -45 109 -45
q43 0 78 21t53 56q19 36 19 79t-19 78q-18 36 -53 57t-79 21q-66 0 -107.5 -45t-41.5 -111z" />
    <glyph glyph-name="Oacute" unicode="&#xd3;" horiz-adv-x="843" 
d="M232 662q87 48 189 48q103 0 189 -48q87 -48 137 -131q51 -83 51 -181t-50.5 -181t-137.5 -131q-86 -48 -189 -48q-102 0 -188.5 47.5t-137.5 131.5q-50 83 -50 181t50 181t137 131zM272 350q0 -65 41 -111q42 -45 109 -45q43 0 78 21t53 56q19 36 19 79t-19 78
q-18 36 -53 57t-79 21q-66 0 -107.5 -45t-41.5 -111zM661 928l-158 -178h-174l123 178h209z" />
    <glyph glyph-name="Ocircumflex" unicode="&#xd4;" horiz-adv-x="843" 
d="M527 928l124 -178h-168l-61 74l-62 -74h-168l124 178h211zM232 662q87 48 189 48q103 0 189 -48q87 -48 137 -131q51 -83 51 -181t-50.5 -181t-137.5 -131q-86 -48 -189 -48q-102 0 -188.5 47.5t-137.5 131.5q-50 83 -50 181t50 181t137 131zM272 350q0 -65 41 -111
q42 -45 109 -45q43 0 78 21t53 56q19 36 19 79t-19 78q-18 36 -53 57t-79 21q-66 0 -107.5 -45t-41.5 -111z" />
    <glyph glyph-name="Otilde" unicode="&#xd5;" horiz-adv-x="843" 
d="M309 924q27 6 46.5 3t56.5 -17q67 -23 87 -22q25 2 33 33l75 -9q11 -62 -8 -103.5t-61 -52.5q-28 -6 -47 -3q-22 3 -57 16l-19 7q-42 15 -48 16q-10 2 -22 -1q-23 -6 -31 -32l-75 8q-10 62 9 104t61 53zM232 662q87 48 189 48q103 0 189 -48q87 -48 137 -131
q51 -83 51 -181t-50.5 -181t-137.5 -131q-86 -48 -189 -48q-102 0 -188.5 47.5t-137.5 131.5q-50 83 -50 181t50 181t137 131zM272 350q0 -65 41 -111q42 -45 108 -45q67 0 109 45t42 111t-42.5 111t-108.5 45t-107.5 -45t-41.5 -111z" />
    <glyph glyph-name="Odieresis" unicode="&#xd6;" horiz-adv-x="843" 
d="M319 930q26 2 46.5 -13t29.5 -37.5t5 -48.5t-23 -43q-23 -23 -59 -23q-35 0 -58.5 23.5t-23.5 59.5q0 35 24 58.5t59 23.5zM465 906q24 24 59.5 24t58.5 -24q24 -23 24 -58.5t-24 -59.5q-23 -23 -58.5 -23t-59.5 23q-23 24 -23 59.5t23 58.5zM232 662q87 48 189 48
q103 0 189 -48q87 -48 137 -131q51 -83 51 -181t-50.5 -181t-137.5 -131q-86 -48 -189 -48q-102 0 -188.5 47.5t-137.5 131.5q-50 83 -50 181t50 181t137 131zM272 350q0 -65 41 -111q42 -45 109 -45q43 0 78 21t53 56q19 36 19 79t-19 78q-18 36 -53 57t-79 21
q-66 0 -107.5 -45t-41.5 -111z" />
    <glyph glyph-name="multiply" unicode="&#xd7;" horiz-adv-x="535" 
d="M396 526l110 -109l-128 -129l128 -128l-110 -109l-128 128l-128 -128l-110 109l128 128l-128 129l110 109l128 -128z" />
    <glyph glyph-name="Oslash" unicode="&#xd8;" horiz-adv-x="843" 
d="M522 750h179l-53 -112q71 -52 110.5 -127t39.5 -161q2 -96 -49.5 -180t-139.5 -133t-188 -47q-37 0 -77 8l-23 -48h-179l53 112q-71 52 -110.5 127t-39.5 161q-3 146 110.5 254.5t266.5 105.5q37 0 77 -8zM271 350q0 -46 22 -83l113 238q-60 -6 -97.5 -49.5t-37.5 -105.5
zM550 433l-113 -238q61 6 97.5 49.5t36.5 105.5q0 46 -21 83z" />
    <glyph glyph-name="Ugrave" unicode="&#xd9;" horiz-adv-x="766" 
d="M350 928l124 -178h-174l-158 178h208zM494 700h217v-375q0 -168 -84 -251.5t-242 -83.5t-241.5 83.5t-83.5 251.5v375h218v-375q0 -136 108 -136t108 136v375z" />
    <glyph glyph-name="Uacute" unicode="&#xda;" horiz-adv-x="766" 
d="M625 928l-158 -178h-174l124 178h208zM494 700h217v-375q0 -168 -84 -251.5t-242 -83.5t-241.5 83.5t-83.5 251.5v375h218v-375q0 -136 108 -136t108 136v375z" />
    <glyph glyph-name="Ucircumflex" unicode="&#xdb;" horiz-adv-x="766" 
d="M492 928l123 -178h-168l-61 74l-62 -74h-167l123 178h212zM494 700h217v-375q0 -168 -84 -251.5t-242 -83.5t-241.5 83.5t-83.5 251.5v375h218v-375q0 -136 108 -136t108 136v375z" />
    <glyph glyph-name="Udieresis" unicode="&#xdc;" horiz-adv-x="766" 
d="M283 765q-35 0 -59 23.5t-24 59.5q-2 26 13.5 46.5t38 29.5t48 5t42.5 -23q24 -22 24 -59q0 -35 -24 -58.5t-59 -23.5zM429 906q24 24 59.5 24t58.5 -24q24 -23 24 -58.5t-24 -59.5q-23 -23 -58.5 -23t-59.5 23q-23 24 -23 59.5t23 58.5zM494 700h217v-375
q0 -168 -84 -251.5t-242 -83.5t-241.5 83.5t-83.5 251.5v375h218v-375q0 -136 108 -136t108 136v375z" />
    <glyph glyph-name="Yacute" unicode="&#xdd;" horiz-adv-x="802" 
d="M640 928l-159 -178h-173l123 178h209zM781 700l-272 -463v-237h-218v234l-272 466h260l122 -233l123 233h257z" />
    <glyph glyph-name="Thorn" unicode="&#xde;" horiz-adv-x="727" 
d="M278 700v-79h95q162 0 238 -62.5t76 -194.5q0 -130 -76.5 -191.5t-235.5 -61.5h-97v-111h-218v700h218zM364 434h-86v-156h87q96 0 96 77q0 41 -23 60t-74 19z" />
    <glyph glyph-name="germandbls" unicode="&#xdf;" horiz-adv-x="677" 
d="M332 711q120 0 196 -51t76 -140q0 -95 -85 -147q62 -26 95.5 -71.5t33.5 -105.5q0 -100 -78.5 -153t-215.5 -53q-31 0 -40 1l18 160q18 0 26 1q74 8 74 69q0 32 -21.5 51t-56.5 19h-22v140h7q28 0 45 16t17 43q0 25 -17.5 41.5t-44.5 16.5t-44.5 -16.5t-17.5 -41.5v-490
h-217v440q0 132 69.5 201.5t202.5 69.5z" />
    <glyph glyph-name="agrave" unicode="&#xe0;" horiz-adv-x="585" 
d="M291 728l123 -178h-173l-158 178h208zM327 510q98 0 158 -45t60 -142v-323h-203v58q-65 -68 -154 -68q-70 0 -114 43t-44 112t47.5 107.5t129.5 38.5h135v12q0 51 -71 51q-64 -1 -136 -39l-57 129q123 64 249 66zM342 127v88h-54q-57 0 -57 -50q0 -25 14 -40t36 -15
q35 0 61 17z" />
    <glyph glyph-name="aacute" unicode="&#xe1;" horiz-adv-x="585" 
d="M565 728l-158 -178h-174l123 178h209zM326 510q98 0 158 -45t60 -142v-323h-203v58q-65 -68 -154 -68q-69 0 -113.5 43t-44.5 112t47.5 107.5t129.5 38.5h135v12q0 51 -71 51q-64 -1 -136 -39l-57 129q123 64 249 66zM341 127v88h-55q-56 0 -56 -50q0 -25 14 -40t36 -15
q35 0 61 17z" />
    <glyph glyph-name="acircumflex" unicode="&#xe2;" horiz-adv-x="585" 
d="M432 728l124 -178h-168l-62 74l-61 -74h-168l124 178h211zM327 510q98 0 158 -45t60 -142v-323h-203v58q-65 -68 -154 -68q-70 0 -114 43t-44 112t47.5 107.5t129.5 38.5h135v12q0 51 -71 51q-64 -1 -136 -39l-57 129q123 64 249 66zM342 127v88h-54q-57 0 -57 -50
q0 -25 14 -40t36 -15q35 0 61 17z" />
    <glyph glyph-name="atilde" unicode="&#xe3;" horiz-adv-x="585" 
d="M214 724q27 6 46.5 3t56.5 -17q67 -23 87 -22q26 2 33 33l75 -9q11 -61 -8 -103t-61 -53q-28 -6 -47 -3q-22 3 -57 16l-19 7q-42 15 -48 16q-11 2 -23 -1q-22 -6 -30 -32l-75 8q-10 62 9 104t61 53zM327 510q98 0 158 -45t60 -142v-323h-203v58q-65 -68 -154 -68
q-70 0 -114 43t-44 112q0 68 47.5 107t129.5 39h135v12q0 52 -71 50q-63 0 -136 -38l-57 129q123 64 249 66zM342 127v88h-54q-57 0 -57 -50q0 -25 14 -40t36 -15q35 0 61 17z" />
    <glyph glyph-name="adieresis" unicode="&#xe4;" horiz-adv-x="585" 
d="M224 565q-36 0 -59.5 23.5t-23.5 59.5q0 35 23 58q24 24 59.5 24t58.5 -24q24 -22 24 -59q0 -35 -23.5 -58.5t-58.5 -23.5zM370 706q24 24 59.5 24t58.5 -24q24 -23 24 -58.5t-24 -59.5q-23 -23 -58.5 -23t-59.5 23q-23 24 -23 59.5t23 58.5zM327 510q98 0 158 -45
t60 -142v-323h-203v58q-65 -68 -154 -68q-70 0 -114 43t-44 112t47.5 107.5t129.5 38.5h135v12q0 51 -71 51q-64 -1 -136 -39l-57 129q123 64 249 66zM342 127v88h-54q-57 0 -57 -50q0 -25 14 -40t36 -15q35 0 61 17z" />
    <glyph glyph-name="aring" unicode="&#xe5;" horiz-adv-x="585" 
d="M358 509q88 -7 137.5 -53.5t49.5 -132.5v-323h-203v58q-65 -68 -154 -68q-70 0 -114 43t-44 112t47.5 107.5t129.5 38.5h135v12q0 52 -71 50q-63 0 -136 -38l-57 129q109 57 218 64q-49 11 -81 49t-32 88q0 59 42 99q43 41 101 41q60 0 101 -41q42 -40 42 -99
q0 -49 -31.5 -87.5t-79.5 -48.5zM326 598q21 0 34.5 13.5t13.5 33.5q0 31 -29.5 43t-52.5 -10q-22 -22 -9.5 -51t43.5 -29zM342 127v88h-54q-57 0 -57 -50q0 -25 14 -40t36 -15q35 0 61 17z" />
    <glyph glyph-name="ae" unicode="&#xe6;" horiz-adv-x="970" 
d="M944 250v-48h-331q1 -31 26 -48.5t65 -17.5q58 0 95 34l105 -94q-92 -86 -218 -86q-78 0 -142 39v-29h-203v58q-65 -68 -154 -68q-69 0 -113.5 43t-44.5 112t47.5 107.5t129.5 38.5h135v12q0 51 -71 51q-64 -1 -136 -39l-57 129q123 64 249 66q123 2 179 -66
q75 66 176 66q121 0 191 -75q72 -73 72 -185zM615 296h140q0 31 -19 51t-51 20q-29 0 -49.5 -20.5t-20.5 -50.5zM341 127v88h-55q-56 0 -56 -50q0 -25 14 -40t36 -15q35 0 61 17z" />
    <glyph glyph-name="ccedilla" unicode="&#xe7;" horiz-adv-x="558" 
d="M313 162q40 0 65 31l155 -85q-36 -52 -94.5 -83.5t-124.5 -34.5l-16 -31q16 -2 29 -6q28 -10 45.5 -34t17.5 -54q0 -48 -36.5 -74.5t-93.5 -26.5q-64 0 -114 28l25 70q23 -12 53 -12q21 1 33.5 12.5t13.5 27.5q0 13 -8.5 23t-22.5 11q-13 0 -22 -4l-22 20l30 61
q-86 24 -142 92q-55 68 -55 157q0 107 80 184q80 76 194 76q70 0 130.5 -31.5t99.5 -86.5l-155 -85q-25 31 -65 31q-35 0 -60 -26t-25 -62q0 -37 25 -62.5t60 -25.5z" />
    <glyph glyph-name="egrave" unicode="&#xe8;" 
d="M258 728l124 -178h-174l-158 178h208zM294 510q121 0 191 -75q72 -73 72 -185v-48h-331q2 -32 27.5 -49t63.5 -17q58 0 95 34l105 -94q-92 -86 -218 -86q-109 -2 -190 76t-79 184q0 107 77 184q77 76 187 76zM298 367q-29 0 -49.5 -20.5t-20.5 -50.5h140q0 31 -19 51
t-51 20z" />
    <glyph glyph-name="eacute" unicode="&#xe9;" 
d="M533 728l-158 -178h-174l124 178h208zM294 510q121 0 191 -75q72 -73 72 -185v-48h-331q1 -32 27.5 -49t63.5 -17q58 0 95 34l105 -94q-92 -86 -218 -86q-111 0 -190 76t-79 184q0 107 77 184q77 76 187 76zM298 367q-29 0 -49.5 -20.5t-20.5 -50.5h140q0 31 -19 51
t-51 20z" />
    <glyph glyph-name="ecircumflex" unicode="&#xea;" 
d="M399 728l124 -178h-168l-61 74l-62 -74h-167l123 178h211zM294 510q121 0 191 -75q72 -73 72 -185v-48h-331q1 -32 27.5 -49t63.5 -17q58 0 95 34l105 -94q-92 -86 -218 -86q-111 0 -190 76t-79 184q0 107 77 184q77 76 187 76zM298 367q-29 0 -49.5 -20.5t-20.5 -50.5
h140q0 31 -19 51t-51 20z" />
    <glyph glyph-name="edieresis" unicode="&#xeb;" 
d="M131 706q24 24 59.5 24t58.5 -24q24 -23 24 -58.5t-24 -59.5q-23 -23 -58.5 -23t-59.5 23q-23 24 -23 59.5t23 58.5zM337 706q24 24 59.5 24t58.5 -24q24 -23 24 -58.5t-24 -59.5q-23 -23 -58.5 -23t-59.5 23q-23 24 -23 59.5t23 58.5zM294 510q121 0 191 -75
q72 -73 72 -185v-48h-331q2 -32 27.5 -49t63.5 -17q58 0 95 34l105 -94q-92 -86 -218 -86q-109 -2 -190 76t-79 184q0 107 77 184q77 76 187 76zM298 367q-29 0 -49.5 -20.5t-20.5 -50.5h140q0 31 -19 51t-51 20z" />
    <glyph glyph-name="igrave" unicode="&#xec;" horiz-adv-x="303" 
d="M122 728l123 -178h-173l-159 178h209zM258 500v-500h-203v500h203z" />
    <glyph glyph-name="iacute" unicode="&#xed;" horiz-adv-x="303" 
d="M396 728l-159 -178h-173l123 178h209zM257 500v-500h-203v500h203z" />
    <glyph glyph-name="icircumflex" unicode="&#xee;" horiz-adv-x="303" 
d="M263 728l123 -178h-167l-62 74l-61 -74h-168l123 178h212zM258 500v-500h-203v500h203z" />
    <glyph glyph-name="idieresis" unicode="&#xef;" horiz-adv-x="303" 
d="M-4 706q23 24 58.5 24t58.5 -24q24 -23 24 -58.5t-24 -59.5q-23 -23 -58.5 -23t-58.5 23q-24 24 -24 59.5t24 58.5zM201 706q24 24 59 24t59 -24q24 -23 24 -58.5t-24 -59.5q-24 -23 -59 -23t-59 23q-24 24 -24 59.5t24 58.5zM258 500v-500h-203v500h203z" />
    <glyph glyph-name="eth" unicode="&#xf0;" horiz-adv-x="648" 
d="M532 739l67 -104l-48 -29q52 -98 52 -250q0 -110 -35 -195q-63 -168 -269 -171q-127 0 -201 80.5t-74 183.5q0 87 56 149t161 62q75 0 136 -35v11q0 28 -5 56l-49 -30l-67 104l40 24q-16 6 -36 6q-64 0 -116 -40l-60 139q94 56 203 56q109 2 183 -54zM300 151q68 0 79 95
q-4 31 -25.5 49.5t-53.5 18.5q-31 0 -51.5 -23t-20.5 -59t20 -58.5t52 -22.5z" />
    <glyph glyph-name="ntilde" unicode="&#xf1;" horiz-adv-x="631" 
d="M203 724q27 6 46 3t58 -17q67 -23 86 -22q25 1 34 33l75 -9q10 -62 -9 -103.5t-61 -52.5q-27 -6 -46 -3q-22 3 -57 16l-19 7l-48 16q-11 2 -23 -1q-22 -6 -30 -32l-75 8q-11 61 8 103.5t61 53.5zM418 510q78 0 125.5 -41.5t47.5 -117.5v-351h-203v289q0 27 -14.5 42
t-38.5 15q-47 0 -87 -29v-317h-203v500h203v-49q79 59 170 59z" />
    <glyph glyph-name="ograve" unicode="&#xf2;" horiz-adv-x="636" 
d="M318 510q117 2 204 -76.5t84 -183.5q0 -108 -85 -184q-83 -76 -203 -76q-119 0 -204 76q-84 76 -84 184t84 184q85 76 204 76zM317 338q-36 2 -62 -26t-26 -62t26 -62q28 -26 62 -26t61.5 26t25.5 62q0 37 -25.5 62.5t-61.5 25.5zM283 728l123 -178h-174l-158 178h209z
" />
    <glyph glyph-name="oacute" unicode="&#xf3;" horiz-adv-x="636" 
d="M558 728l-159 -178h-173l123 178h209zM318 510q117 2 204 -76.5t84 -183.5q0 -108 -85 -184q-83 -76 -203 -76q-119 0 -204 76q-84 76 -84 184t84 184q85 76 204 76zM317 338q-36 2 -62 -26t-26 -62t26 -62q28 -26 62 -26t61.5 26t25.5 62q0 37 -25.5 62.5t-61.5 25.5z
" />
    <glyph glyph-name="ocircumflex" unicode="&#xf4;" horiz-adv-x="636" 
d="M424 728l123 -178h-167l-62 74l-62 -74h-167l123 178h212zM318 510q117 2 204 -76.5t84 -183.5q0 -108 -85 -184q-83 -76 -203 -76q-119 0 -204 76q-84 76 -84 184t84 184q85 76 204 76zM317 338q-36 2 -62 -26t-26 -62t26 -62q28 -26 62 -26t61.5 26t25.5 62
q0 37 -25.5 62.5t-61.5 25.5z" />
    <glyph glyph-name="otilde" unicode="&#xf5;" horiz-adv-x="636" 
d="M205 724q27 6 46 3t58 -17q67 -23 87 -22q24 2 33 33l75 -9q10 -62 -9 -103.5t-61 -52.5q-27 -6 -46 -3q-22 3 -57 16l-19 7l-48 16q-11 2 -23 -1q-22 -6 -30 -32l-75 8q-11 61 8 103.5t61 53.5zM318 510q117 2 204 -76.5t84 -183.5q0 -108 -85 -184q-83 -76 -203 -76
q-119 0 -204 76q-84 76 -84 184t84 184q85 76 204 76zM317 338q-36 2 -62 -26t-26 -62t26 -62q28 -26 62 -26t61.5 26t25.5 62q0 37 -25.5 62.5t-61.5 25.5z" />
    <glyph glyph-name="odieresis" unicode="&#xf6;" horiz-adv-x="636" 
d="M318 510q117 2 204 -76.5t84 -183.5q0 -108 -85 -184q-83 -76 -203 -76q-119 0 -204 76q-84 76 -84 184t84 184q85 76 204 76zM317 338q-36 2 -62 -26t-26 -62t26 -62q28 -26 62 -26t61.5 26t25.5 62q0 37 -25.5 62.5t-61.5 25.5zM156 706q24 24 59.5 24t58.5 -24
q24 -23 24 -58.5t-24 -59.5q-23 -23 -58.5 -23t-59.5 23q-23 24 -23 59.5t23 58.5zM361 706q24 24 59.5 24t58.5 -24q24 -23 24 -58.5t-24 -59.5q-23 -23 -58.5 -23t-59.5 23q-23 24 -23 59.5t23 58.5z" />
    <glyph glyph-name="divide" unicode="&#xf7;" horiz-adv-x="570" 
d="M210 562q31 27 75 27t75 -27q31 -26 31 -64t-31 -65q-31 -26 -75 -26t-75 26q-31 27 -31 65t31 64zM540 366v-155h-510v155h510zM210 143q31 27 75 27t75 -27q31 -26 31 -64t-31 -65q-31 -26 -75 -26t-75 26q-31 27 -31 65t31 64z" />
    <glyph glyph-name="oslash" unicode="&#xf8;" horiz-adv-x="636" 
d="M396 550h128l-42 -87q56 -36 89.5 -92.5t33.5 -120.5q0 -108 -85 -184q-83 -76 -203 -76q-26 0 -58 5l-21 -45h-127l41 87q-56 36 -89.5 92.5t-33.5 120.5q0 108 84 184q85 76 204 76q26 0 58 -5zM228 250q0 -18 8 -36l58 121q-29 -7 -47.5 -30.5t-18.5 -54.5zM397 283
l-57 -117q28 8 45.5 31t17.5 53q0 16 -6 33z" />
    <glyph glyph-name="ugrave" unicode="&#xf9;" horiz-adv-x="626" 
d="M279 728l124 -178h-174l-158 178h208zM585 500v-500h-203v49q-79 -59 -170 -59q-77 0 -125 41.5t-48 117.5v351h203v-289q0 -27 14.5 -42t39.5 -15q48 0 86 29v317h203z" />
    <glyph glyph-name="uacute" unicode="&#xfa;" horiz-adv-x="626" 
d="M554 728l-158 -178h-174l123 178h209zM585 500v-500h-203v49q-79 -59 -170 -59q-77 0 -125 41.5t-48 117.5v351h203v-289q0 -27 14.5 -42t39.5 -15q48 0 86 29v317h203z" />
    <glyph glyph-name="ucircumflex" unicode="&#xfb;" horiz-adv-x="626" 
d="M421 728l124 -178h-168l-61 74l-62 -74h-168l124 178h211zM40 500h203v-289q0 -27 14.5 -42t39.5 -15q48 0 86 29v317h203v-500h-203v49q-79 -59 -170 -59q-77 0 -125 41.5t-48 117.5v351z" />
    <glyph glyph-name="udieresis" unicode="&#xfc;" horiz-adv-x="626" 
d="M213 565q-35 0 -59 23.5t-24 59.5q0 35 23 58q24 24 59.5 24t58.5 -24q24 -22 24 -59q0 -35 -23.5 -58.5t-58.5 -23.5zM359 706q24 24 59.5 24t58.5 -24q24 -23 24 -58.5t-24 -59.5q-23 -23 -58.5 -23t-59.5 23q-23 24 -23 59.5t23 58.5zM40 500h203v-289q0 -27 14.5 -42
t39.5 -15q48 0 86 29v317h203v-500h-203v49q-79 -59 -170 -59q-77 0 -125 41.5t-48 117.5v351z" />
    <glyph glyph-name="yacute" unicode="&#xfd;" horiz-adv-x="625" 
d="M566 728l-159 -178h-173l123 178h209zM240 500l86 -262l79 262h211l-203 -544q-60 -161 -218 -161q-74 -1 -185 40l56 132q69 -27 109 -22q36 4 59 36l3 4l-211 515h214z" />
    <glyph glyph-name="thorn" unicode="&#xfe;" horiz-adv-x="654" 
d="M50 700h203v-258q65 68 152 68q97 0 153 -74t56 -186t-56 -186t-153 -74q-87 0 -152 68v-253h-203v895zM329 338q-52 0 -76 -47v-82q24 -47 76 -47q35 0 60 26t25 62t-25 62t-60 26z" />
    <glyph glyph-name="ydieresis" unicode="&#xff;" horiz-adv-x="625" 
d="M223 565q-35 0 -58.5 23.5t-23.5 59.5q0 35 23 58q24 24 59.5 24t58.5 -24q24 -22 24 -59q0 -35 -23.5 -58.5t-59.5 -23.5zM369 706q24 24 59.5 24t58.5 -24q24 -23 24 -58.5t-24 -59.5q-23 -23 -58.5 -23t-59.5 23q-23 24 -23 59.5t23 58.5zM405 500h211l-203 -544
q-60 -161 -218 -161q-74 -1 -185 40l56 132q69 -27 109 -22q36 4 59 36l3 4l-211 515h214l86 -262z" />
    <glyph glyph-name="Amacron" unicode="&#x100;" horiz-adv-x="862" 
d="M572 700l270 -700h-260l-36 107h-231l-35 -107h-260l267 700h285zM430 457l-58 -177h117zM610 910v-125h-361v125h361z" />
    <glyph glyph-name="amacron" unicode="&#x101;" horiz-adv-x="585" 
d="M503 710v-125h-360v125h360zM327 510q98 0 158 -45t60 -142v-323h-203v58q-65 -68 -154 -68q-70 0 -114 43t-44 112t47.5 107.5t129.5 38.5h135v12q0 51 -71 51q-64 -1 -136 -39l-57 129q123 64 249 66zM342 127v88h-54q-57 0 -57 -50q0 -25 14 -40t36 -15q35 0 61 17z
" />
    <glyph glyph-name="Abreve" unicode="&#x102;" horiz-adv-x="862" 
d="M501 934h133q0 -76 -58 -125t-142 -49q-85 0 -143 49t-58 125h133q-3 -33 32.5 -46.5t70.5 0t32 46.5zM572 700l270 -700h-260l-36 107h-231l-35 -107h-260l267 700h285zM430 457l-58 -177h117z" />
    <glyph glyph-name="abreve" unicode="&#x103;" horiz-adv-x="585" 
d="M393 734h133q0 -76 -58 -125t-142 -49t-142 49t-58 125h133q-3 -33 32 -46.5t70 0t32 46.5zM326 510q98 0 158 -45t60 -142v-323h-203v58q-65 -68 -154 -68q-69 0 -113.5 43t-44.5 112t47.5 107.5t129.5 38.5h135v12q0 51 -71 51q-64 -1 -136 -39l-57 129q123 64 249 66z
M341 127v88h-55q-56 0 -56 -50q0 -25 14 -40t36 -15q35 0 61 17z" />
    <glyph glyph-name="Aogonek" unicode="&#x104;" horiz-adv-x="862" 
d="M572 700l270 -700h-151l-2 -3q-31 -45 -21 -72q8 -23 38 -26q15 -3 36 2l23 -91q-42 -16 -98 -16q-89 0 -117 48q-32 57 28 151l4 7l-36 107h-231l-35 -107h-260l267 700h285zM430 457l-58 -177h117z" />
    <glyph glyph-name="aogonek" unicode="&#x105;" horiz-adv-x="585" 
d="M327 510q98 0 158 -45t60 -142v-323h-94l-3 -4q-32 -45 -21 -72q8 -23 38 -26q15 -3 36 2l23 -91q-42 -16 -98 -16q-88 0 -117 48q-32 57 28 151l5 8v58q-65 -68 -154 -68q-70 0 -114 43t-44 112t47.5 107.5t129.5 38.5h135v12q0 51 -71 51q-64 -1 -136 -39l-57 129
q123 64 249 66zM342 127v88h-55q-56 0 -56 -50q0 -25 14 -40t36 -15q35 0 61 17z" />
    <glyph glyph-name="Cacute" unicode="&#x106;" horiz-adv-x="750" 
d="M642 928l-159 -178h-173l123 178h209zM413 710q94 0 175 -43t131 -116l-189 -105q-40 60 -115 60q-64 0 -104.5 -45t-40.5 -111q0 -67 40 -111q40 -45 105 -45q75 0 115 60l189 -105q-51 -75 -132 -117t-174 -42q-153 0 -261 105.5t-108 254.5q-2 96 48.5 180t136.5 133
t184 47z" />
    <glyph glyph-name="cacute" unicode="&#x107;" horiz-adv-x="558" 
d="M531 728l-158 -178h-174l123 178h209zM303 510q70 0 130.5 -31.5t99.5 -86.5l-155 -85q-25 31 -65 31q-35 0 -60 -26t-25 -62q0 -37 25 -62.5t60 -25.5q40 0 65 31l155 -85q-39 -55 -99.5 -86.5t-130.5 -31.5q-114 0 -194 76q-80 77 -80 184t80 184q80 76 194 76z" />
    <glyph glyph-name="Cdotaccent" unicode="&#x10a;" horiz-adv-x="750" 
d="M414 710q94 0 175 -43t131 -116l-189 -105q-41 60 -115 60q-64 0 -104 -45t-40 -111q0 -67 40 -111q41 -45 104 -45q74 0 115 60l189 -105q-51 -75 -132 -117t-174 -42q-98 -2 -184 47t-136.5 133t-48.5 180q-2 96 48.5 180t136.5 133t184 47zM344 906q24 24 59.5 24
t58.5 -24q24 -23 24 -58.5t-24 -59.5q-23 -23 -58.5 -23t-59.5 23q-23 24 -23 59.5t23 58.5z" />
    <glyph glyph-name="cdotaccent" unicode="&#x10b;" horiz-adv-x="558" 
d="M304 510q70 0 130.5 -31.5t99.5 -86.5l-155 -85q-25 31 -65 31q-35 0 -60 -25.5t-25 -62.5q0 -36 25 -62t60 -26q40 0 65 31l155 -85q-39 -55 -99.5 -86.5t-130.5 -31.5q-114 0 -194 76q-80 77 -80 184t80 184q80 76 194 76zM233 706q24 24 59.5 24t58.5 -24
q24 -23 24 -58.5t-24 -59.5q-23 -23 -58.5 -23t-59.5 23q-23 24 -23 59.5t23 58.5z" />
    <glyph glyph-name="Ccaron" unicode="&#x10c;" horiz-adv-x="750" 
d="M632 928l-124 -178h-211l-123 178h167l62 -74l61 74h168zM414 710q94 0 175 -43t131 -116l-189 -105q-41 60 -115 60q-64 0 -104 -45t-40 -111q0 -67 40 -111q41 -45 104 -45q74 0 115 60l189 -105q-51 -75 -132 -117t-174 -42q-98 -2 -184 47t-136.5 133t-48.5 180
q-2 96 48.5 180t136.5 133t184 47z" />
    <glyph glyph-name="ccaron" unicode="&#x10d;" horiz-adv-x="558" 
d="M521 728l-123 -178h-212l-123 178h167l62 -74l61 74h168zM304 510q70 0 130.5 -31.5t99.5 -86.5l-155 -85q-25 31 -65 31q-35 0 -60 -25.5t-25 -62.5q0 -36 25 -62t60 -26q40 0 65 31l155 -85q-39 -55 -99.5 -86.5t-130.5 -31.5q-114 0 -194 76q-80 77 -80 184t80 184
q80 76 194 76z" />
    <glyph glyph-name="Dcaron" unicode="&#x10e;" horiz-adv-x="789" 
d="M575 928l-124 -178h-211l-124 178h168l61 -74l62 74h168zM60 0v700h308q154 3 266.5 -101t109.5 -250q3 -145 -109.5 -248.5t-266.5 -100.5h-308zM360 506h-82v-312h82q68 0 114 45q48 45 48 111t-48 111q-46 45 -114 45z" />
    <glyph glyph-name="dcaron" unicode="&#x10f;" horiz-adv-x="852" 
d="M851 631q0 -21 -12 -39l-122 -178l-50 23l50 123q-51 24 -51 71q0 33 27 56t65 23q39 0 66 -23t27 -56zM390 700h203v-700h-203v58q-65 -68 -151 -68q-98 0 -154 74t-56 186t56 186t154 74q86 0 151 -68v258zM315 338q-35 0 -60.5 -25.5t-25.5 -62.5q0 -36 25 -62t61 -26
q51 0 75 47v82q-24 47 -75 47z" />
    <glyph glyph-name="Dcroat" unicode="&#x110;" horiz-adv-x="799" 
d="M70 435v265h308q154 3 266.5 -101t109.5 -250q3 -145 -109.5 -248.5t-266.5 -100.5h-308v265h-60v170h60zM288 265v-71h82q68 0 114 45q48 45 48 111t-48 111q-46 45 -114 45h-82v-71h82v-170h-82z" />
    <glyph glyph-name="dslash" unicode="&#x111;" horiz-adv-x="639" 
d="M655 657v-125h-62v-532h-203v58q-65 -68 -151 -68q-98 0 -154 74t-56 186t56 186t154 74q86 0 151 -68v90h-95v125h95v43h203v-43h62zM390 209v82q-24 47 -75 47q-36 0 -61 -26t-25 -62t25 -62t61 -26q51 0 75 47z" />
    <glyph glyph-name="Emacron" unicode="&#x112;" horiz-adv-x="682" 
d="M647 700v-195h-369v-58h344v-185h-344v-67h374v-195h-592v700h587zM531 910v-125h-361v125h361z" />
    <glyph glyph-name="emacron" unicode="&#x113;" 
d="M473 710v-125h-360v125h360zM294 510q121 0 191 -75q72 -73 72 -185v-48h-331q1 -32 27.5 -49t63.5 -17q58 0 95 34l105 -94q-92 -86 -218 -86q-111 0 -190 76t-79 184q0 107 77 184q77 76 187 76zM298 367q-29 0 -49.5 -20.5t-20.5 -50.5h140q0 31 -19 51t-51 20z" />
    <glyph glyph-name="Edotaccent" unicode="&#x116;" horiz-adv-x="682" 
d="M292 906q24 24 59 24t59 -24q24 -23 24 -58.5t-24 -59.5q-24 -23 -59 -23t-59 23q-24 24 -24 59.5t24 58.5zM647 700v-195h-369v-58h344v-185h-344v-67h374v-195h-592v700h587z" />
    <glyph glyph-name="edotaccent" unicode="&#x117;" 
d="M294 510q121 0 191 -75q72 -73 72 -185v-48h-331q1 -32 27.5 -49t63.5 -17q58 0 95 34l105 -94q-92 -86 -218 -86q-111 0 -190 76t-79 184q0 107 77 184q77 76 187 76zM298 367q-29 0 -49.5 -20.5t-20.5 -50.5h140q0 31 -19 51t-51 20zM234 706q24 24 59.5 24t58.5 -24
q24 -23 24 -58.5t-24 -59.5q-23 -23 -58.5 -23t-59.5 23q-23 24 -23 59.5t23 58.5z" />
    <glyph glyph-name="Eogonek" unicode="&#x118;" horiz-adv-x="682" 
d="M647 700v-195h-369v-58h344v-185h-344v-67h374v-195h-54l-4 -6q-23 -38 -14 -62q8 -23 38 -26q15 -3 36 2l23 -91q-42 -16 -98 -16q-89 0 -117 48q-31 55 23 144l5 7h-430v700h587z" />
    <glyph glyph-name="eogonek" unicode="&#x119;" 
d="M294 510q119 1 192.5 -74.5t70.5 -185.5v-48h-331q2 -32 27.5 -49t63.5 -17q58 0 95 34l105 -94q-26 -26 -65 -47l-3 -5q-32 -46 -22 -72q9 -23 39 -26q15 -3 36 2l23 -91q-42 -16 -99 -16q-89 0 -116 48q-25 43 7 114l4 8q-17 -1 -33 0q-118 8 -188 81t-70 178
q0 107 77 184q77 76 187 76zM298 367q-29 0 -49.5 -20.5t-20.5 -50.5h140q0 31 -19 51t-51 20z" />
    <glyph glyph-name="Ecaron" unicode="&#x11a;" horiz-adv-x="682" 
d="M580 928l-124 -178h-211l-124 178h168l61 -74l62 74h168zM647 700v-195h-369v-58h344v-185h-344v-67h374v-195h-592v700h587z" />
    <glyph glyph-name="ecaron" unicode="&#x11b;" 
d="M522 728l-123 -178h-212l-123 178h167l62 -74l62 74h167zM294 510q121 0 191 -75q72 -73 72 -185v-48h-331q1 -32 27.5 -49t63.5 -17q58 0 95 34l105 -94q-92 -86 -218 -86q-111 0 -190 76t-79 184q0 107 77 184q77 76 187 76zM298 367q-29 0 -49.5 -20.5t-20.5 -50.5
h140q0 31 -19 51t-51 20z" />
    <glyph glyph-name="Gbreve" unicode="&#x11e;" horiz-adv-x="792" 
d="M473 934h134q0 -75 -59 -125q-58 -49 -142 -49t-142 49t-58 125h133q0 -24 18.5 -38.5t48.5 -14.5q29 0 48 14t19 39zM434 710q162 -1 281 -104l-142 -148q-59 52 -139 52q-69 0 -116 -43q-48 -43 -48 -117q0 -66 42 -111t108 -45q61 0 110 24v41h-96v154h303v-317
q-139 -106 -317 -106q-152 -4 -265.5 105t-110.5 255q0 83 32.5 153.5t88.5 115.5q113 93 269 91z" />
    <glyph glyph-name="gbreve" unicode="&#x11f;" horiz-adv-x="649" 
d="M412 734h133q0 -76 -58 -125t-142 -49q-85 0 -143 49t-58 125h133q0 -24 19 -38.5t49 -14.5q29 0 48 14t19 39zM244 510q86 0 151 -68v58h203v-480q0 -118 -73.5 -173t-192.5 -55q-149 2 -292 74l57 131q104 -51 192 -52q49 -1 77.5 18t28.5 57v39q-59 -59 -151 -59
q-100 0 -155 69q-55 70 -55 181q0 112 56 186t154 74zM320 338q-36 0 -61 -25.5t-25 -62.5q0 -36 25 -62t61 -26q50 0 75 46v84q-26 46 -75 46z" />
    <glyph glyph-name="Gdotaccent" unicode="&#x120;" horiz-adv-x="792" 
d="M435 710q162 -1 281 -104l-142 -148q-59 52 -139 52q-69 0 -116 -43q-47 -44 -47 -117q0 -65 41 -111q42 -45 109 -45q59 0 109 24v41h-96v154h303v-317q-139 -106 -316 -106q-100 -2 -188 47t-139.5 133t-49.5 180q0 83 32.5 153.5t88.5 115.5q113 93 269 91zM344 906
q24 24 59.5 24t58.5 -24q24 -23 24 -58.5t-24 -59.5q-23 -23 -58.5 -23t-59.5 23q-23 24 -23 59.5t23 58.5z" />
    <glyph glyph-name="gdotaccent" unicode="&#x121;" horiz-adv-x="649" 
d="M282 706q24 24 59 24t59 -24q24 -23 24 -58.5t-24 -59.5q-24 -23 -59 -23t-59 23q-24 24 -24 59.5t24 58.5zM244 510q86 0 151 -68v58h203v-480q0 -118 -73.5 -173t-192.5 -55q-149 2 -292 74l57 131q104 -51 192 -52q49 -1 77.5 18t28.5 57v39q-59 -59 -151 -59
q-100 0 -155 69q-55 70 -55 181q0 112 56 186t154 74zM320 338q-36 0 -61 -25.5t-25 -62.5q0 -36 25 -62t61 -26q50 0 75 46v84q-25 46 -75 46z" />
    <glyph glyph-name="Gcommaaccent" unicode="&#x122;" horiz-adv-x="792" 
d="M435 710q162 -1 281 -104l-142 -148q-59 52 -139 52q-69 0 -116 -43q-47 -44 -47 -117q0 -65 41 -111q42 -45 109 -45q59 0 109 24v41h-96v154h303v-317q-139 -106 -316 -106q-100 -2 -188 47t-139.5 133t-49.5 180q0 83 32.5 153.5t88.5 115.5q113 93 269 91zM515 -127
q0 -21 -12 -39l-122 -178l-50 23l50 123q-23 10 -37 29t-14 42q0 33 27 56t65 23q39 0 66 -23t27 -56z" />
    <glyph glyph-name="gcommaaccent" unicode="&#x123;" horiz-adv-x="649" 
d="M359 854l50 -22l-51 -124q51 -21 51 -71q0 -32 -27 -55.5t-65 -23.5t-65 23.5t-27 55.5q0 21 12 40zM245 510q86 0 151 -68v58h203v-480q0 -118 -73.5 -173t-192.5 -55q-149 2 -292 74l57 131q104 -51 192 -52q49 -1 77.5 18t28.5 57v39q-59 -59 -151 -59q-99 0 -155 69
q-55 70 -55 181q0 112 56 186t154 74zM321 338q-36 0 -61 -25.5t-25 -62.5q0 -36 25 -62t61 -26q50 0 75 46v84q-25 46 -75 46z" />
    <glyph glyph-name="Hbar" unicode="&#x126;" horiz-adv-x="795" 
d="M795 645v-135h-60v-510h-217v254h-240v-254h-218v510h-60v135h60v55h218v-55h240v55h217v-55h60zM518 449v61h-240v-61h240z" />
    <glyph glyph-name="hbar" unicode="&#x127;" horiz-adv-x="636" 
d="M424 510q78 0 125.5 -41.5t47.5 -117.5v-351h-203v289q0 27 -14.5 42t-38.5 15q-47 0 -87 -29v-317h-203v532h-59v125h59v43h203v-43h117v-125h-117v-81q79 59 170 59z" />
    <glyph glyph-name="Itilde" unicode="&#x128;" horiz-adv-x="337" 
d="M74 924q27 6 46 3t58 -17q67 -23 86 -22q25 1 34 33l75 -9q10 -62 -9 -103.5t-61 -52.5q-27 -6 -46 -3q-22 3 -57 16l-19 7l-48 16q-11 2 -23 -1q-22 -6 -30 -32l-75 8q-11 61 8 103.5t61 53.5zM289 700v-700h-218v700h218z" />
    <glyph glyph-name="itilde" unicode="&#x129;" horiz-adv-x="303" 
d="M56 724q27 6 46.5 3t56.5 -17q67 -23 87 -22q24 2 33 33l75 -9q11 -61 -8 -103t-61 -53q-28 -6 -47 -3q-22 3 -57 16l-19 7l-48 16q-11 2 -23 -1q-22 -6 -30 -32l-75 8q-10 62 9 104t61 53zM269 500v-500h-203v500h203z" />
    <glyph glyph-name="Imacron" unicode="&#x12a;" horiz-adv-x="337" 
d="M357 910v-125h-361v125h361zM279 700v-700h-218v700h218z" />
    <glyph glyph-name="imacron" unicode="&#x12b;" horiz-adv-x="303" 
d="M338 710v-125h-361v125h361zM259 500v-500h-203v500h203z" />
    <glyph glyph-name="Iogonek" unicode="&#x12e;" horiz-adv-x="337" 
d="M278 700v-700l-5 -7q-32 -46 -22 -72q9 -21 39 -26q14 -3 36 2l22 -91q-41 -16 -98 -16q-89 0 -116 48q-31 57 27 151l7 11h-108v700h218z" />
    <glyph glyph-name="iogonek" unicode="&#x12f;" horiz-adv-x="303" 
d="M97 706q24 24 59.5 24t58.5 -24q24 -23 24 -58.5t-24 -59.5q-23 -23 -58.5 -23t-59.5 23q-23 24 -23 59.5t23 58.5zM257 500v-500l-5 -7q-32 -45 -21 -72q7 -21 39 -26q14 -3 35 2l23 -91q-42 -16 -98 -16q-89 0 -116 48q-33 57 27 151l7 11h-94v500h203z" />
    <glyph glyph-name="Idot" unicode="&#x130;" horiz-adv-x="337" 
d="M117 906q24 24 59 24t59 -24q24 -23 24 -58.5t-24 -59.5q-24 -23 -59 -23t-59 23q-24 24 -24 59.5t24 58.5zM278 700v-700h-218v700h218z" />
    <glyph glyph-name="dotlessi" unicode="&#x131;" horiz-adv-x="303" 
d="M258 500v-500h-203v500h203z" />
    <glyph glyph-name="IJ" unicode="&#x132;" horiz-adv-x="956" 
d="M679 700h218v-410q0 -168 -72 -234t-215 -66q-98 0 -159.5 28.5t-93.5 93.5l175 112q18 -35 67 -35q80 0 80 101v410zM278 700v-700h-218v700h218z" />
    <glyph glyph-name="ij" unicode="&#x133;" horiz-adv-x="612" 
d="M86 684q31 26 74.5 26t74.5 -26t31 -62.5t-31 -62.5t-74.5 -26t-74.5 26t-31 62.5t31 62.5zM387 684q32 26 75 26t74 -26t31 -62.5t-31 -62.5t-74 -26t-75 26q-30 26 -30 62.5t30 62.5zM262 500v-500h-203v500h203zM360 500h204v-533q0 -88 -51 -130t-128 -42
q-58 0 -115 20l19 110q9 -3 17 -3q24 0 39 16t15 42v520z" />
    <glyph glyph-name="Kcommaaccent" unicode="&#x136;" horiz-adv-x="774" 
d="M749 700l-244 -295l249 -405h-279l-113 231l-84 -102v-129h-218v700h218v-252l180 252h291zM483 -127q0 -21 -12 -39l-122 -178l-50 23l51 123q-23 10 -37 29t-14 42q0 33 27 56t65 23t65 -23t27 -56z" />
    <glyph glyph-name="kcommaaccent" unicode="&#x137;" horiz-adv-x="630" 
d="M253 700v-361l117 161h240l-157 -204l167 -296h-221l-87 149l-59 -67v-82h-203v700h203zM411 -127q0 -21 -12 -39l-122 -178l-50 23l50 123q-23 10 -37 29t-14 42q0 33 27.5 56t65.5 23t65 -23t27 -56z" />
    <glyph glyph-name="Lacute" unicode="&#x139;" horiz-adv-x="626" 
d="M278 700v-505h328v-195h-546v700h218zM558 928l-158 -178h-174l123 178h209z" />
    <glyph glyph-name="lacute" unicode="&#x13a;" horiz-adv-x="298" 
d="M404 928l-159 -178h-173l123 178h209zM257 700v-700h-203v700h203z" />
    <glyph glyph-name="Lcommaaccent" unicode="&#x13b;" horiz-adv-x="626" 
d="M278 700v-505h328v-195h-546v700h218zM411 -127q0 -21 -12 -39l-123 -178l-49 23l50 123q-23 10 -37 29t-14 42q0 33 27 56t65 23q39 0 66 -23t27 -56z" />
    <glyph glyph-name="lcommaaccent" unicode="&#x13c;" horiz-adv-x="298" 
d="M258 700v-700h-203v700h203zM250 -127q0 -21 -12 -39l-122 -178l-50 23l50 123q-23 10 -37 29t-14 42q0 33 27 56t65 23q39 0 66 -23t27 -56z" />
    <glyph glyph-name="Lcaron" unicode="&#x13d;" horiz-adv-x="626" 
d="M594 631q0 -21 -12 -39l-122 -178l-50 23l51 123q-23 10 -37 29t-14 42q0 33 27 56t65 23t65 -23t27 -56zM278 700v-505h328v-195h-546v700h218z" />
    <glyph glyph-name="lcaron" unicode="&#x13e;" horiz-adv-x="516" 
d="M516 631q0 -21 -12 -39l-122 -177l-50 22l50 124q-23 9 -37 28t-14 42q0 33 27 56t65 23q39 0 66 -23t27 -56zM258 700v-700h-203v700h203z" />
    <glyph glyph-name="Ldot" unicode="&#x13f;" horiz-adv-x="626" 
d="M278 700v-505h328v-195h-546v700h218zM478 468q44 0 75 -26.5t31 -64.5q2 -38 -31.5 -64.5t-75 -26.5t-75.5 26q-31 27 -31 65t31.5 64.5t75.5 26.5z" />
    <glyph glyph-name="ldot" unicode="&#x140;" horiz-adv-x="549" 
d="M258 700v-700h-203v700h203zM413 468q44 0 75 -26.5t31 -64.5q2 -38 -31.5 -64.5t-75 -26.5t-75.5 26q-31 27 -31 65t31.5 64.5t75.5 26.5z" />
    <glyph glyph-name="Lslash" unicode="&#x141;" horiz-adv-x="679" 
d="M301 195h328v-195h-546v249l-68 -30v199l68 30v252h218v-156l71 32v-198l-71 -32v-151z" />
    <glyph glyph-name="lslash" unicode="&#x142;" horiz-adv-x="361" 
d="M345 576v-198l-69 -34v-344h-203v247l-59 -28v199l59 28v254h203v-157z" />
    <glyph glyph-name="Nacute" unicode="&#x143;" horiz-adv-x="785" 
d="M654 928l-158 -178h-174l124 178h208zM730 700v-700h-223l-238 341v-341h-214v700h224l238 -341v341h213z" />
    <glyph glyph-name="nacute" unicode="&#x144;" horiz-adv-x="631" 
d="M555 728l-159 -178h-173l123 178h209zM417 510q78 0 125.5 -41.5t47.5 -117.5v-351h-203v289q0 27 -14.5 42t-38.5 15q-47 0 -87 -29v-317h-203v500h203v-49q79 59 170 59z" />
    <glyph glyph-name="Ncommaaccent" unicode="&#x145;" horiz-adv-x="785" 
d="M730 700v-700h-223l-238 341v-341h-214v700h224l238 -341v341h213zM507 -127q0 -21 -12 -39l-122 -178l-50 23l50 123q-51 24 -51 71q0 33 27 56t65 23q39 0 66 -23t27 -56z" />
    <glyph glyph-name="ncommaaccent" unicode="&#x146;" horiz-adv-x="631" 
d="M418 510q78 0 125.5 -41.5t47.5 -117.5v-351h-203v289q0 27 -14.5 42t-38.5 15q-47 0 -87 -29v-317h-203v500h203v-49q79 59 170 59zM408 -127q0 -21 -12 -39l-122 -178l-50 23l51 123q-23 10 -37 29t-14 42q0 33 27 56t65 23t65 -23t27 -56z" />
    <glyph glyph-name="Ncaron" unicode="&#x147;" horiz-adv-x="785" 
d="M643 928l-123 -178h-212l-123 178h167l62 -74l62 74h167zM730 700v-700h-223l-238 341v-341h-214v700h224l238 -341v341h213z" />
    <glyph glyph-name="ncaron" unicode="&#x148;" horiz-adv-x="631" 
d="M545 728l-124 -178h-211l-124 178h168l61 -74l62 74h168zM418 510q78 0 125.5 -41.5t47.5 -117.5v-351h-203v289q0 27 -14.5 42t-38.5 15q-47 0 -87 -29v-317h-203v500h203v-49q79 59 170 59z" />
    <glyph glyph-name="Eng" unicode="&#x14a;" horiz-adv-x="785" 
d="M517 700h213v-654q0 -164 -70.5 -229t-210.5 -65q-189 0 -249 119l171 111q20 -35 66 -35q59 0 74 53h-4l-238 341v-341h-214v700h224l237 -340v25z" />
    <glyph glyph-name="eng" unicode="&#x14b;" horiz-adv-x="631" 
d="M418 510q78 0 125.5 -41.5t47.5 -117.5v-384q0 -88 -50.5 -130t-127.5 -42q-58 0 -115 20l19 110q9 -3 17 -3q24 0 39 16t15 42v309q0 27 -14.5 42t-38.5 15q-47 0 -87 -29v-317h-203v500h203v-49q79 59 170 59z" />
    <glyph glyph-name="Omacron" unicode="&#x14c;" horiz-adv-x="843" 
d="M601 910v-125h-360v125h360zM232 662q87 48 189 48q103 0 189 -48q87 -48 137 -131q51 -83 51 -181t-50.5 -181t-137.5 -131q-86 -48 -189 -48q-102 0 -188.5 47.5t-137.5 131.5q-50 83 -50 181t50 181t137 131zM272 350q0 -65 41 -111q42 -45 109 -45q43 0 78 21t53 56
q19 36 19 79t-19 78q-18 36 -53 57t-79 21q-66 0 -107.5 -45t-41.5 -111z" />
    <glyph glyph-name="omacron" unicode="&#x14d;" horiz-adv-x="636" 
d="M318 510q117 2 204 -76.5t84 -183.5q0 -108 -85 -184q-83 -76 -203 -76q-119 0 -204 76q-84 76 -84 184t84 184q85 76 204 76zM317 338q-36 2 -62 -26t-26 -62t26 -62q28 -26 62 -26t61.5 26t25.5 62q0 37 -25.5 62.5t-61.5 25.5zM498 710v-125h-361v125h361z" />
    <glyph glyph-name="Ohungarumlaut" unicode="&#x150;" horiz-adv-x="843" 
d="M232 662q87 48 189 48q103 0 189 -48q87 -48 137 -131q51 -83 51 -181t-50.5 -181t-137.5 -131q-86 -48 -189 -48q-102 0 -188.5 47.5t-137.5 131.5q-50 83 -50 181t50 181t137 131zM272 350q0 -65 41 -111q42 -45 109 -45q43 0 78 21t53 56q19 36 19 79t-19 78
q-18 36 -53 57t-79 21q-66 0 -107.5 -45t-41.5 -111zM536 928l-158 -178h-174l123 178h209zM800 928l-158 -178h-174l124 178h208z" />
    <glyph glyph-name="ohungarumlaut" unicode="&#x151;" horiz-adv-x="636" 
d="M432 728l-158 -178h-173l123 178h208zM697 728l-159 -178h-173l123 178h209zM318 510q117 2 204 -76.5t84 -183.5q0 -108 -85 -184q-83 -76 -203 -76q-119 0 -204 76q-84 76 -84 184t84 184q85 76 204 76zM317 338q-36 2 -62 -26t-26 -62t26 -62q28 -26 62 -26t61.5 26
t25.5 62q0 37 -25.5 62.5t-61.5 25.5z" />
    <glyph glyph-name="OE" unicode="&#x152;" horiz-adv-x="1199" 
d="M795 195h375v-195h-592v22q-76 -32 -156 -32q-100 -2 -188 47t-139.5 133t-49.5 180q-3 146 110.5 254.5t266.5 105.5q80 0 156 -32v22h586v-195h-369v-58h345v-185h-345v-67zM572 350q0 66 -42.5 111t-108.5 45t-108 -45t-42 -111t42 -111t108 -45q67 0 109 45t42 111z
" />
    <glyph glyph-name="oe" unicode="&#x153;" horiz-adv-x="965" 
d="M939 250v-48h-331q1 -31 26.5 -48.5t63.5 -17.5q60 0 95 34l106 -94q-92 -86 -218 -86q-99 0 -176 63q-81 -63 -188 -63q-119 0 -204 76q-84 76 -84 184t84 184q85 76 204 76q105 0 187 -62q74 62 171 62q121 0 192.5 -74t71.5 -186zM610 296h140q0 31 -19 51t-51 20
q-29 0 -49.5 -21t-20.5 -50zM403 250q0 37 -26 62.5t-62 25.5q-35 0 -61 -26t-26 -62t26 -62t62 -26t61.5 26t25.5 62z" />
    <glyph glyph-name="Racute" unicode="&#x154;" horiz-adv-x="743" 
d="M636 928l-158 -178h-174l124 178h208zM59 0v700h319q174 0 251 -59t77 -191q0 -87 -31.5 -140.5t-99.5 -80.5l148 -229h-250l-123 200h-26h-47v-200h-218zM389 504h-112v-137h112q49 0 70 16t21 52q0 37 -21 53t-70 16z" />
    <glyph glyph-name="racute" unicode="&#x155;" horiz-adv-x="414" 
d="M458 728l-159 -178h-173l123 178h209zM405 510v-164q-90 0 -157 -85v-261h-203v500h203v-91q73 101 157 101z" />
    <glyph glyph-name="Rcommaaccent" unicode="&#x156;" horiz-adv-x="743" 
d="M60 0v700h319q174 0 251 -59t77 -191q0 -171 -131 -221l148 -229h-250l-123 200h-26h-47v-200h-218zM390 504h-112v-137h112q49 0 70 16t21 52q0 37 -21 53t-70 16zM490 -127q0 -21 -12 -39l-122 -178l-50 23l50 123q-51 24 -51 71q0 33 27 56t65 23q39 0 66 -23t27 -56z
" />
    <glyph glyph-name="rcommaaccent" unicode="&#x157;" horiz-adv-x="414" 
d="M405 510v-164q-90 0 -157 -85v-261h-203v500h203v-91q73 101 157 101zM310 -127q0 -21 -12 -39l-122 -178l-50 23l51 123q-23 10 -37 29t-14 42q0 33 27 56t65 23t65 -23t27 -56z" />
    <glyph glyph-name="Rcaron" unicode="&#x158;" horiz-adv-x="743" 
d="M626 928l-123 -178h-212l-123 178h167l62 -74l62 74h167zM60 0v700h319q174 0 251 -59t77 -191q0 -171 -131 -221l148 -229h-250l-123 200h-26h-47v-200h-218zM390 504h-112v-137h112q49 0 70 16t21 52q0 37 -21 53t-70 16z" />
    <glyph glyph-name="rcaron" unicode="&#x159;" horiz-adv-x="414" 
d="M448 728l-124 -178h-211l-124 178h168l61 -74l62 74h168zM406 510v-164q-90 0 -157 -85v-261h-203v500h203v-91q34 48 75.5 74.5t81.5 26.5z" />
    <glyph glyph-name="Sacute" unicode="&#x15a;" horiz-adv-x="710" 
d="M600 928l-158 -178h-174l124 178h208zM360 710q175 0 308 -79l-91 -168q-128 64 -241 64q-40 0 -40 -26q0 -9 17 -17q14 -6 90 -25q51 -14 66 -19q72 -21 111 -45q101 -58 101 -166q0 -114 -78.5 -176.5t-220.5 -62.5q-201 0 -352 100l97 162q137 -76 280 -76q44 0 44 25
q0 18 -18 27t-92 25q-67 17 -110 30q-41 13 -89 39q-82 51 -82 152q0 116 83 176t217 60z" />
    <glyph glyph-name="sacute" unicode="&#x15b;" horiz-adv-x="520" 
d="M257 510q127 0 223 -57l-66 -123q-85 46 -158 46q-26 0 -26 -19q0 -7 10 -12t48 -14q87 -22 143 -57q58 -36 58 -113q0 -82 -56.5 -126.5t-158.5 -44.5q-146 0 -255 72l70 117q89 -55 183 -55q29 0 29 18q0 11 -8 14q-7 4 -50 15l-65 19q-71 25 -99 52q-38 38 -38 98
q0 83 60.5 126.5t155.5 43.5zM497 728l-158 -178h-174l123 178h209z" />
    <glyph glyph-name="Scedilla" unicode="&#x15e;" horiz-adv-x="710" 
d="M360 710q175 0 308 -79l-91 -168q-128 64 -241 64q-40 0 -40 -26q0 -11 16 -17t91 -25q50 -13 76 -22q85 -26 123 -56q79 -55 79 -152q0 -98 -58 -158t-164 -76l-40 -4l-16 -32q14 -1 28 -6q29 -10 46.5 -33.5t17.5 -54.5q0 -48 -36.5 -74.5t-93.5 -26.5q-63 0 -115 28
l26 70q22 -12 52 -12q22 1 34.5 12t13.5 28q0 13 -8.5 23t-22.5 11q-13 0 -22 -4l-23 20l26 52q-166 12 -296 98l97 162q137 -76 280 -76q44 0 44 25q0 18 -18 27t-92 25q-67 17 -110 30q-41 13 -89 39q-82 51 -82 152q0 116 83 176t217 60z" />
    <glyph glyph-name="scedilla" unicode="&#x15f;" horiz-adv-x="520" 
d="M257 510q127 0 223 -57l-66 -123q-85 46 -158 46q-26 0 -26 -19q0 -7 10 -12t48 -14q87 -22 143 -57q58 -36 58 -113q0 -72 -45 -116t-127 -53h-7l-16 -33q14 -1 28 -6q29 -10 46 -33.5t17 -54.5q0 -49 -36 -75t-94 -26q-62 0 -114 28l26 70q23 -12 52 -12q21 1 34 12.5
t13 27.5q1 13 -7.5 23t-22.5 11q-13 0 -22 -4l-23 20l26 53q-111 11 -198 69l70 117q89 -55 183 -55q29 0 29 18q0 11 -8 14q-7 4 -50 15l-65 19q-71 25 -99 52q-38 38 -38 98q0 83 60.5 126.5t155.5 43.5z" />
    <glyph glyph-name="Scaron" unicode="&#x160;" horiz-adv-x="710" 
d="M589 928l-123 -178h-212l-123 178h167l62 -74l62 74h167zM360 710q175 0 308 -79l-91 -168q-128 64 -241 64q-40 0 -40 -26q0 -9 17 -17q14 -6 90 -25q50 -13 76 -22q85 -26 123 -56q79 -55 79 -152q0 -114 -78.5 -176.5t-220.5 -62.5q-201 0 -352 100l97 162
q137 -76 280 -76q44 0 44 25q0 18 -18 27t-92 25q-67 17 -110 30q-41 13 -89 39q-82 51 -82 152q0 116 83 176t217 60z" />
    <glyph glyph-name="scaron" unicode="&#x161;" horiz-adv-x="520" 
d="M486 728l-123 -178h-212l-123 178h167l62 -74l62 74h167zM257 510q127 0 223 -57l-66 -123q-85 46 -158 46q-26 0 -26 -19q0 -7 10 -12t48 -14q87 -22 143 -57q58 -36 58 -113q0 -82 -56.5 -126.5t-158.5 -44.5q-146 0 -255 72l70 117q89 -55 183 -55q29 0 29 18
q0 11 -8 14q-7 4 -50 15l-65 19q-71 25 -99 52q-38 38 -38 98q0 83 60.5 126.5t155.5 43.5z" />
    <glyph glyph-name="Tcedilla" unicode="&#x162;" horiz-adv-x="643" 
d="M624 700v-185h-193v-515h-66l-21 -41q15 -1 29 -6q29 -10 46 -33.5t17 -54.5q0 -49 -36 -75t-94 -26q-62 0 -114 28l25 70q23 -12 53 -12q21 1 34 12.5t13 27.5q1 13 -7.5 23t-23.5 11q-12 0 -21 -4l-23 20l30 60h-59v515h-193v185h604z" />
    <glyph glyph-name="tcedilla" unicode="&#x163;" horiz-adv-x="453" 
d="M282 624v-124h113v-154h-113v-146q0 -46 52 -46q33 0 65 19l25 -137q-42 -22 -76 -31q-32 -10 -67 -13l-16 -33q14 -1 28 -6q30 -10 47 -33t17 -55q0 -49 -36.5 -75t-94.5 -26q-62 0 -114 28l26 70q22 -12 52 -12q22 1 34.5 12t12.5 28q2 13 -6.5 23t-23.5 11
q-13 0 -22 -4l-23 20l29 58q-112 34 -112 167v181h-59v154h59v124h203z" />
    <glyph glyph-name="Tcaron" unicode="&#x164;" horiz-adv-x="643" 
d="M543 928l-123 -178h-212l-123 178h167l62 -74l61 74h168zM624 700v-185h-193v-515h-218v515h-193v185h604z" />
    <glyph glyph-name="tcaron" unicode="&#x165;" horiz-adv-x="572" 
d="M572 727q0 -21 -12 -39l-122 -178l-50 23l50 124q-51 20 -51 70q0 33 27 56t65 23q39 0 66 -23t27 -56zM282 624v-124h113v-154h-113v-146q0 -46 52 -46q33 0 65 19l25 -137q-84 -44 -170 -46q-78 -1 -126.5 44.5t-48.5 130.5v181h-59v154h59v124h203z" />
    <glyph glyph-name="Tbar" unicode="&#x166;" horiz-adv-x="643" 
d="M624 515h-193v-104h71v-125h-71v-286h-218v286h-71v125h71v104h-193v185h604v-185z" />
    <glyph glyph-name="tbar" unicode="&#x167;" horiz-adv-x="453" 
d="M398 173l25 -137q-78 -43 -170 -46q-78 -1 -127 45t-49 130v30h-51v125h51v26h-58v154h58v125h204v-125h113v-154h-113v-26h106v-125h-106q3 -41 52 -41q33 0 65 19z" />
    <glyph glyph-name="Utilde" unicode="&#x168;" horiz-adv-x="766" 
d="M273 924q27 6 46 3t58 -17q67 -23 86 -22q25 1 34 33l75 -9q10 -62 -9 -103.5t-61 -52.5q-27 -6 -46 -3q-22 3 -57 16l-20 7q-42 15 -48 16q-10 2 -22 -1q-22 -6 -30 -32l-75 8q-11 62 8 104t61 53zM494 700h217v-375q0 -168 -84 -251.5t-242 -83.5t-241.5 83.5
t-83.5 251.5v375h218v-375q0 -136 108 -136t108 136v375z" />
    <glyph glyph-name="utilde" unicode="&#x169;" horiz-adv-x="626" 
d="M203 724q27 6 46.5 3t56.5 -17q67 -23 87 -22q25 2 33 33l75 -9q11 -62 -8 -103.5t-61 -52.5q-28 -6 -47 -3q-22 3 -57 16l-19 7q-42 15 -48 16q-10 2 -22 -1q-23 -6 -31 -32l-75 8q-10 62 9 104t61 53zM586 500v-500h-203v49q-79 -59 -170 -59q-77 0 -125 41.5
t-48 117.5v351h203v-289q0 -27 14.5 -42t39.5 -15q48 0 86 29v317h203z" />
    <glyph glyph-name="Umacron" unicode="&#x16a;" horiz-adv-x="766" 
d="M494 700h217v-375q0 -168 -84 -251.5t-242 -83.5t-241.5 83.5t-83.5 251.5v375h218v-375q0 -136 108 -136t108 136v375zM566 910v-125h-361v125h361z" />
    <glyph glyph-name="umacron" unicode="&#x16b;" horiz-adv-x="626" 
d="M495 710v-125h-360v125h360zM40 500h203v-289q0 -27 14.5 -42t39.5 -15q48 0 86 29v317h203v-500h-203v49q-79 -59 -170 -59q-77 0 -125 41.5t-48 117.5v351z" />
    <glyph glyph-name="Uring" unicode="&#x16e;" horiz-adv-x="766" 
d="M284 944q43 41 101 41q59 0 102 -41q42 -40 42 -99t-42 -99q-43 -41 -102 -41q-58 0 -101 41q-41 41 -41 99t41 99zM420 878q-14 14 -34 14t-34 -14q-14 -13 -14 -33t14 -34q14 -13 34 -13t34 13q14 14 14 34t-14 33zM494 700h217v-375q0 -168 -84 -251.5t-242 -83.5
t-241.5 83.5t-83.5 251.5v375h218v-375q0 -136 108 -136t108 136v375z" />
    <glyph glyph-name="uring" unicode="&#x16f;" horiz-adv-x="626" 
d="M214 744q43 41 101 41q59 0 102 -41q42 -40 42 -99t-42 -99q-43 -41 -102 -41q-58 0 -101 41q-42 40 -42 99t42 99zM349 678q-14 14 -33.5 14t-33.5 -14q-14 -13 -14 -33t14 -34q14 -13 33.5 -13t33.5 13q14 14 14 34t-14 33zM40 500h203v-289q0 -27 14.5 -42t39.5 -15
q48 0 86 29v317h203v-500h-203v49q-79 -59 -170 -59q-77 0 -125 41.5t-48 117.5v351z" />
    <glyph glyph-name="Uhungarumlaut" unicode="&#x170;" horiz-adv-x="766" 
d="M500 928l-158 -178h-174l124 178h208zM764 928l-158 -178h-173l123 178h208zM494 700h217v-375q0 -168 -84 -251.5t-242 -83.5t-241.5 83.5t-83.5 251.5v375h218v-375q0 -136 108 -136t108 136v375z" />
    <glyph glyph-name="uhungarumlaut" unicode="&#x171;" horiz-adv-x="626" 
d="M39 500h203v-289q0 -27 14.5 -42t39.5 -15q48 0 86 29v317h203v-500h-203v49q-79 -59 -170 -59q-77 0 -125 41.5t-48 117.5v351zM429 728l-158 -178h-174l123 178h209zM693 728l-158 -178h-174l124 178h208z" />
    <glyph glyph-name="Uogonek" unicode="&#x172;" horiz-adv-x="766" 
d="M494 700h217v-375q0 -214 -137 -292l-4 -7q-32 -46 -22 -72q9 -21 39 -26q14 -3 35 2l23 -91q-42 -16 -98 -16q-89 0 -116 48q-25 44 7 115l3 7q-25 -3 -55 -3q-158 0 -242 83.5t-84 251.5v375h218v-375q0 -136 108 -136t108 136v375z" />
    <glyph glyph-name="uogonek" unicode="&#x173;" horiz-adv-x="626" 
d="M40 500h203v-289q0 -27 14.5 -42t39.5 -15q48 0 86 29v317h203v-500h-95l-1 -2q-32 -45 -21 -72q8 -23 38 -26q15 -3 36 2l23 -91q-42 -16 -98 -16q-88 0 -117 48q-32 57 28 151l4 7v48q-79 -59 -170 -59q-77 0 -125 41.5t-48 117.5v351z" />
    <glyph glyph-name="Wcircumflex" unicode="&#x174;" horiz-adv-x="1156" 
d="M685 928l123 -178h-168l-61 74l-62 -74h-167l123 178h212zM1136 700l-227 -700h-222l-109 355l-109 -355h-222l-227 700h243l106 -359l104 359h211l103 -359l106 359h243z" />
    <glyph glyph-name="wcircumflex" unicode="&#x175;" horiz-adv-x="838" 
d="M524 728l123 -178h-167l-62 74l-62 -74h-167l123 178h212zM829 500l-142 -500h-217l-51 197l-50 -197h-218l-141 500h202l58 -281l72 281h155l71 -281l58 281h203z" />
    <glyph glyph-name="Ycircumflex" unicode="&#x176;" horiz-adv-x="802" 
d="M507 928l123 -178h-167l-62 74l-62 -74h-167l123 178h212zM782 700l-272 -463v-237h-218v234l-272 466h260l122 -233l123 233h257z" />
    <glyph glyph-name="ycircumflex" unicode="&#x177;" horiz-adv-x="625" 
d="M432 728l123 -178h-167l-62 74l-62 -74h-167l123 178h212zM405 500h211l-203 -544q-60 -161 -218 -161q-74 -1 -185 40l56 132q69 -27 109 -22q36 4 59 36l3 4l-211 515h214l86 -262z" />
    <glyph glyph-name="Ydieresis" unicode="&#x178;" horiz-adv-x="802" 
d="M298 765q-36 0 -59 23.5t-23 59.5q0 35 23 58q24 24 59.5 24t58.5 -24q24 -22 24 -59q0 -35 -23.5 -58.5t-59.5 -23.5zM444 906q24 24 59.5 24t58.5 -24q24 -23 24 -58.5t-24 -59.5q-23 -23 -58.5 -23t-59.5 23q-23 24 -23 59.5t23 58.5zM782 700l-272 -463v-237h-218
v234l-272 466h260l122 -233l123 233h257z" />
    <glyph glyph-name="Zacute" unicode="&#x179;" horiz-adv-x="689" 
d="M584 928l-159 -178h-173l123 178h209zM647 700v-152l-304 -356h316v-192h-629v155l291 353h-266v192h592z" />
    <glyph glyph-name="zacute" unicode="&#x17a;" horiz-adv-x="540" 
d="M520 728l-158 -178h-174l124 178h208zM506 500v-130l-194 -207h204v-163h-491v130l193 207h-173v163h461z" />
    <glyph glyph-name="Zdotaccent" unicode="&#x17b;" horiz-adv-x="689" 
d="M285 906q24 24 59 24t59 -24q24 -23 24 -58.5t-24 -59.5q-24 -23 -59 -23t-59 23q-24 24 -24 59.5t24 58.5zM647 700v-152l-304 -356h316v-192h-629v155l291 353h-266v192h592z" />
    <glyph glyph-name="zdotaccent" unicode="&#x17c;" horiz-adv-x="540" 
d="M506 500v-130l-194 -207h204v-163h-491v130l193 207h-173v163h461zM221 706q24 24 59.5 24t58.5 -24q24 -23 24 -58.5t-24 -59.5q-23 -23 -58.5 -23t-59.5 23q-23 24 -23 59.5t23 58.5z" />
    <glyph glyph-name="Zcaron" unicode="&#x17d;" horiz-adv-x="689" 
d="M573 928l-124 -178h-211l-124 178h168l61 -74l62 74h168zM647 700v-152l-304 -356h316v-192h-629v155l291 353h-266v192h592z" />
    <glyph glyph-name="zcaron" unicode="&#x17e;" horiz-adv-x="540" 
d="M509 728l-123 -178h-212l-123 178h167l62 -74l62 74h167zM506 500v-130l-194 -207h204v-163h-491v130l193 207h-173v163h461z" />
    <glyph glyph-name="florin" unicode="&#x192;" horiz-adv-x="408" 
d="M265 710q72 0 153 -25l-25 -124q-40 14 -65 13q-47 0 -47 -43v-87h113v-153h-113v-324q0 -88 -51 -130t-128 -42q-44 0 -83 10v117q27 0 42.5 15.5t15.5 42.5v311h-58v153h58v93q0 93 52 133t136 40z" />
    <glyph glyph-name="Ohorn" unicode="&#x1a0;" horiz-adv-x="843" 
d="M684 740h198v-38q0 -62 -39 -108q-38 -47 -97 -62q52 -83 52 -182q0 -98 -50.5 -181t-137.5 -131q-86 -48 -189 -48q-102 0 -189 48t-137 131t-50 181q-3 146 110.5 254.5t266.5 105.5q133 0 237 -80q25 16 25 45v65zM272 350q0 -65 41 -111q42 -45 109 -45q43 0 78 21
t53 56q19 36 19 79t-19 78q-18 36 -53 57t-79 21q-66 0 -107.5 -45t-41.5 -111z" />
    <glyph glyph-name="ohorn" unicode="&#x1a1;" horiz-adv-x="636" 
d="M498 553h198v-38q0 -54 -31.5 -98.5t-81.5 -63.5q23 -51 23 -103q0 -108 -85 -184q-83 -76 -203 -76q-119 0 -204 76q-84 76 -84 184t84 184q85 76 204 76q94 0 171 -51q9 13 9 29v65zM317 338q-36 2 -62 -26t-26 -62t26 -62q28 -26 62 -26t61.5 26t25.5 62
q0 37 -25.5 62.5t-61.5 25.5z" />
    <glyph glyph-name="Uhorn" unicode="&#x1af;" horiz-adv-x="766" 
d="M766 740h177v-38q0 -167 -232 -174v-203q0 -168 -84 -251.5t-242 -83.5t-241.5 83.5t-83.5 251.5v375h218v-375q0 -136 108 -136t108 136v375h217v-79q23 0 39 16t16 38v65z" />
    <glyph glyph-name="uhorn" unicode="&#x1b0;" horiz-adv-x="626" 
d="M631 553h156v-38q0 -85 -47 -126.5t-155 -47.5v-341h-203v49q-79 -59 -170 -59q-77 0 -125 41.5t-48 117.5v351h203v-289q0 -27 14.5 -42t39.5 -15q48 0 86 29v317h203v-66q20 4 33 19t13 35v65z" />
    <glyph glyph-name="Acaron" unicode="&#x1cd;" horiz-adv-x="862" 
d="M659 928l-124 -178h-211l-124 178h168l61 -74l62 74h168zM572 700l270 -700h-260l-36 107h-231l-35 -107h-260l267 700h285zM430 457l-58 -177h117z" />
    <glyph glyph-name="acaron" unicode="&#x1ce;" horiz-adv-x="585" 
d="M551 728l-123 -178h-212l-123 178h167l62 -74l61 74h168zM326 510q98 0 158 -45t60 -142v-323h-203v58q-65 -68 -154 -68q-69 0 -113.5 43t-44.5 112t47.5 107.5t129.5 38.5h135v12q0 51 -71 51q-64 -1 -136 -39l-57 129q123 64 249 66zM341 127v88h-55q-56 0 -56 -50
q0 -25 14 -40t36 -15q35 0 61 17z" />
    <glyph glyph-name="Icaron" unicode="&#x1cf;" horiz-adv-x="337" 
d="M406 928l-124 -178h-211l-124 178h168l61 -74l62 74h168zM279 700v-700h-218v700h218z" />
    <glyph glyph-name="icaron" unicode="&#x1d0;" horiz-adv-x="303" 
d="M387 728l-124 -178h-211l-124 178h168l62 -74l61 74h168zM259 500v-500h-203v500h203z" />
    <glyph glyph-name="Ocaron" unicode="&#x1d1;" horiz-adv-x="843" 
d="M650 928l-123 -178h-212l-123 178h167l62 -74l61 74h168zM232 662q87 48 189 48q103 0 189 -48q87 -48 137 -131q51 -83 51 -181t-50.5 -181t-137.5 -131q-86 -48 -189 -48q-102 0 -188.5 47.5t-137.5 131.5q-50 83 -50 181t50 181t137 131zM272 350q0 -65 41 -111
q42 -45 109 -45q43 0 78 21t53 56q19 36 19 79t-19 78q-18 36 -53 57t-79 21q-66 0 -107.5 -45t-41.5 -111z" />
    <glyph glyph-name="ocaron" unicode="&#x1d2;" horiz-adv-x="636" 
d="M547 728l-124 -178h-211l-124 178h168l61 -74l62 74h168zM318 510q117 2 204 -76.5t84 -183.5q0 -108 -85 -184q-83 -76 -203 -76q-119 0 -204 76q-84 76 -84 184t84 184q85 76 204 76zM317 338q-36 2 -62 -26t-26 -62t26 -62q28 -26 62 -26t61.5 26t25.5 62
q0 37 -25.5 62.5t-61.5 25.5z" />
    <glyph glyph-name="Ucaron" unicode="&#x1d3;" horiz-adv-x="766" 
d="M494 700h217v-375q0 -168 -84 -251.5t-242 -83.5t-241.5 83.5t-83.5 251.5v375h218v-375q0 -136 108 -136t108 136v375zM614 928l-123 -178h-212l-123 178h168l61 -74l62 74h167z" />
    <glyph glyph-name="ucaron" unicode="&#x1d4;" horiz-adv-x="626" 
d="M544 728l-123 -178h-212l-123 178h167l62 -74l61 74h168zM40 500h203v-289q0 -27 14.5 -42t39.5 -15q48 0 86 29v317h203v-500h-203v49q-79 -59 -170 -59q-77 0 -125 41.5t-48 117.5v351z" />
    <glyph glyph-name="Udieresismacron" unicode="&#x1d5;" horiz-adv-x="766" 
d="M566 1074v-125h-361v125h361zM283 750q-35 0 -59 23.5t-24 59.5q-2 26 13.5 46.5t38 29.5t48 5t42.5 -23q24 -22 24 -59q0 -35 -24 -58.5t-59 -23.5zM429 891q24 24 59.5 24t58.5 -24q24 -23 24 -58.5t-24 -59.5q-23 -23 -58.5 -23t-59.5 23q-23 24 -23 59.5t23 58.5z
M494 700h217v-375q0 -168 -84 -251.5t-242 -83.5t-241.5 83.5t-83.5 251.5v375h218v-375q0 -136 108 -136t108 136v375z" />
    <glyph glyph-name="udieresismacron" unicode="&#x1d6;" horiz-adv-x="626" 
d="M494 875v-125h-360v125h360zM212 565q-35 0 -59 23.5t-24 59.5q0 35 23 58q24 24 59.5 24t58.5 -24q24 -22 24 -59q0 -35 -23.5 -58.5t-58.5 -23.5zM358 706q24 24 59.5 24t58.5 -24q24 -23 24 -58.5t-24 -59.5q-23 -23 -58.5 -23t-59.5 23q-23 24 -23 59.5t23 58.5z
M39 500h203v-289q0 -27 14.5 -42t39.5 -15q48 0 86 29v317h203v-500h-203v49q-79 -59 -170 -59q-77 0 -125 41.5t-48 117.5v351z" />
    <glyph glyph-name="Udieresisacute" unicode="&#x1d7;" horiz-adv-x="766" 
d="M625 1127l-158 -178h-174l124 178h208zM283 750q-35 0 -59 23.5t-24 59.5q-2 26 13.5 46.5t38 29.5t48 5t42.5 -23q24 -22 24 -59q0 -35 -24 -58.5t-59 -23.5zM429 891q24 24 59.5 24t58.5 -24q24 -23 24 -58.5t-24 -59.5q-23 -23 -58.5 -23t-59.5 23q-23 24 -23 59.5
t23 58.5zM494 700h217v-375q0 -168 -84 -251.5t-242 -83.5t-241.5 83.5t-83.5 251.5v375h218v-375q0 -136 108 -136t108 136v375z" />
    <glyph glyph-name="udieresisacute" unicode="&#x1d8;" horiz-adv-x="626" 
d="M554 928l-158 -178h-174l123 178h209zM152 706q24 24 59.5 24t58.5 -24q24 -23 24 -58.5t-24 -59.5q-23 -23 -58.5 -23t-59.5 23q-23 24 -23 59.5t23 58.5zM358 706q24 24 59.5 24t58.5 -24q24 -23 24 -58.5t-24 -59.5q-23 -23 -58.5 -23t-59.5 23q-23 24 -23 59.5
t23 58.5zM39 500h203v-289q0 -27 14.5 -42t39.5 -15q48 0 86 29v317h203v-500h-203v49q-79 -59 -170 -59q-77 0 -125 41.5t-48 117.5v351z" />
    <glyph glyph-name="Udieresiscaron" unicode="&#x1d9;" horiz-adv-x="766" 
d="M614 1127l-123 -178h-212l-123 178h168l61 -74l62 74h167zM283 750q-35 0 -59 23.5t-24 59.5q-2 26 13.5 46.5t38 29.5t48 5t42.5 -23q24 -22 24 -59q0 -35 -24 -58.5t-59 -23.5zM429 891q24 24 59.5 24t58.5 -24q24 -23 24 -58.5t-24 -59.5q-23 -23 -58.5 -23t-59.5 23
q-23 24 -23 59.5t23 58.5zM494 700h217v-375q0 -168 -84 -251.5t-242 -83.5t-241.5 83.5t-83.5 251.5v375h218v-375q0 -136 108 -136t108 136v375z" />
    <glyph glyph-name="udieresiscaron" unicode="&#x1da;" horiz-adv-x="626" 
d="M544 928l-123 -178h-212l-123 178h167l62 -74l61 74h168zM213 565q-35 0 -59 23.5t-24 59.5q0 35 23 58q24 24 59.5 24t58.5 -24q24 -22 24 -59q0 -35 -23.5 -58.5t-58.5 -23.5zM359 706q24 24 59.5 24t58.5 -24q24 -23 24 -58.5t-24 -59.5q-23 -23 -58.5 -23t-59.5 23
q-23 24 -23 59.5t23 58.5zM40 500h203v-289q0 -27 14.5 -42t39.5 -15q48 0 86 29v317h203v-500h-203v49q-79 -59 -170 -59q-77 0 -125 41.5t-48 117.5v351z" />
    <glyph glyph-name="Udieresisgrave" unicode="&#x1db;" horiz-adv-x="766" 
d="M350 1127l124 -178h-174l-158 178h208zM283 750q-35 0 -59 23.5t-24 59.5q-2 26 13.5 46.5t38 29.5t48 5t42.5 -23q24 -22 24 -59q0 -35 -24 -58.5t-59 -23.5zM429 891q24 24 59.5 24t58.5 -24q24 -23 24 -58.5t-24 -59.5q-23 -23 -58.5 -23t-59.5 23q-23 24 -23 59.5
t23 58.5zM494 700h217v-375q0 -168 -84 -251.5t-242 -83.5t-241.5 83.5t-83.5 251.5v375h218v-375q0 -136 108 -136t108 136v375z" />
    <glyph glyph-name="udieresisgrave" unicode="&#x1dc;" horiz-adv-x="626" 
d="M280 928l124 -178h-174l-158 178h208zM213 565q-35 0 -59 23.5t-24 59.5q0 35 23 58q24 24 59.5 24t58.5 -24q24 -22 24 -59q0 -35 -23.5 -58.5t-58.5 -23.5zM359 706q24 24 59.5 24t58.5 -24q24 -23 24 -58.5t-24 -59.5q-23 -23 -58.5 -23t-59.5 23q-23 24 -23 59.5
t23 58.5zM40 500h203v-289q0 -27 14.5 -42t39.5 -15q48 0 86 29v317h203v-500h-203v49q-79 -59 -170 -59q-77 0 -125 41.5t-48 117.5v351z" />
    <glyph glyph-name="Adieresismacron" unicode="&#x1de;" horiz-adv-x="862" 
d="M572 700l270 -700h-260l-36 107h-231l-35 -107h-260l267 700h285zM430 457l-58 -177h117zM268 891q24 24 59.5 24t58.5 -24q24 -23 24 -58.5t-24 -59.5q-23 -23 -58.5 -23t-59.5 23q-23 24 -23 59.5t23 58.5zM473 891q24 24 59.5 24t58.5 -24q24 -23 24 -58.5t-24 -59.5
q-23 -23 -58.5 -23t-59.5 23q-23 24 -23 59.5t23 58.5zM610 1074v-125h-361v125h361z" />
    <glyph glyph-name="adieresismacron" unicode="&#x1df;" horiz-adv-x="585" 
d="M503 875v-125h-360v125h360zM161 706q24 24 59.5 24t58.5 -24q24 -23 24 -58.5t-24 -59.5q-23 -23 -58.5 -23t-59.5 23q-23 24 -23 59.5t23 58.5zM367 706q24 24 59.5 24t58.5 -24q24 -23 24 -58.5t-24 -59.5q-23 -23 -58.5 -23t-59.5 23q-23 24 -23 59.5t23 58.5z
M327 510q98 0 158 -45t60 -142v-323h-203v58q-65 -68 -154 -68q-70 0 -114 43t-44 112t47.5 107.5t129.5 38.5h135v12q0 51 -71 51q-64 -1 -136 -39l-57 129q123 64 249 66zM342 127v88h-54q-57 0 -57 -50q0 -25 14 -40t36 -15q35 0 61 17z" />
    <glyph glyph-name="Gcaron" unicode="&#x1e6;" horiz-adv-x="792" 
d="M632 928l-123 -178h-212l-123 178h167l62 -74l61 74h168zM435 710q162 -1 281 -104l-142 -148q-59 52 -139 52q-69 0 -116 -43q-47 -44 -47 -117q0 -65 41 -111q42 -45 109 -45q59 0 109 24v41h-96v154h303v-317q-139 -106 -316 -106q-100 -2 -188 47t-139.5 133
t-49.5 180q0 83 32.5 153.5t88.5 115.5q113 93 269 91z" />
    <glyph glyph-name="gcaron" unicode="&#x1e7;" horiz-adv-x="649" 
d="M571 728l-124 -178h-211l-124 178h168l61 -74l62 74h168zM245 510q86 0 151 -68v58h203v-480q0 -118 -73.5 -173t-192.5 -55q-149 2 -292 74l57 131q104 -51 192 -52q49 -1 77.5 18t28.5 57v39q-59 -59 -151 -59q-99 0 -155 69q-55 70 -55 181q0 112 56 186t154 74z
M321 338q-36 0 -61 -25.5t-25 -62.5q0 -36 25 -62t61 -26q50 0 75 46v84q-25 46 -75 46z" />
    <glyph glyph-name="Oslashacute" unicode="&#x1fe;" horiz-adv-x="843" 
d="M637 928l-158 -178h-174l123 178h209zM522 750h179l-53 -112q71 -52 110.5 -127t39.5 -161q2 -96 -49.5 -180t-139.5 -133t-188 -47q-37 0 -77 8l-23 -48h-179l53 112q-71 52 -110.5 127t-39.5 161q-3 146 110.5 254.5t266.5 105.5q37 0 77 -8zM271 350q0 -46 22 -83
l113 238q-60 -6 -97.5 -49.5t-37.5 -105.5zM550 433l-113 -238q60 6 97 49t37 106q0 46 -21 83z" />
    <glyph glyph-name="oslashacute" unicode="&#x1ff;" horiz-adv-x="636" 
d="M396 550h128l-42 -87q56 -36 89.5 -92.5t33.5 -120.5q0 -108 -85 -184q-83 -76 -203 -76q-26 0 -58 5l-21 -45h-127l41 87q-56 36 -89.5 92.5t-33.5 120.5q0 108 84 184q85 76 204 76q26 0 58 -5zM228 250q0 -18 8 -36l58 121q-29 -7 -47.5 -30.5t-18.5 -54.5zM397 283
l-57 -117q28 8 45.5 31t17.5 53q0 16 -6 33zM518 728l-158 -178h-174l123 178h209z" />
    <glyph glyph-name="Scommaaccent" unicode="&#x218;" horiz-adv-x="710" 
d="M360 710q175 0 308 -79l-91 -168q-128 64 -241 64q-40 0 -40 -26q0 -9 17 -17q14 -6 90 -25q50 -13 76 -22q85 -26 123 -56q79 -55 79 -152q0 -114 -78.5 -176.5t-220.5 -62.5q-201 0 -352 100l97 162q137 -76 280 -76q44 0 44 25q0 18 -18 27t-92 25q-67 17 -110 30
q-41 13 -89 39q-82 51 -82 152q0 116 83 176t217 60zM481 -127q0 -21 -12 -39l-122 -178l-50 23l50 123q-23 10 -37 29t-14 42q0 33 27 56t65 23q39 0 66 -23t27 -56z" />
    <glyph glyph-name="scommaaccent" unicode="&#x219;" horiz-adv-x="520" 
d="M257 510q127 0 223 -57l-66 -123q-85 46 -158 46q-26 0 -26 -19q0 -7 10 -12t48 -14q87 -22 143 -57q58 -36 58 -113q0 -82 -56.5 -126.5t-158.5 -44.5q-146 0 -255 72l70 117q89 -55 183 -55q29 0 29 18q0 11 -8 14q-7 4 -50 15l-65 19q-71 25 -99 52q-38 38 -38 98
q0 83 60.5 126.5t155.5 43.5zM356 -127q0 -21 -12 -39l-122 -178l-50 23l50 123q-23 10 -37 29t-14 42q0 33 27 56t65 23q39 0 66 -23t27 -56z" />
    <glyph glyph-name="uni021A" unicode="&#x21a;" horiz-adv-x="643" 
d="M624 700v-185h-193v-515h-218v515h-193v185h604zM407 -127q0 -21 -12 -39l-123 -178l-49 23l50 123q-51 24 -51 71q0 33 27 56t65 23q39 0 66 -23t27 -56z" />
    <glyph glyph-name="uni021B" unicode="&#x21b;" horiz-adv-x="453" 
d="M282 624v-124h113v-154h-113v-146q0 -46 52 -46q33 0 65 19l25 -137q-84 -44 -170 -46q-78 -1 -126.5 44.5t-48.5 130.5v181h-59v154h59v124h203zM327 -127q0 -21 -12 -39l-122 -178l-50 23l50 123q-23 10 -37 29t-14 42q0 33 27 56t65 23q39 0 66 -23t27 -56z" />
    <glyph glyph-name="uni0228" unicode="&#x228;" horiz-adv-x="682" 
d="M647 700v-195h-369v-58h344v-185h-344v-67h374v-195h-212l-21 -41q16 -2 29 -6q28 -10 45.5 -34t17.5 -54q0 -49 -36 -75t-94 -26q-64 0 -114 28l25 70q22 -12 53 -12q21 1 33.5 12.5t13.5 27.5q0 13 -8.5 23t-22.5 11q-13 0 -22 -4l-22 20l29 60h-286v700h587z" />
    <glyph glyph-name="uni0229" unicode="&#x229;" 
d="M294 510q121 0 191 -75q72 -73 72 -185v-48h-331q2 -32 27.5 -49t63.5 -17q58 0 95 34l105 -94q-64 -61 -151 -79q-17 -4 -28 -5l-16 -33q14 -1 28 -6q29 -10 46 -33.5t17 -54.5q0 -49 -36 -75t-94 -26q-62 0 -114 28l25 70q22 -12 53 -12q21 1 34 12.5t13 27.5
q1 13 -7.5 23t-22.5 11q-13 0 -22 -4l-23 20l27 55q-93 18 -155 89q-61 71 -61 166q0 107 77 184q77 76 187 76zM298 367q-29 0 -49.5 -21t-20.5 -50h140q0 31 -19 51t-51 20z" />
    <glyph glyph-name="uni022A" unicode="&#x22a;" horiz-adv-x="843" 
d="M601 1082v-125h-360v125h360zM319 930q26 2 46.5 -13t29.5 -37.5t5 -48.5t-23 -43q-23 -23 -59 -23q-35 0 -58.5 23.5t-23.5 59.5q0 35 24 58.5t59 23.5zM465 906q24 24 59.5 24t58.5 -24q24 -23 24 -58.5t-24 -59.5q-23 -23 -58.5 -23t-59.5 23q-23 24 -23 59.5t23 58.5
zM232 662q87 48 189 48q103 0 189 -48q87 -48 137 -131q51 -83 51 -181t-50.5 -181t-137.5 -131q-86 -48 -189 -48q-102 0 -188.5 47.5t-137.5 131.5q-50 83 -50 181t50 181t137 131zM272 350q0 -65 41 -111q42 -45 109 -45q43 0 78 21t53 56q19 36 19 79t-19 78
q-18 36 -53 57t-79 21q-66 0 -107.5 -45t-41.5 -111z" />
    <glyph glyph-name="uni022B" unicode="&#x22b;" horiz-adv-x="636" 
d="M498 875v-125h-361v125h361zM156 706q24 24 59.5 24t58.5 -24q24 -23 24 -58.5t-24 -59.5q-23 -23 -58.5 -23t-59.5 23q-23 24 -23 59.5t23 58.5zM361 706q24 24 59.5 24t58.5 -24q24 -23 24 -58.5t-24 -59.5q-23 -23 -58.5 -23t-59.5 23q-23 24 -23 59.5t23 58.5z
M318 510q117 2 204 -76.5t84 -183.5q0 -108 -85 -184q-83 -76 -203 -76q-119 0 -204 76q-84 76 -84 184t84 184q85 76 204 76zM317 338q-36 2 -62 -26t-26 -62t26 -62q28 -26 62 -26t61.5 26t25.5 62q0 37 -25.5 62.5t-61.5 25.5z" />
    <glyph glyph-name="circumflex" unicode="&#x2c6;" horiz-adv-x="518" 
d="M365 728l123 -178h-167l-62 74l-61 -74h-168l123 178h212z" />
    <glyph glyph-name="caron" unicode="&#x2c7;" horiz-adv-x="518" 
d="M488 728l-123 -178h-212l-123 178h168l61 -74l62 74h167z" />
    <glyph glyph-name="breve" unicode="&#x2d8;" horiz-adv-x="460" 
d="M297 728h133q0 -75 -59 -125q-58 -49 -142 -49t-142 49.5t-58 124.5h133q0 -24 19.5 -38.5t47.5 -14.5q29 0 48.5 14t19.5 39z" />
    <glyph glyph-name="dotaccent" unicode="&#x2d9;" horiz-adv-x="225" 
d="M53 706q24 24 59.5 24t58.5 -24q24 -23 24 -58.5t-24 -59.5q-23 -23 -58.5 -23t-59.5 23q-23 24 -23 59.5t23 58.5z" />
    <glyph glyph-name="ring" unicode="&#x2da;" horiz-adv-x="346" 
d="M173 785q59 0 101 -41.5t42 -98.5q0 -59 -42 -99q-43 -41 -101 -41t-101 41q-42 40 -42 99t42 99q43 41 101 41zM207 678q-14 14 -34 14t-34 -14q-14 -13 -14 -33t14 -34q14 -13 34 -13t34 13q14 14 14 34t-14 33z" />
    <glyph glyph-name="ogonek" unicode="&#x2db;" horiz-adv-x="285" 
d="M107 5h109l-4 -7q-32 -46 -22 -72q8 -23 39 -26q14 -3 35 2l23 -91q-42 -16 -98 -16q-89 0 -116 48q-33 57 27 151z" />
    <glyph glyph-name="tilde" unicode="&#x2dc;" horiz-adv-x="435" 
d="M113 724q27 6 46 3t58 -17q67 -23 86 -22q25 1 34 33l74 -9q11 -62 -8 -103.5t-61 -52.5q-27 -6 -47 -3t-56 16l-20 7q-42 15 -48 16q-10 2 -22 -1q-23 -6 -31 -32l-74 8q-11 62 8 104t61 53z" />
    <glyph glyph-name="hungarumlaut" unicode="&#x2dd;" horiz-adv-x="656" 
d="M361 728l-158 -178h-174l123 178h209zM625 728l-158 -178h-174l124 178h208z" />
    <glyph glyph-name="dotbelowcomb" unicode="&#x323;" horiz-adv-x="0" 
d="M53 -109q24 24 59.5 24t58.5 -23q24 -24 24 -59.5t-24 -58.5q-23 -24 -58.5 -24t-59.5 24q-23 23 -23 58.5t23 58.5z" />
    <glyph glyph-name="uni0326" unicode="&#x326;" horiz-adv-x="0" 
d="M204 -127q0 -22 -13 -39l-122 -178l-49 23l50 123q-51 24 -51 71q0 33 27 56t65 23t65.5 -23t27.5 -56z" />
    <glyph glyph-name="uni032D" unicode="&#x32d;" horiz-adv-x="0" 
d="M365 -72l123 -178h-167l-62 74l-61 -74h-168l123 178h212z" />
    <glyph glyph-name="uni0331" unicode="&#x331;" horiz-adv-x="0" 
d="M391 -80v-125h-361v125h361z" />
    <glyph glyph-name="increment" unicode="&#x394;" horiz-adv-x="600" 
 />
    <glyph glyph-name="Omega" unicode="&#x3a9;" horiz-adv-x="600" 
 />
    <glyph glyph-name="mu" unicode="&#x3bc;" horiz-adv-x="600" 
 />
    <glyph glyph-name="pi" unicode="&#x3c0;" horiz-adv-x="600" 
 />
    <glyph glyph-name="Bdotbelow" unicode="&#x1e04;" horiz-adv-x="737" 
d="M60 0v700h392q110 0 169.5 -46t59.5 -133q0 -111 -97 -154q61 -21 92 -67.5t31 -106.5q0 -83 -57 -138t-183 -55h-407zM278 523v-98h109q67 0 67 49t-67 49h-109zM278 281v-104h134q44 -2 62 25t0 54.5t-62 24.5h-134zM286 -108q24 23 59 23t59 -23q24 -24 24 -59.5
t-24 -58.5q-24 -24 -59 -24t-59 24q-24 23 -24 58.5t24 59.5z" />
    <glyph glyph-name="bdotbelow" unicode="&#x1e05;" horiz-adv-x="639" 
d="M45 700h203v-258q65 68 152 68q97 0 153 -74t56 -186t-56 -186t-153 -74q-87 0 -152 68v-58h-203v700zM324 338q-52 0 -76 -47v-82q24 -47 76 -47q35 0 60 26t25 62t-25 62t-60 26zM260 -108q24 23 59 23t59 -23q24 -24 24 -59.5t-24 -58.5q-24 -24 -59 -24t-59 24
q-24 23 -24 58.5t24 59.5z" />
    <glyph glyph-name="Ddotbelow" unicode="&#x1e0c;" horiz-adv-x="789" 
d="M60 0v700h308q154 3 266.5 -101t109.5 -250q3 -145 -109.5 -248.5t-266.5 -100.5h-308zM360 506h-82v-312h82q68 0 114 45q48 45 48 111t-48 111q-46 45 -114 45zM286 -109q24 24 59.5 24t58.5 -24q24 -23 24 -58.5t-24 -59.5q-23 -23 -58.5 -23t-59.5 23
q-23 24 -23 59.5t23 58.5z" />
    <glyph glyph-name="ddotbelow" unicode="&#x1e0d;" horiz-adv-x="639" 
d="M390 700h203v-700h-203v58q-65 -68 -151 -68q-98 0 -154 74t-56 186t56 186t154 74q86 0 151 -68v258zM315 338q-36 0 -61 -26t-25 -62t25 -62t61 -26q51 0 75 47v82q-24 47 -75 47zM267 -109q24 24 59.5 24t58.5 -23q24 -24 24 -59.5t-24 -58.5q-23 -24 -58.5 -24
t-59.5 24q-23 23 -23 58.5t23 58.5z" />
    <glyph glyph-name="Dlinebelow" unicode="&#x1e0e;" horiz-adv-x="789" 
d="M60 0v700h308q154 3 266.5 -101t109.5 -250q3 -145 -109.5 -248.5t-266.5 -100.5h-308zM360 506h-82v-312h82q68 0 114 45q48 45 48 111t-48 111q-46 45 -114 45zM526 -80v-125h-361v125h361z" />
    <glyph glyph-name="dlinebelow" unicode="&#x1e0f;" horiz-adv-x="639" 
d="M390 700h203v-700h-203v58q-65 -68 -151 -68q-98 0 -154 74t-56 186t56 186t154 74q86 0 151 -68v258zM315 338q-36 0 -61 -26t-25 -62t25 -62t61 -26q51 0 75 47v82q-24 47 -75 47zM507 -80v-125h-361v125h361z" />
    <glyph glyph-name="Dcircumflexbelow" unicode="&#x1e12;" horiz-adv-x="789" 
d="M60 0v700h308q154 3 266.5 -101t109.5 -250q3 -145 -109.5 -248.5t-266.5 -100.5h-308zM360 506h-82v-312h82q68 0 114 45q48 45 48 111t-48 111q-46 45 -114 45zM451 -72l123 -178h-167l-62 74l-61 -74h-168l124 178h211z" />
    <glyph glyph-name="dcircumflexbelow" unicode="&#x1e13;" horiz-adv-x="639" 
d="M390 700h203v-700h-203v58q-65 -68 -151 -68q-98 0 -154 74t-56 186t56 186t154 74q86 0 151 -68v258zM315 338q-36 0 -61 -26t-25 -62t25 -62t61 -26q51 0 75 47v82q-24 47 -75 47zM432 -72l124 -178h-168l-62 74l-61 -74h-168l124 178h211z" />
    <glyph glyph-name="Hdotbelow" unicode="&#x1e24;" horiz-adv-x="795" 
d="M735 700v-700h-217v254h-240v-254h-218v700h218v-251h240v251h217zM353 -109q24 24 59.5 24t58.5 -24q24 -23 24 -58.5t-24 -59.5q-23 -23 -58.5 -23t-59.5 23q-23 24 -23 59.5t23 58.5z" />
    <glyph glyph-name="hdotbelow" unicode="&#x1e25;" horiz-adv-x="636" 
d="M50 700h203v-249q79 59 170 59q78 0 125.5 -41.5t47.5 -117.5v-351h-203v289q0 27 -14.5 42t-38.5 15q-47 0 -87 -29v-317h-203v700zM287 -109q24 24 59.5 24t58.5 -23q24 -24 24 -59.5t-24 -58.5q-23 -24 -58.5 -24t-59.5 24q-23 23 -23 58.5t23 58.5z" />
    <glyph glyph-name="Idieresisacute" unicode="&#x1e2e;" horiz-adv-x="337" 
d="M416 1127l-159 -178h-173l123 178h209zM14 891q24 24 59.5 24t58.5 -24q24 -23 24 -58.5t-24 -59.5q-23 -23 -58.5 -23t-59.5 23q-23 24 -23 59.5t23 58.5zM219 891q24 24 59.5 24t58.5 -24q24 -23 24 -58.5t-24 -59.5q-23 -23 -58.5 -23t-59.5 23q-23 24 -23 59.5
t23 58.5zM278 700v-700h-218v700h218z" />
    <glyph glyph-name="idieresisacute" unicode="&#x1e2f;" horiz-adv-x="303" 
d="M397 928l-159 -178h-173l123 178h209zM-4 706q23 24 58.5 24t58.5 -24q24 -23 24 -58.5t-24 -59.5q-23 -23 -58.5 -23t-58.5 23q-24 24 -24 59.5t24 58.5zM201 706q24 24 59 24t59 -24q24 -23 24 -58.5t-24 -59.5q-24 -23 -59 -23t-59 23q-24 24 -24 59.5t24 58.5z
M258 500v-500h-203v500h203z" />
    <glyph glyph-name="Ldotbelow" unicode="&#x1e36;" horiz-adv-x="626" 
d="M278 700v-505h328v-195h-546v700h218zM259 -109q24 24 59.5 24t58.5 -24q24 -23 24 -58.5t-24 -59.5q-23 -23 -58.5 -23t-59.5 23q-23 24 -23 59.5t23 58.5z" />
    <glyph glyph-name="ldotbelow" unicode="&#x1e37;" horiz-adv-x="298" 
d="M98 -109q24 24 59.5 24t58.5 -23q24 -24 24 -59.5t-24 -58.5q-23 -24 -58.5 -24t-59.5 24q-23 23 -23 58.5t23 58.5zM258 700v-700h-203v700h203z" />
    <glyph glyph-name="Lcircumflexbelow" unicode="&#x1e3c;" horiz-adv-x="626" 
d="M278 700v-505h328v-195h-546v700h218zM424 -72l123 -178h-167l-62 74l-61 -74h-168l124 178h211z" />
    <glyph glyph-name="lcircumflexbelow" unicode="&#x1e3d;" horiz-adv-x="298" 
d="M258 700v-700h-203v700h203zM264 -72l123 -178h-168l-61 74l-62 -74h-167l123 178h212z" />
    <glyph glyph-name="Macute" unicode="&#x1e3e;" horiz-adv-x="983" 
d="M729 928l-159 -178h-173l123 178h209zM923 700v-700h-214v409l-184 -311h-72l-184 311v-409h-214v700h284l150 -246l150 246h284z" />
    <glyph glyph-name="macute" unicode="&#x1e3f;" horiz-adv-x="950" 
d="M746 728l-159 -178h-173l123 178h209zM416 510q98 0 140 -68q51 41 90.5 54.5t90.5 13.5q78 0 126 -41.5t48 -117.5v-351h-204v289q0 27 -14.5 42t-38.5 15q-40 0 -75 -21v-54v-271h-203v289q0 27 -14.5 42t-38.5 15q-41 0 -75 -21v-325h-203v500h203v-56q75 66 168 66z
" />
    <glyph glyph-name="Ndotaccent" unicode="&#x1e44;" horiz-adv-x="785" 
d="M730 700v-700h-223l-238 341v-341h-214v700h224l238 -341v341h213zM355 906q24 24 59.5 24t58.5 -24q24 -23 24 -58.5t-24 -59.5q-23 -23 -58.5 -23t-59.5 23q-23 24 -23 59.5t23 58.5z" />
    <glyph glyph-name="ndotaccent" unicode="&#x1e45;" horiz-adv-x="631" 
d="M257 706q24 24 59 24t59 -24q24 -23 24 -58.5t-24 -59.5q-24 -23 -59 -23t-59 23q-24 24 -24 59.5t24 58.5zM418 510q78 0 125.5 -41.5t47.5 -117.5v-351h-203v289q0 27 -14.5 42t-38.5 15q-47 0 -87 -29v-317h-203v500h203v-49q79 59 170 59z" />
    <glyph glyph-name="Ndotbelow" unicode="&#x1e46;" horiz-adv-x="785" 
d="M730 700v-700h-223l-238 341v-341h-214v700h224l238 -341v341h213zM355 -109q24 24 59.5 24t58.5 -23q24 -24 24 -59.5t-24 -58.5q-23 -24 -58.5 -24t-59.5 24q-23 23 -23 58.5t23 58.5z" />
    <glyph glyph-name="ndotbelow" unicode="&#x1e47;" horiz-adv-x="631" 
d="M418 510q78 0 125.5 -41.5t47.5 -117.5v-351h-203v289q0 27 -14.5 42t-38.5 15q-47 0 -87 -29v-317h-203v500h203v-49q79 59 170 59zM257 -108q24 23 59 23t59 -23q24 -24 24 -59.5t-24 -58.5q-24 -24 -59 -24t-59 24q-24 23 -24 58.5t24 59.5z" />
    <glyph glyph-name="Ncircumflexbelow" unicode="&#x1e4a;" horiz-adv-x="785" 
d="M730 700v-700h-223l-238 341v-341h-214v700h224l238 -341v341h213zM520 -72l124 -178h-168l-61 74l-62 -74h-167l123 178h211z" />
    <glyph glyph-name="ncircumflexbelow" unicode="&#x1e4b;" horiz-adv-x="631" 
d="M418 510q78 0 125.5 -41.5t47.5 -117.5v-351h-203v289q0 27 -14.5 42t-38.5 15q-47 0 -87 -29v-317h-203v500h203v-49q79 59 170 59zM422 -72l123 -178h-167l-62 74l-62 -74h-167l123 178h212z" />
    <glyph glyph-name="Otildeacute" unicode="&#x1e4c;" horiz-adv-x="843" 
d="M661 1107l-158 -179h-174l123 179h209zM309 904q27 6 46.5 3t56.5 -17q67 -23 87 -22q25 2 33 33l75 -9q11 -62 -8 -103.5t-61 -52.5q-28 -6 -47 -3q-22 3 -57 16l-19 7q-42 15 -48 16q-10 2 -22 -1q-23 -6 -31 -32l-75 8q-10 62 9 104t61 53zM232 662q87 48 189 48
q103 0 189 -48q87 -48 137 -131q51 -83 51 -181t-50.5 -181t-137.5 -131q-86 -48 -189 -48q-102 0 -188.5 47.5t-137.5 131.5q-50 83 -50 181t50 181t137 131zM272 350q0 -65 41 -111q42 -45 108 -45q67 0 109 45t42 111t-42.5 111t-108.5 45t-107.5 -45t-41.5 -111z" />
    <glyph glyph-name="otildeacute" unicode="&#x1e4d;" horiz-adv-x="636" 
d="M558 928l-159 -178h-173l123 178h209zM205 724q27 6 46 3t58 -17q67 -23 87 -22q24 2 33 33l75 -9q10 -62 -9 -103.5t-61 -52.5q-27 -6 -46 -3q-22 3 -57 16l-19 7l-48 16q-11 2 -23 -1q-22 -6 -30 -32l-75 8q-11 61 8 103.5t61 53.5zM114 434q85 76 204 76
q120 0 203 -76q85 -76 85 -184t-85 -184q-83 -76 -203 -76q-119 0 -204 76q-84 76 -84 184t84 184zM317 338q-36 2 -62 -26t-26 -62t26 -62q28 -26 62 -26t61.5 26t25.5 62q0 37 -25.5 62.5t-61.5 25.5z" />
    <glyph glyph-name="Omacrongrave" unicode="&#x1e50;" horiz-adv-x="843" 
d="M386 1107l124 -179h-174l-158 179h208zM601 875v-125h-360v125h360zM232 662q87 48 189 48q103 0 189 -48q87 -48 137 -131q51 -83 51 -181t-50.5 -181t-137.5 -131q-86 -48 -189 -48q-102 0 -188.5 47.5t-137.5 131.5q-50 83 -50 181t50 181t137 131zM272 350
q0 -65 41 -111q42 -45 109 -45q43 0 78 21t53 56q19 36 19 79t-19 78q-18 36 -53 57t-79 21q-66 0 -107.5 -45t-41.5 -111z" />
    <glyph glyph-name="omacrongrave" unicode="&#x1e51;" horiz-adv-x="636" 
d="M283 928l123 -178h-174l-158 178h209zM498 710v-125h-361v125h361zM318 510q117 2 204 -76.5t84 -183.5q0 -108 -85 -184q-83 -76 -203 -76q-119 0 -204 76q-84 76 -84 184t84 184q85 76 204 76zM317 338q-36 2 -62 -26t-26 -62t26 -62q28 -26 62 -26t61.5 26t25.5 62
q0 37 -25.5 62.5t-61.5 25.5z" />
    <glyph glyph-name="Omacronacute" unicode="&#x1e52;" horiz-adv-x="843" 
d="M661 1107l-158 -179h-174l123 179h209zM601 875v-125h-360v125h360zM232 662q87 48 189 48q103 0 189 -48q87 -48 137 -131q51 -83 51 -181t-50.5 -181t-137.5 -131q-86 -48 -189 -48q-102 0 -188.5 47.5t-137.5 131.5q-50 83 -50 181t50 181t137 131zM272 350
q0 -65 41 -111q42 -45 109 -45q43 0 78 21t53 56q19 36 19 79t-19 78q-18 36 -53 57t-79 21q-66 0 -107.5 -45t-41.5 -111z" />
    <glyph glyph-name="omacronacute" unicode="&#x1e53;" horiz-adv-x="636" 
d="M558 928l-159 -178h-173l123 178h209zM498 710v-125h-361v125h361zM318 510q117 2 204 -76.5t84 -183.5q0 -108 -85 -184q-83 -76 -203 -76q-119 0 -204 76q-84 76 -84 184t84 184q85 76 204 76zM317 338q-36 2 -62 -26t-26 -62t26 -62q28 -26 62 -26t61.5 26t25.5 62
q0 37 -25.5 62.5t-61.5 25.5z" />
    <glyph glyph-name="Sdotbelow" unicode="&#x1e62;" horiz-adv-x="710" 
d="M360 710q175 0 308 -79l-91 -168q-128 64 -241 64q-40 0 -40 -26q0 -9 17 -17q14 -6 90 -25q50 -13 76 -22q85 -26 123 -56q79 -55 79 -152q0 -114 -78.5 -176.5t-220.5 -62.5q-201 0 -352 100l97 162q137 -76 280 -76q44 0 44 25q0 18 -18 27t-92 25q-67 17 -110 30
q-41 13 -89 39q-82 51 -82 152q0 116 83 176t217 60zM329 -109q24 24 59.5 24t58.5 -24q24 -23 24 -58.5t-24 -59.5q-23 -23 -58.5 -23t-59.5 23q-23 24 -23 59.5t23 58.5z" />
    <glyph glyph-name="sdotbelow" unicode="&#x1e63;" horiz-adv-x="520" 
d="M257 510q127 0 223 -57l-66 -123q-85 46 -158 46q-26 0 -26 -19q0 -7 10 -12t48 -14q87 -22 143 -57q58 -36 58 -113q0 -82 -56.5 -126.5t-158.5 -44.5q-146 0 -255 72l70 117q89 -55 183 -55q29 0 29 18q0 11 -8 14q-7 4 -50 15l-65 19q-71 25 -99 52q-38 38 -38 98
q0 83 60.5 126.5t155.5 43.5zM204 -109q24 24 59.5 24t58.5 -23q24 -24 24 -59.5t-24 -58.5q-23 -24 -58.5 -24t-59.5 24q-23 23 -23 58.5t23 58.5z" />
    <glyph glyph-name="Tdotbelow" unicode="&#x1e6c;" horiz-adv-x="643" 
d="M624 700v-185h-193v-515h-218v515h-193v185h604zM255 -109q24 24 59.5 24t58.5 -24q24 -23 24 -58.5t-24 -59.5q-23 -23 -58.5 -23t-59.5 23q-23 24 -23 59.5t23 58.5z" />
    <glyph glyph-name="tdotbelow" unicode="&#x1e6d;" horiz-adv-x="453" 
d="M282 624v-124h113v-154h-113v-146q0 -46 52 -46q33 0 65 19l25 -137q-84 -44 -170 -46q-78 -1 -126.5 44.5t-48.5 130.5v181h-59v154h59v124h203zM175 -109q24 24 59.5 24t58.5 -23q24 -24 24 -59.5t-24 -58.5q-23 -24 -58.5 -24t-59.5 24q-23 23 -23 58.5t23 58.5z" />
    <glyph glyph-name="Tlinebelow" unicode="&#x1e6e;" horiz-adv-x="643" 
d="M624 700v-185h-193v-515h-218v515h-193v185h604zM495 -80v-125h-361v125h361z" />
    <glyph glyph-name="tlinebelow" unicode="&#x1e6f;" horiz-adv-x="453" 
d="M282 624v-124h113v-154h-113v-146q0 -46 52 -46q33 0 65 19l25 -137q-84 -44 -170 -46q-78 -1 -126.5 44.5t-48.5 130.5v181h-59v154h59v124h203zM415 -80v-125h-361v125h361z" />
    <glyph glyph-name="Tcircumflexbelow" unicode="&#x1e70;" horiz-adv-x="643" 
d="M624 700v-185h-193v-515h-218v515h-193v185h604zM420 -72l124 -178h-168l-62 74l-61 -74h-168l124 178h211z" />
    <glyph glyph-name="tcircumflexbelow" unicode="&#x1e71;" horiz-adv-x="453" 
d="M282 624v-124h113v-154h-113v-146q0 -46 52 -46q33 0 65 19l25 -137q-84 -44 -170 -46q-78 -1 -126.5 44.5t-48.5 130.5v181h-59v154h59v124h203zM340 -72l124 -178h-168l-61 74l-62 -74h-168l124 178h211z" />
    <glyph glyph-name="Wgrave" unicode="&#x1e80;" horiz-adv-x="1156" 
d="M1136 700l-227 -700h-222l-109 355l-109 -355h-222l-227 700h243l106 -359l104 359h211l103 -359l106 359h243zM544 928l123 -178h-174l-158 178h209z" />
    <glyph glyph-name="wgrave" unicode="&#x1e81;" horiz-adv-x="838" 
d="M829 500l-142 -500h-217l-51 197l-50 -197h-218l-141 500h202l58 -281l72 281h155l71 -281l58 281h203zM383 728l123 -178h-174l-158 178h209z" />
    <glyph glyph-name="Wacute" unicode="&#x1e82;" horiz-adv-x="1156" 
d="M818 928l-158 -178h-173l123 178h208zM1136 700l-227 -700h-222l-109 355l-109 -355h-222l-227 700h243l106 -359l104 359h211l103 -359l106 359h243z" />
    <glyph glyph-name="wacute" unicode="&#x1e83;" horiz-adv-x="838" 
d="M658 728l-159 -178h-173l123 178h209zM829 500l-142 -500h-217l-51 197l-50 -197h-218l-141 500h202l58 -281l72 281h155l71 -281l58 281h203z" />
    <glyph glyph-name="Wdieresis" unicode="&#x1e84;" horiz-adv-x="1156" 
d="M417 906q24 24 59 24t59 -24q24 -23 24 -58.5t-24 -59.5q-24 -23 -59 -23t-59 23q-24 24 -24 59.5t24 58.5zM682 930q26 2 46.5 -13t29.5 -37.5t5 -48.5t-23 -43q-23 -23 -59 -23q-35 0 -58.5 23.5t-23.5 59.5q0 35 24 58.5t59 23.5zM1136 700l-227 -700h-222l-109 355
l-109 -355h-222l-227 700h243l106 -359l104 359h211l103 -359l106 359h243z" />
    <glyph glyph-name="wdieresis" unicode="&#x1e85;" horiz-adv-x="838" 
d="M829 500l-142 -500h-217l-51 197l-50 -197h-218l-141 500h202l58 -281l72 281h155l71 -281l58 281h203zM256 706q24 24 59.5 24t58.5 -24q24 -23 24 -58.5t-24 -59.5q-23 -23 -58.5 -23t-59.5 23q-23 24 -23 59.5t23 58.5zM461 706q24 24 59.5 24t58.5 -24
q24 -23 24 -58.5t-24 -59.5q-23 -23 -58.5 -23t-59.5 23q-23 24 -23 59.5t23 58.5z" />
    <glyph glyph-name="Zdotbelow" unicode="&#x1e92;" horiz-adv-x="689" 
d="M647 700v-152l-304 -356h316v-192h-629v155l291 353h-266v192h592zM286 -109q24 24 59.5 24t58.5 -24q24 -23 24 -58.5t-24 -59.5q-23 -23 -58.5 -23t-59.5 23q-23 24 -23 59.5t23 58.5z" />
    <glyph glyph-name="zdotbelow" unicode="&#x1e93;" horiz-adv-x="540" 
d="M506 500v-130l-194 -207h204v-163h-491v130l193 207h-173v163h461zM221 -109q24 24 59.5 24t58.5 -23q24 -24 24 -59.5t-24 -58.5q-23 -24 -58.5 -24t-59.5 24q-23 23 -23 58.5t23 58.5z" />
    <glyph glyph-name="Adotbelow" unicode="&#x1ea0;" horiz-adv-x="862" 
d="M572 700l270 -700h-260l-36 107h-231l-35 -107h-260l267 700h285zM430 457l-58 -177h117zM371 -108q24 23 59 23t59 -23q24 -24 24 -59.5t-24 -58.5q-24 -24 -59 -24t-59 24q-24 23 -24 58.5t24 59.5z" />
    <glyph glyph-name="adotbelow" unicode="&#x1ea1;" horiz-adv-x="585" 
d="M327 510q98 0 158 -45t60 -142v-323h-203v58q-65 -68 -154 -68q-70 0 -114 43t-44 112t47.5 107.5t129.5 38.5h135v12q0 51 -71 51q-64 -1 -136 -39l-57 129q123 64 249 66zM342 127v88h-54q-57 0 -57 -50q0 -25 14 -40t36 -15q35 0 61 17zM265 -108q24 23 59 23t59 -23
q24 -24 24 -59.5t-24 -58.5q-24 -24 -59 -24t-59 24q-24 23 -24 58.5t24 59.5z" />
    <glyph glyph-name="Ahookabove" unicode="&#x1ea2;" horiz-adv-x="862" 
d="M424 1020q70 0 112 -33t42 -90q0 -31 -16 -54.5t-53 -52.5q-29 -19 -30 -39h-112q-2 29 3 46q6 23 20 33q4 4 20.5 17.5t19.5 16.5q21 19 13 34.5t-32 15.5q-34 0 -37 -27l-118 11q9 57 54 89.5t114 32.5zM572 700l270 -700h-260l-36 107h-231l-35 -107h-260l267 700h285
zM430 457l-58 -177h117z" />
    <glyph glyph-name="ahookabove" unicode="&#x1ea3;" horiz-adv-x="585" 
d="M321 819q69 0 111.5 -33t42.5 -90q0 -31 -16 -54.5t-53 -51.5q-5 -5 -15 -12.5t-12.5 -12.5t-2.5 -15h-112q-2 29 3 46q6 23 20 33q4 4 20.5 17.5t19.5 16.5q15 12 15 24q0 26 -34 26q-32 0 -37 -27l-118 12q9 56 54.5 88.5t113.5 32.5zM326 510q98 0 158 -45t60 -142
v-323h-203v58q-65 -68 -154 -68q-69 0 -113.5 43t-44.5 112t47.5 107.5t129.5 38.5h135v12q0 51 -71 51q-64 -1 -136 -39l-57 129q123 64 249 66zM341 127v88h-55q-56 0 -56 -50q0 -25 14 -40t36 -15q35 0 61 17z" />
    <glyph glyph-name="Acircumflexacute" unicode="&#x1ea4;" horiz-adv-x="862" 
d="M981 986l-159 -178h-173l123 178h209zM536 928l123 -178h-167l-62 74l-62 -74h-167l123 178h212zM572 700l270 -700h-260l-36 107h-231l-35 -107h-260l267 700h285zM430 457l-58 -177h117z" />
    <glyph glyph-name="acircumflexacute" unicode="&#x1ea5;" horiz-adv-x="585" 
d="M873 786l-158 -178h-174l123 178h209zM428 728l124 -178h-168l-62 74l-61 -74h-168l124 178h211zM326 510q98 0 158 -45t60 -142v-323h-203v58q-65 -68 -154 -68q-69 0 -113.5 43t-44.5 112t47.5 107.5t129.5 38.5h135v12q0 51 -71 51q-64 -1 -136 -39l-57 129
q123 64 249 66zM341 127v88h-55q-56 0 -56 -50q0 -25 14 -40t36 -15q35 0 61 17z" />
    <glyph glyph-name="Acircumflexgrave" unicode="&#x1ea6;" horiz-adv-x="862" 
d="M738 986l123 -178h-173l-159 178h209zM536 928l123 -178h-167l-62 74l-62 -74h-167l123 178h212zM572 700l270 -700h-260l-36 107h-231l-35 -107h-260l267 700h285zM430 457l-58 -177h117z" />
    <glyph glyph-name="acircumflexgrave" unicode="&#x1ea7;" horiz-adv-x="585" 
d="M631 786l124 -178h-174l-158 178h208zM429 728l124 -178h-168l-62 74l-61 -74h-168l124 178h211zM327 510q98 0 158 -45t60 -142v-323h-203v58q-65 -68 -154 -68q-70 0 -114 43t-44 112t47.5 107.5t129.5 38.5h135v12q0 51 -71 51q-64 -1 -136 -39l-57 129q123 64 249 66
zM342 127v88h-54q-57 0 -57 -50q0 -25 14 -40t36 -15q35 0 61 17z" />
    <glyph glyph-name="Acircumflexhookabove" unicode="&#x1ea8;" horiz-adv-x="862" 
d="M718 1077q70 0 112 -33t42 -90q0 -33 -16.5 -56t-52.5 -51q-12 -9 -16 -12.5t-9 -11t-5 -15.5h-111q-2 29 3 46q4 17 15 28q15 16 45 39q21 19 12.5 34.5t-31.5 15.5q-34 0 -38 -27l-117 12q9 56 54 88.5t113 32.5zM536 928l123 -178h-167l-62 74l-62 -74h-167l123 178
h212zM572 700l270 -700h-260l-36 107h-231l-35 -107h-260l267 700h285zM430 457l-58 -177h117z" />
    <glyph glyph-name="acircumflexhookabove" unicode="&#x1ea9;" horiz-adv-x="585" 
d="M613 877q70 0 112 -33t42 -90q0 -31 -16 -54.5t-52 -52.5q-29 -19 -30 -39h-112q-2 29 3 46q6 23 20 33q4 4 20.5 17.5t19.5 16.5q15 12 15 24q0 26 -34 26t-37 -27l-118 12q9 56 54.5 88.5t112.5 32.5zM431 728l124 -178h-168l-62 74l-61 -74h-168l124 178h211zM326 510
q98 0 158 -45t60 -142v-323h-203v58q-65 -68 -154 -68q-69 0 -113.5 43t-44.5 112t47.5 107.5t129.5 38.5h135v12q0 51 -71 51q-64 -1 -136 -39l-57 129q123 64 249 66zM341 127v88h-55q-56 0 -56 -50q0 -25 14 -40t36 -15q35 0 61 17z" />
    <glyph glyph-name="Acircumflextilde" unicode="&#x1eaa;" horiz-adv-x="862" 
d="M317 1130q27 6 46 3t58 -17q67 -23 86 -22q25 1 34 33l75 -9q10 -62 -9 -103.5t-61 -52.5q-27 -6 -46 -3q-22 3 -57 16l-19 7l-48 16q-11 2 -23 -1q-22 -6 -30 -32l-75 8q-11 61 8 103.5t61 53.5zM536 928l123 -178h-167l-62 74l-62 -74h-167l123 178h212zM572 700
l270 -700h-260l-36 107h-231l-35 -107h-260l267 700h285zM430 457l-58 -177h117z" />
    <glyph glyph-name="acircumflextilde" unicode="&#x1eab;" horiz-adv-x="585" 
d="M211 927q27 5 47 2.5t56 -16.5q67 -23 87 -22q26 2 33 32l75 -8q11 -61 -8 -103t-61 -54q-28 -6 -47 -3q-17 3 -57 17q-1 0 -19 7q-42 15 -48 16q-11 2 -23 -2q-22 -6 -30 -32l-75 9q-10 62 9 103.5t61 53.5zM429 728l124 -178h-168l-62 74l-61 -74h-168l124 178h211z
M327 510q98 0 158 -45t60 -142v-323h-203v58q-65 -68 -154 -68q-70 0 -114 43t-44 112q0 68 47.5 107t129.5 39h135v12q0 52 -71 50q-63 0 -136 -38l-57 129q123 64 249 66zM342 127v88h-54q-57 0 -57 -50q0 -25 14 -40t36 -15q35 0 61 17z" />
    <glyph glyph-name="Acircumflexdotbelow" unicode="&#x1eac;" horiz-adv-x="862" 
d="M536 928l123 -178h-167l-62 74l-62 -74h-167l123 178h212zM572 700l270 -700h-260l-36 107h-231l-35 -107h-260l267 700h285zM430 457l-58 -177h117zM372 -108q24 23 59 23t59 -23q24 -24 24 -59.5t-24 -58.5q-24 -24 -59 -24t-59 24q-24 23 -24 58.5t24 59.5z" />
    <glyph glyph-name="acircumflexdotbelow" unicode="&#x1ead;" horiz-adv-x="585" 
d="M429 728l124 -178h-168l-62 74l-61 -74h-168l124 178h211zM327 510q98 0 158 -45t60 -142v-323h-203v58q-65 -68 -154 -68q-70 0 -114 43t-44 112t47.5 107.5t129.5 38.5h135v12q0 51 -71 51q-64 -1 -136 -39l-57 129q123 64 249 66zM342 127v88h-54q-57 0 -57 -50
q0 -25 14 -40t36 -15q35 0 61 17zM265 -108q24 23 59 23t59 -23q24 -24 24 -59.5t-24 -58.5q-24 -24 -59 -24t-59 24q-24 23 -24 58.5t24 59.5z" />
    <glyph glyph-name="Abreveacute" unicode="&#x1eae;" horiz-adv-x="862" 
d="M669 1135l-159 -178h-173l123 178h209zM500 934h133q0 -76 -58 -125t-142 -49q-85 0 -143 49t-58 125h133q-3 -33 32 -46.5t70.5 0t32.5 46.5zM571 700l270 -700h-260l-36 107h-231l-35 -107h-260l267 700h285zM429 457l-58 -177h117z" />
    <glyph glyph-name="abreveacute" unicode="&#x1eaf;" horiz-adv-x="585" 
d="M562 928l-158 -178h-174l123 178h209zM393 734h133q0 -76 -58 -125t-142 -49t-142 49t-58 125h133q0 -24 18.5 -38.5t48.5 -14.5q29 0 48 14t19 39zM326 510q98 0 158 -45t60 -142v-323h-203v58q-65 -68 -154 -68q-69 0 -113.5 43t-44.5 112t47.5 107.5t129.5 38.5h135
v12q0 51 -71 51q-64 -1 -136 -39l-57 129q123 64 249 66zM341 127v88h-55q-56 0 -56 -50q0 -25 14 -40t36 -15q35 0 61 17z" />
    <glyph glyph-name="Abrevegrave" unicode="&#x1eb0;" horiz-adv-x="862" 
d="M501 934h133q0 -76 -58 -125t-142 -49q-85 0 -143 49t-58 125h133q-3 -33 32.5 -46.5t70.5 0t32 46.5zM572 700l270 -700h-260l-36 107h-231l-35 -107h-260l267 700h285zM430 457l-58 -177h117zM395 1135l123 -178h-174l-158 178h209z" />
    <glyph glyph-name="abrevegrave" unicode="&#x1eb1;" horiz-adv-x="585" 
d="M287 928l123 -178h-173l-158 178h208zM393 734h133q0 -76 -58 -125t-142 -49t-142 49t-58 125h133q-3 -33 32 -46.5t70 0t32 46.5zM326 510q98 0 158 -45t60 -142v-323h-203v58q-65 -68 -154 -68q-69 0 -113.5 43t-44.5 112t47.5 107.5t129.5 38.5h135v12q0 51 -71 51
q-64 -1 -136 -39l-57 129q123 64 249 66zM341 127v88h-55q-56 0 -56 -50q0 -25 14 -40t36 -15q35 0 61 17z" />
    <glyph glyph-name="Abrevehookabove" unicode="&#x1eb2;" horiz-adv-x="862" 
d="M424 1226q70 0 112 -33t42 -90q0 -31 -16.5 -54.5t-52.5 -51.5q-30 -19 -30 -40h-112q-2 29 3 47q7 23 20 32q4 4 20.5 17.5t19.5 16.5q21 20 13 35t-32 15q-34 0 -37 -26l-118 11q9 56 54.5 88.5t113.5 32.5zM501 934h133q0 -76 -58 -125t-142 -49q-85 0 -143 49
t-58 125h133q-3 -33 32.5 -46.5t70.5 0t32 46.5zM572 700l270 -700h-260l-36 107h-231l-35 -107h-260l267 700h285zM430 457l-58 -177h117z" />
    <glyph glyph-name="abrevehookabove" unicode="&#x1eb3;" horiz-adv-x="585" 
d="M316 1026q70 0 112 -33t42 -90q0 -31 -16 -55t-53 -51q-5 -5 -14.5 -12.5t-12.5 -12.5t-3 -15h-112q-1 26 4 47q3 10 8.5 19t10.5 14t19 16t21 17q22 20 14 35t-32 15q-33 0 -38 -26l-117 11q9 56 54 88.5t113 32.5zM393 734h133q0 -76 -58 -125t-142 -49t-142 49
t-58 125h133q0 -24 18.5 -38.5t48.5 -14.5q29 0 48 14t19 39zM326 510q98 0 158 -45t60 -142v-323h-203v58q-65 -68 -154 -68q-69 0 -113.5 43t-44.5 112t47.5 107.5t129.5 38.5h135v12q0 51 -71 51q-64 -1 -136 -39l-57 129q123 64 249 66zM341 127v88h-55q-56 0 -56 -50
q0 -25 14 -40t36 -15q35 0 61 17z" />
    <glyph glyph-name="Abrevetilde" unicode="&#x1eb4;" horiz-adv-x="862" 
d="M317 1130q29 5 46.5 2.5t57.5 -15.5q63 -24 86 -22q25 1 34 32l75 -8q10 -62 -9 -104t-61 -53q-27 -6 -46 -3q-17 3 -57 17q-6 1 -19 6l-48 16q-11 2 -23 -1q-22 -6 -30 -32l-75 9q-11 61 8 103t61 53zM501 934h133q0 -76 -58 -125t-142 -49q-85 0 -143 49t-58 125h133
q0 -24 19 -38.5t49 -14.5q29 0 48 14t19 39zM572 700l270 -700h-260l-36 107h-231l-35 -107h-260l267 700h285zM430 457l-58 -177h117z" />
    <glyph glyph-name="abrevetilde" unicode="&#x1eb5;" horiz-adv-x="585" 
d="M211 928q27 6 46.5 3t56.5 -17q67 -23 87 -22q25 2 33 33l75 -8q11 -62 -8 -104t-61 -53q-28 -6 -47 -3q-22 3 -57 16l-19 7q-42 15 -48 16q-11 2 -23 -1q-22 -6 -30 -32l-75 8q-10 62 9 104t61 53zM394 734h133q0 -76 -58 -125t-142 -49t-142 49.5t-58 124.5h133
q-3 -33 32 -46.5t70 0t32 46.5zM327 510q98 0 158 -45t60 -142v-323h-203v58q-65 -68 -154 -68q-70 0 -114 43t-44 112t47.5 107.5t129.5 38.5h135v12q0 52 -71 50q-63 0 -136 -38l-57 129q123 64 249 66zM342 127v88h-54q-57 0 -57 -50q0 -25 14 -40t36 -15q35 0 61 17z
" />
    <glyph glyph-name="Abrevedotbelow" unicode="&#x1eb6;" horiz-adv-x="862" 
d="M501 934h133q0 -76 -58 -125t-142 -49q-85 0 -143 49t-58 125h133q-3 -33 32.5 -46.5t70.5 0t32 46.5zM572 700l270 -700h-260l-36 107h-231l-35 -107h-260l267 700h285zM430 457l-58 -177h117zM371 -108q24 23 59 23t59 -23q24 -24 24 -59.5t-24 -58.5q-24 -24 -59 -24
t-59 24q-24 23 -24 58.5t24 59.5z" />
    <glyph glyph-name="abrevedotbelow" unicode="&#x1eb7;" horiz-adv-x="585" 
d="M393 734h133q0 -76 -58 -125t-142 -49t-142 49t-58 125h133q-3 -33 32 -46.5t70 0t32 46.5zM326 510q98 0 158 -45t60 -142v-323h-203v58q-65 -68 -154 -68q-69 0 -113.5 43t-44.5 112t47.5 107.5t129.5 38.5h135v12q0 51 -71 51q-64 -1 -136 -39l-57 129q123 64 249 66z
M341 127v88h-55q-56 0 -56 -50q0 -25 14 -40t36 -15q35 0 61 17zM264 -108q24 23 59 23t59 -23q24 -24 24 -59.5t-24 -58.5q-24 -24 -59 -24t-59 24q-24 23 -24 58.5t24 59.5z" />
    <glyph glyph-name="Edotbelow" unicode="&#x1eb8;" horiz-adv-x="682" 
d="M647 700v-195h-369v-58h344v-185h-344v-67h374v-195h-592v700h587zM330 -108q24 23 59 23t59 -23q24 -24 24 -59.5t-24 -58.5q-24 -24 -59 -24t-59 24q-24 23 -24 58.5t24 59.5z" />
    <glyph glyph-name="edotbelow" unicode="&#x1eb9;" 
d="M294 510q121 0 191 -75q72 -73 72 -185v-48h-331q1 -32 27.5 -49t63.5 -17q58 0 95 34l105 -94q-92 -86 -218 -86q-111 0 -190 76t-79 184q0 107 77 184q77 76 187 76zM298 367q-29 0 -49.5 -20.5t-20.5 -50.5h140q0 31 -19 51t-51 20zM232 -109q24 24 59.5 24t58.5 -24
q24 -23 24 -58.5t-24 -59.5q-23 -23 -58.5 -23t-59.5 23q-23 24 -23 59.5t23 58.5z" />
    <glyph glyph-name="Ehookabove" unicode="&#x1eba;" horiz-adv-x="682" 
d="M353 1020q69 0 111 -33t42 -90q0 -34 -16 -56.5t-52 -50.5q-29 -19 -30 -39h-112q-2 29 3 46q6 23 20 33q4 4 20.5 17.5t19.5 16.5q21 19 13 34.5t-32 15.5q-34 0 -37 -27l-118 11q9 56 55 89t113 33zM647 700v-195h-369v-58h344v-185h-344v-67h374v-195h-592v700h587z
" />
    <glyph glyph-name="ehookabove" unicode="&#x1ebb;" 
d="M294 819q69 0 111.5 -33t42.5 -90q0 -32 -16 -55t-53 -51q-5 -5 -14.5 -12.5t-12.5 -12.5t-3 -15h-112q-1 26 4 46q5 23 19 33q4 4 20.5 17.5t19.5 16.5q16 12 16 24q0 26 -35 26q-33 0 -37 -27l-118 12q10 56 55 88.5t113 32.5zM293 510q120 0 191 -75q72 -73 72 -185
v-48h-331q1 -31 26 -48.5t65 -17.5q58 0 95 34l105 -94q-92 -86 -218 -86q-109 -2 -190 76t-79 184q0 107 77 184q77 76 187 76zM297 367q-29 0 -49.5 -20.5t-20.5 -50.5h140q0 31 -19 51t-51 20z" />
    <glyph glyph-name="Etilde" unicode="&#x1ebc;" horiz-adv-x="682" 
d="M238 924q27 6 46 3t58 -17q67 -23 86 -22q25 1 34 33l75 -9q10 -62 -9 -103.5t-61 -52.5q-27 -6 -46 -3q-22 3 -57 16l-19 7l-48 16q-11 2 -23 -1q-22 -6 -30 -32l-75 8q-11 61 8 103.5t61 53.5zM647 700v-195h-369v-58h344v-185h-344v-67h374v-195h-592v700h587z" />
    <glyph glyph-name="etilde" unicode="&#x1ebd;" 
d="M181 724q27 6 46 3t58 -17q67 -23 86 -22q25 1 34 33l74 -9q11 -62 -8 -103.5t-61 -52.5q-29 -5 -46.5 -2.5t-57.5 15.5l-19 7q-42 15 -48 16q-10 2 -22 -1q-23 -6 -31 -32l-74 8q-11 62 8 104t61 53zM294 510q121 0 191 -75q72 -73 72 -185v-48h-331q2 -32 27.5 -49
t63.5 -17q58 0 95 34l105 -94q-92 -86 -218 -86q-109 -2 -190 76t-79 184q0 107 77 184q77 76 187 76zM298 367q-29 0 -49.5 -21t-20.5 -50h140q0 31 -19 51t-51 20z" />
    <glyph glyph-name="Ecircumflexacute" unicode="&#x1ebe;" horiz-adv-x="682" 
d="M902 986l-158 -178h-174l123 178h209zM457 928l124 -178h-168l-62 74l-61 -74h-168l124 178h211zM646 700v-195h-369v-58h344v-185h-344v-67h374v-195h-592v700h587z" />
    <glyph glyph-name="ecircumflexacute" unicode="&#x1ebf;" 
d="M844 786l-158 -178h-174l123 178h209zM399 728l124 -178h-168l-62 74l-61 -74h-168l124 178h211zM294 510q121 0 191 -75q72 -73 72 -185v-48h-331q1 -32 27.5 -49t63.5 -17q58 0 95 34l105 -94q-92 -86 -218 -86q-111 0 -190 76t-79 184q0 107 77 184q77 76 187 76z
M298 367q-29 0 -49.5 -20.5t-20.5 -50.5h140q0 31 -19 51t-51 20z" />
    <glyph glyph-name="Ecircumflexgrave" unicode="&#x1ec0;" horiz-adv-x="682" 
d="M660 986l123 -178h-173l-159 178h209zM458 928l123 -178h-168l-61 74l-62 -74h-167l123 178h212zM647 700v-195h-369v-58h344v-185h-344v-67h374v-195h-592v700h587z" />
    <glyph glyph-name="ecircumflexgrave" unicode="&#x1ec1;" 
d="M602 786l123 -178h-174l-158 178h209zM399 728l124 -178h-168l-61 74l-62 -74h-167l123 178h211zM294 510q121 0 191 -75q72 -73 72 -185v-48h-331q2 -32 27.5 -49t63.5 -17q58 0 95 34l105 -94q-92 -86 -218 -86q-109 -2 -190 76t-79 184q0 107 77 184q77 76 187 76z
M298 367q-29 0 -49.5 -20.5t-20.5 -50.5h140q0 31 -19 51t-51 20z" />
    <glyph glyph-name="Ecircumflexhookabove" unicode="&#x1ec2;" horiz-adv-x="682" 
d="M677 1077q70 0 112 -33t42 -90q0 -33 -16.5 -56t-52.5 -51q-12 -9 -16 -12.5t-9 -11t-5 -15.5h-111q-2 29 3 46q4 18 19 33t41 34q21 19 12.5 34.5t-31.5 15.5q-33 0 -38 -27l-117 12q9 56 54 88.5t113 32.5zM495 928l123 -178h-167l-62 74l-62 -74h-167l123 178h212z
M647 700v-195h-369v-58h344v-185h-344v-67h374v-195h-592v700h587z" />
    <glyph glyph-name="ecircumflexhookabove" unicode="&#x1ec3;" 
d="M581 877q70 0 112 -33t42 -90q0 -32 -16 -55.5t-53 -51.5q-12 -9 -16.5 -12.5t-9 -10.5t-4.5 -16h-112q-2 29 3 46q6 23 20 33q4 4 20.5 17.5t19.5 16.5q15 12 15 24q0 26 -34 26q-32 0 -37 -27l-118 12q10 56 55 88.5t113 32.5zM398 728l124 -178h-168l-61 74l-62 -74
h-167l123 178h211zM293 510q120 0 191 -75q72 -73 72 -185v-48h-331q1 -31 26 -48.5t65 -17.5q58 0 95 34l105 -94q-92 -86 -218 -86q-109 -2 -190 76t-79 184q0 107 77 184q77 76 187 76zM297 367q-29 0 -49.5 -20.5t-20.5 -50.5h140q0 31 -19 51t-51 20z" />
    <glyph glyph-name="Ecircumflextilde" unicode="&#x1ec4;" horiz-adv-x="682" 
d="M238 1126q29 5 46.5 2.5t57.5 -15.5q63 -24 86 -22q25 1 34 32l75 -8q10 -62 -9 -104t-61 -53q-27 -6 -46 -3q-17 3 -57 17q-1 0 -19 7q-39 13 -48 15q-11 2 -23 -1q-22 -6 -30 -32l-75 9q-11 61 8 103t61 53zM457 928l123 -178h-167l-62 74l-62 -74h-167l123 178h212z
M647 700v-195h-369v-58h344v-185h-344v-67h374v-195h-592v700h587z" />
    <glyph glyph-name="ecircumflextilde" unicode="&#x1ec5;" 
d="M181 926q27 6 46 3t58 -17q67 -23 86 -22q25 1 34 33l74 -9q11 -62 -8 -103.5t-61 -52.5q-29 -5 -46.5 -2.5t-57.5 15.5l-19 7q-42 15 -48 16q-10 2 -22 -1q-24 -8 -31 -32l-74 8q-11 62 8 104t61 53zM399 728l124 -178h-168l-61 74l-62 -74h-167l123 178h211zM294 510
q121 0 191 -75q72 -73 72 -185v-48h-331q2 -32 27.5 -49t63.5 -17q58 0 95 34l105 -94q-92 -86 -218 -86q-109 -2 -190 76t-79 184q0 107 77 184q77 76 187 76zM298 367q-29 0 -49.5 -21t-20.5 -50h140q0 31 -19 51t-51 20z" />
    <glyph glyph-name="Ecircumflexdotbelow" unicode="&#x1ec6;" horiz-adv-x="682" 
d="M457 928l123 -178h-167l-62 74l-62 -74h-167l123 178h212zM647 700v-195h-369v-58h344v-185h-344v-67h374v-195h-592v700h587zM330 -108q24 23 59 23t59 -23q24 -24 24 -59.5t-24 -58.5q-24 -24 -59 -24t-59 24q-24 23 -24 58.5t24 59.5z" />
    <glyph glyph-name="ecircumflexdotbelow" unicode="&#x1ec7;" 
d="M399 728l124 -178h-168l-61 74l-62 -74h-167l123 178h211zM294 510q121 0 191 -75q72 -73 72 -185v-48h-331q1 -32 27.5 -49t63.5 -17q58 0 95 34l105 -94q-92 -86 -218 -86q-111 0 -190 76t-79 184q0 107 77 184q77 76 187 76zM298 367q-29 0 -49.5 -20.5t-20.5 -50.5
h140q0 31 -19 51t-51 20zM232 -108q24 23 59.5 23t58.5 -23q24 -24 24 -59.5t-24 -58.5q-23 -24 -58.5 -24t-59.5 24q-23 23 -23 58.5t23 59.5z" />
    <glyph glyph-name="Ihookabove" unicode="&#x1ec8;" horiz-adv-x="337" 
d="M167 1020q70 0 112 -33t42 -90q-2 -35 -17.5 -57.5t-51.5 -49.5q-28 -22 -30 -39h-111q-2 29 3 46q5 19 19 33q15 15 41 34q21 19 12.5 34.5t-31.5 15.5q-34 0 -37 -27l-118 11q9 57 54 89.5t113 32.5zM277 700v-700h-218v700h218z" />
    <glyph glyph-name="ihookabove" unicode="&#x1ec9;" horiz-adv-x="310" 
d="M160 819q69 0 111.5 -33t42.5 -90q0 -32 -16 -55t-53 -51q-5 -5 -14.5 -12.5t-12.5 -12.5t-3 -15h-112q-1 26 4 46q5 23 19 33q4 4 20.5 17.5t19.5 16.5q16 12 16 24q0 26 -35 26q-33 0 -37 -27l-118 12q10 56 55 88.5t113 32.5zM263 500v-500h-203v500h203z" />
    <glyph glyph-name="Idotbelow" unicode="&#x1eca;" horiz-adv-x="337" 
d="M278 700v-700h-218v700h218zM109 -108q24 23 59 23t59 -23q24 -24 24 -59.5t-24 -58.5q-24 -24 -59 -24t-59 24q-24 23 -24 58.5t24 59.5z" />
    <glyph glyph-name="idotbelow" unicode="&#x1ecb;" horiz-adv-x="310" 
d="M86 684q31 26 74.5 26t74.5 -26t31 -62.5t-31 -62.5t-74.5 -26t-74.5 26t-31 62.5t31 62.5zM262 500v-500h-203v500h203zM101 -109q24 24 59.5 24t58.5 -23q24 -24 24 -59.5t-24 -58.5q-23 -24 -58.5 -24t-59.5 24q-23 23 -23 58.5t23 58.5z" />
    <glyph glyph-name="Odotbelow" unicode="&#x1ecc;" horiz-adv-x="843" 
d="M232 662q87 48 189 48q103 0 189 -48q87 -48 137 -131q51 -83 51 -181t-50.5 -181t-137.5 -131q-86 -48 -189 -48q-102 0 -188.5 47.5t-137.5 131.5q-50 83 -50 181t50 181t137 131zM272 350q0 -65 41 -111q42 -45 109 -45q43 0 78 21t53 56q19 36 19 79t-19 78
q-18 36 -53 57t-79 21q-66 0 -107.5 -45t-41.5 -111zM362 -109q24 24 59.5 24t58.5 -24q24 -23 24 -58.5t-24 -59.5q-23 -23 -58.5 -23t-59.5 23q-23 24 -23 59.5t23 58.5z" />
    <glyph glyph-name="odotbelow" unicode="&#x1ecd;" horiz-adv-x="636" 
d="M318 510q117 2 204 -76.5t84 -183.5q0 -108 -85 -184q-83 -76 -203 -76q-119 0 -204 76q-84 76 -84 184t84 184q85 76 204 76zM317 338q-36 2 -62 -26t-26 -62t26 -62q28 -26 62 -26t61.5 26t25.5 62q0 37 -25.5 62.5t-61.5 25.5zM259 -109q24 24 59.5 24t58.5 -23
q24 -24 24 -59.5t-24 -58.5q-23 -24 -58.5 -24t-59.5 24q-23 23 -23 58.5t23 58.5z" />
    <glyph glyph-name="Ohookabove" unicode="&#x1ece;" horiz-adv-x="843" 
d="M427 1020q70 0 112 -33t42 -90q0 -32 -16 -55.5t-53 -51.5q-28 -22 -30 -39h-111q-2 29 3 46q4 17 15 28q15 16 45 39q21 19 12.5 34.5t-31.5 15.5q-34 0 -37 -27l-118 11q9 57 54.5 89.5t112.5 32.5zM231 662q87 48 189 48q104 0 189 -48q87 -48 137 -131
q51 -83 51 -181t-50.5 -181t-137.5 -131q-85 -48 -189 -48q-102 0 -188.5 47.5t-137.5 131.5q-50 83 -50 181t50 181t137 131zM270 350q0 -66 42 -111t108 -45q68 0 108 45q42 45 42 111t-41.5 111t-108.5 45q-66 0 -108 -45t-42 -111z" />
    <glyph glyph-name="ohookabove" unicode="&#x1ecf;" horiz-adv-x="636" 
d="M317 819q69 0 111.5 -33t42.5 -90q0 -32 -16 -55t-53 -51q-5 -5 -14.5 -12.5t-12.5 -12.5t-3 -15h-112q-1 26 4 46q5 23 19 33q4 4 20.5 17.5t19.5 16.5q16 12 16 24q0 26 -35 26q-32 0 -37 -27l-118 12q10 56 55 88.5t113 32.5zM317 510q117 2 204 -76.5t84 -183.5
q0 -108 -85 -184q-83 -76 -203 -76q-119 0 -204 76q-84 76 -84 184t84 184q85 76 204 76zM316 338q-36 2 -62 -26t-26 -62t26 -62q28 -26 62 -26t61.5 26t25.5 62q0 37 -25.5 62.5t-61.5 25.5z" />
    <glyph glyph-name="Ocircumflexacute" unicode="&#x1ed0;" horiz-adv-x="843" 
d="M972 986l-158 -178h-174l124 178h208zM528 928l123 -178h-168l-61 74l-62 -74h-167l123 178h212zM231 662q87 48 189 48q104 0 189 -48q87 -48 137 -131q51 -83 51 -181t-50.5 -181t-137.5 -131q-85 -48 -189 -48q-102 0 -188.5 47.5t-137.5 131.5q-50 83 -50 181t50 181
t137 131zM270 350q0 -66 42 -111t108 -45q44 0 79 20.5t53 56.5t18 79t-18 78q-18 36 -53 57t-79 21q-66 0 -108 -45t-42 -111z" />
    <glyph glyph-name="ocircumflexacute" unicode="&#x1ed1;" horiz-adv-x="636" 
d="M869 786l-158 -178h-174l123 178h209zM424 728l124 -178h-168l-62 74l-61 -74h-168l124 178h211zM318 510q117 2 204 -76.5t84 -183.5q0 -108 -85 -184q-83 -76 -203 -76q-119 0 -204 76q-84 76 -84 184t84 184q85 76 204 76zM317 338q-36 2 -62 -26t-26 -62t26 -62
q28 -26 62 -26t61.5 26t25.5 62q0 37 -25.5 62.5t-61.5 25.5z" />
    <glyph glyph-name="Ocircumflexgrave" unicode="&#x1ed2;" horiz-adv-x="843" 
d="M730 986l123 -178h-173l-159 178h209zM528 928l123 -178h-168l-61 74l-62 -74h-167l123 178h212zM232 662q87 48 189 48q103 0 189 -48q87 -48 137 -131q51 -83 51 -181t-50.5 -181t-137.5 -131q-86 -48 -189 -48q-102 0 -188.5 47.5t-137.5 131.5q-50 83 -50 181t50 181
t137 131zM272 350q0 -65 41 -111q42 -45 109 -45q43 0 78 21t53 56q19 36 19 79t-19 78q-18 36 -53 57t-79 21q-66 0 -107.5 -45t-41.5 -111z" />
    <glyph glyph-name="ocircumflexgrave" unicode="&#x1ed3;" horiz-adv-x="636" 
d="M627 786l123 -178h-174l-158 178h209zM424 728l124 -178h-168l-61 74l-62 -74h-167l123 178h211zM318 510q117 2 204 -76.5t84 -183.5q0 -108 -85 -184q-83 -76 -203 -76q-119 0 -204 76q-84 76 -84 184t84 184q85 76 204 76zM317 338q-36 2 -62 -26t-26 -62t26 -62
q28 -26 62 -26t61.5 26t25.5 62q0 37 -25.5 62.5t-61.5 25.5z" />
    <glyph glyph-name="Ocircumflexhookabove" unicode="&#x1ed4;" horiz-adv-x="843" 
d="M710 1077q69 0 111 -33t42 -90q0 -23 -10 -43t-21.5 -31.5t-36.5 -32.5q-29 -19 -30 -39h-112q-2 29 3 46q6 23 20 33q4 4 20.5 17.5t19.5 16.5q21 19 13 34.5t-32 15.5q-34 0 -37 -27l-118 12q9 56 54.5 88.5t113.5 32.5zM527 928l124 -178h-168l-61 74l-62 -74h-168
l124 178h211zM232 662q87 48 189 48q103 0 189 -48q87 -48 137 -131q51 -83 51 -181t-50.5 -181t-137.5 -131q-86 -48 -189 -48q-102 0 -188.5 47.5t-137.5 131.5q-50 83 -50 181t50 181t137 131zM272 350q0 -65 41 -111q42 -45 108 -45q67 0 109 45t42 111t-42.5 111
t-108.5 45t-107.5 -45t-41.5 -111z" />
    <glyph glyph-name="ocircumflexhookabove" unicode="&#x1ed5;" horiz-adv-x="636" 
d="M605 877q70 0 112 -33t42 -90q0 -33 -15.5 -55t-52.5 -52q-29 -19 -30 -39h-112q-2 29 3 46q6 23 20 33q4 4 20.5 17.5t19.5 16.5q15 12 15 24q0 26 -34 26t-37 -27l-118 12q9 56 54.5 88.5t112.5 32.5zM423 728l124 -178h-168l-62 74l-61 -74h-168l124 178h211zM317 510
q117 2 204 -76.5t84 -183.5q0 -108 -85 -184q-83 -76 -203 -76q-119 0 -204 76q-84 76 -84 184t84 184q85 76 204 76zM316 338q-36 2 -62 -26t-26 -62t26 -62q28 -26 62 -26t61.5 26t25.5 62q0 37 -25.5 62.5t-61.5 25.5z" />
    <glyph glyph-name="Ocircumflextilde" unicode="&#x1ed6;" horiz-adv-x="843" 
d="M309 1126q27 6 46.5 3t56.5 -17q67 -23 87 -22q25 2 33 33l75 -9q11 -62 -8 -103.5t-61 -52.5q-28 -6 -47 -3q-22 3 -57 16l-19 7q-42 15 -48 16q-10 2 -22 -1q-23 -6 -31 -32l-75 8q-10 63 9 104t61 53zM527 928l124 -178h-168l-61 74l-62 -74h-168l124 178h211z
M232 662q87 48 189 48q103 0 189 -48q87 -48 137 -131q51 -83 51 -181t-50.5 -181t-137.5 -131q-86 -48 -189 -48q-102 0 -188.5 47.5t-137.5 131.5q-50 83 -50 181t50 181t137 131zM272 350q0 -65 41 -111q42 -45 109 -45q43 0 78 21t53 56q19 36 19 79t-19 78
q-18 36 -53 57t-79 21q-66 0 -107.5 -45t-41.5 -111z" />
    <glyph glyph-name="ocircumflextilde" unicode="&#x1ed7;" horiz-adv-x="636" 
d="M205 925q27 6 46 3t58 -17q67 -23 87 -22q24 1 33 33l75 -9q10 -62 -9 -103.5t-61 -52.5q-27 -6 -46 -3q-22 3 -57 16l-19 7l-48 16q-11 2 -23 -1q-22 -6 -30 -32l-75 8q-11 61 8 103.5t61 53.5zM424 728l123 -178h-167l-62 74l-62 -74h-167l123 178h212zM318 510
q117 2 204 -76.5t84 -183.5q0 -108 -85 -184q-83 -76 -203 -76q-119 0 -204 76q-84 76 -84 184t84 184q85 76 204 76zM317 338q-36 2 -62 -26t-26 -62t26 -62q28 -26 62 -26t61.5 26t25.5 62q0 37 -25.5 62.5t-61.5 25.5z" />
    <glyph glyph-name="Ocircumflexdotbelow" unicode="&#x1ed8;" horiz-adv-x="843" 
d="M527 928l124 -178h-168l-61 74l-62 -74h-168l124 178h211zM232 662q87 48 189 48q103 0 189 -48q87 -48 137 -131q51 -83 51 -181t-50.5 -181t-137.5 -131q-86 -48 -189 -48q-102 0 -188.5 47.5t-137.5 131.5q-50 83 -50 181t50 181t137 131zM272 350q0 -65 41 -111
q42 -45 109 -45q43 0 78 21t53 56q19 36 19 79t-19 78q-18 36 -53 57t-79 21q-66 0 -107.5 -45t-41.5 -111zM362 -108q24 23 59.5 23t58.5 -23q24 -24 24 -59.5t-24 -58.5q-23 -24 -58.5 -24t-59.5 24q-23 23 -23 58.5t23 59.5z" />
    <glyph glyph-name="ocircumflexdotbelow" unicode="&#x1ed9;" horiz-adv-x="636" 
d="M424 728l123 -178h-167l-62 74l-62 -74h-167l123 178h212zM318 510q117 2 204 -76.5t84 -183.5q0 -108 -85 -184q-83 -76 -203 -76q-119 0 -204 76q-84 76 -84 184t84 184q85 76 204 76zM317 338q-36 2 -62 -26t-26 -62t26 -62q28 -26 62 -26t61.5 26t25.5 62
q0 37 -25.5 62.5t-61.5 25.5zM259 -108q24 23 59.5 23t58.5 -23q24 -24 24 -59.5t-24 -58.5q-23 -24 -58.5 -24t-59.5 24q-23 23 -23 58.5t23 59.5z" />
    <glyph glyph-name="Ohornacute" unicode="&#x1eda;" horiz-adv-x="843" 
d="M684 740h198v-38q0 -62 -39 -108q-38 -47 -97 -62q52 -83 52 -182q0 -98 -50.5 -181t-137.5 -131q-86 -48 -189 -48q-102 0 -189 48t-137 131t-50 181q-3 146 110.5 254.5t266.5 105.5q133 0 237 -80q25 16 25 45v65zM272 350q0 -65 41 -111q42 -45 109 -45q43 0 78 21
t53 56q19 36 19 79t-19 78q-18 36 -53 57t-79 21q-66 0 -107.5 -45t-41.5 -111zM661 928l-158 -178h-174l123 178h209z" />
    <glyph glyph-name="ohornacute" unicode="&#x1edb;" horiz-adv-x="636" 
d="M558 728l-159 -178h-173l123 178h209zM498 553h198v-38q0 -54 -31.5 -98.5t-81.5 -63.5q23 -51 23 -103q0 -108 -85 -184q-83 -76 -203 -76q-119 0 -204 76q-84 76 -84 184t84 184q85 76 204 76q94 0 171 -51q9 13 9 29v65zM317 338q-36 2 -62 -26t-26 -62t26 -62
q28 -26 62 -26t61.5 26t25.5 62q0 37 -25.5 62.5t-61.5 25.5z" />
    <glyph glyph-name="Ohorngrave" unicode="&#x1edc;" horiz-adv-x="843" 
d="M386 928l124 -178h-174l-158 178h208zM684 740h198v-38q0 -62 -39 -108q-38 -47 -97 -62q52 -83 52 -182q0 -98 -50.5 -181t-137.5 -131q-86 -48 -189 -48q-102 0 -189 48t-137 131t-50 181q-3 146 110.5 254.5t266.5 105.5q133 0 237 -80q25 16 25 45v65zM272 350
q0 -65 41 -111q42 -45 109 -45q43 0 78 21t53 56q19 36 19 79t-19 78q-18 36 -53 57t-79 21q-66 0 -107.5 -45t-41.5 -111z" />
    <glyph glyph-name="ohorngrave" unicode="&#x1edd;" horiz-adv-x="636" 
d="M498 553h198v-38q0 -54 -31.5 -98.5t-81.5 -63.5q23 -51 23 -103q0 -108 -85 -184q-83 -76 -203 -76q-119 0 -204 76q-84 76 -84 184t84 184q85 76 204 76q94 0 171 -51q9 13 9 29v65zM317 338q-36 2 -62 -26t-26 -62t26 -62q28 -26 62 -26t61.5 26t25.5 62
q0 37 -25.5 62.5t-61.5 25.5zM283 728l123 -178h-174l-158 178h209z" />
    <glyph glyph-name="Ohornhookabove" unicode="&#x1ede;" horiz-adv-x="843" 
d="M427 1020q70 0 112 -33t42 -90q0 -32 -16 -55.5t-53 -51.5q-28 -22 -30 -39h-111q-2 29 3 46q4 17 15 28q15 16 45 39q21 19 12.5 34.5t-31.5 15.5q-34 0 -37 -27l-118 11q9 57 54.5 89.5t112.5 32.5zM683 740h198v-38q0 -60 -38.5 -107.5t-97.5 -62.5q52 -83 52 -182
q0 -98 -50.5 -181t-137.5 -131q-85 -48 -189 -48q-102 0 -189 48t-137 131t-50 181q-3 146 110.5 254.5t265.5 105.5q134 0 238 -80q25 16 25 45v65zM270 350q0 -66 42 -111t108 -45q68 0 108 45q42 45 42 111t-41.5 111t-108.5 45q-66 0 -108 -45t-42 -111z" />
    <glyph glyph-name="ohornhookabove" unicode="&#x1edf;" horiz-adv-x="636" 
d="M317 819q69 0 111.5 -33t42.5 -90q0 -32 -16 -55t-53 -51q-5 -5 -14.5 -12.5t-12.5 -12.5t-3 -15h-112q-1 26 4 46q5 23 19 33q4 4 20.5 17.5t19.5 16.5q16 12 16 24q0 26 -35 26q-32 0 -37 -27l-118 12q10 56 55 88.5t113 32.5zM497 553h198v-38q0 -54 -31.5 -98.5
t-81.5 -63.5q23 -51 23 -103q0 -108 -85 -184q-83 -76 -203 -76q-119 0 -204 76q-84 76 -84 184t84 184q85 76 204 76q95 0 171 -51q9 13 9 29v65zM316 338q-36 2 -62 -26t-26 -62t26 -62q28 -26 62 -26t61.5 26t25.5 62q0 37 -25.5 62.5t-61.5 25.5z" />
    <glyph glyph-name="Ohorntilde" unicode="&#x1ee0;" horiz-adv-x="843" 
d="M309 924q27 6 46.5 3t56.5 -17q67 -23 87 -22q25 2 33 33l75 -9q11 -62 -8 -103.5t-61 -52.5q-28 -6 -47 -3q-22 3 -57 16l-19 7q-42 15 -48 16q-10 2 -22 -1q-23 -6 -31 -32l-75 8q-10 62 9 104t61 53zM684 740h198v-38q0 -62 -39 -108q-38 -47 -97 -62q52 -83 52 -182
q0 -98 -50.5 -181t-137.5 -131q-86 -48 -189 -48q-102 0 -189 48t-137 131t-50 181q-3 146 110.5 254.5t266.5 105.5q133 0 237 -80q25 16 25 45v65zM422 194q66 0 108 45t42 111t-42 111t-109 45q-66 0 -108 -45q-41 -46 -41 -111t41 -111q42 -45 109 -45z" />
    <glyph glyph-name="ohorntilde" unicode="&#x1ee1;" horiz-adv-x="636" 
d="M205 724q27 6 46 3t58 -17q67 -23 87 -22q24 2 33 33l75 -9q10 -62 -9 -103.5t-61 -52.5q-27 -6 -46 -3q-22 3 -57 16l-19 7l-48 16q-11 2 -23 -1q-22 -6 -30 -32l-75 8q-11 61 8 103.5t61 53.5zM498 553h198v-38q0 -54 -31.5 -98.5t-81.5 -63.5q23 -51 23 -103
q0 -108 -85 -184q-83 -76 -203 -76q-119 0 -204 76q-84 76 -84 184t84 184q85 76 204 76q94 0 171 -51q9 13 9 29v65zM317 338q-36 2 -62 -26t-26 -62t26 -62q28 -26 62 -26t61.5 26t25.5 62q0 37 -25.5 62.5t-61.5 25.5z" />
    <glyph glyph-name="Ohorndotbelow" unicode="&#x1ee2;" horiz-adv-x="843" 
d="M684 740h198v-38q0 -62 -39 -108q-38 -47 -97 -62q52 -83 52 -182q0 -98 -50.5 -181t-137.5 -131q-86 -48 -189 -48q-102 0 -189 48t-137 131t-50 181q-3 146 110.5 254.5t266.5 105.5q133 0 237 -80q25 16 25 45v65zM272 350q0 -65 41 -111q42 -45 109 -45q43 0 78 21
t53 56q19 36 19 79t-19 78q-18 36 -53 57t-79 21q-66 0 -107.5 -45t-41.5 -111zM362 -109q24 24 59.5 24t58.5 -23q24 -24 24 -59.5t-24 -58.5q-23 -24 -58.5 -24t-59.5 24q-23 23 -23 58.5t23 58.5z" />
    <glyph glyph-name="ohorndotbelow" unicode="&#x1ee3;" horiz-adv-x="636" 
d="M498 553h198v-38q0 -54 -31.5 -98.5t-81.5 -63.5q23 -51 23 -103q0 -108 -85 -184q-83 -76 -203 -76q-119 0 -204 76q-84 76 -84 184t84 184q85 76 204 76q94 0 171 -51q9 13 9 29v65zM317 338q-36 2 -62 -26t-26 -62t26 -62q28 -26 62 -26t61.5 26t25.5 62
q0 37 -25.5 62.5t-61.5 25.5zM259 -109q24 24 59.5 24t58.5 -23q24 -24 24 -59.5t-24 -58.5q-23 -24 -58.5 -24t-59.5 24q-23 23 -23 58.5t23 58.5z" />
    <glyph glyph-name="Udotbelow" unicode="&#x1ee4;" horiz-adv-x="766" 
d="M494 700h217v-375q0 -168 -84 -251.5t-242 -83.5t-241.5 83.5t-83.5 251.5v375h218v-375q0 -136 108 -136t108 136v375zM326 -109q24 24 59.5 24t58.5 -24q24 -23 24 -58.5t-24 -59.5q-23 -23 -58.5 -23t-59.5 23q-23 24 -23 59.5t23 58.5z" />
    <glyph glyph-name="udotbelow" unicode="&#x1ee5;" horiz-adv-x="626" 
d="M585 500v-500h-203v49q-79 -59 -170 -59q-77 0 -125 41.5t-48 117.5v351h203v-289q0 -27 14.5 -42t39.5 -15q48 0 86 29v317h203zM256 -108q24 23 59.5 23t58.5 -23q24 -24 24 -59.5t-24 -58.5q-23 -24 -58.5 -24t-59.5 24q-23 23 -23 58.5t23 59.5z" />
    <glyph glyph-name="Uhookabove" unicode="&#x1ee6;" horiz-adv-x="766" 
d="M384 1020q70 0 112 -33t42 -90q0 -32 -16 -55.5t-53 -51.5q-23 -12 -30 -39h-111q-2 29 3 46q5 19 19 33q15 15 41 34q21 19 12.5 34.5t-31.5 15.5q-34 0 -37 -27l-118 11q9 57 54.5 89.5t112.5 32.5zM493 700h217v-375q0 -168 -84 -251.5t-242 -83.5t-241.5 83.5
t-83.5 251.5v375h218v-375q0 -136 108 -136t108 136v375z" />
    <glyph glyph-name="uhookabove" unicode="&#x1ee7;" horiz-adv-x="626" 
d="M315 819q69 0 111.5 -33t42.5 -90q0 -32 -16 -55t-53 -51q-5 -5 -14.5 -12.5t-12.5 -12.5t-3 -15h-112q-1 26 4 46q5 23 19 33q4 4 20.5 17.5t19.5 16.5q16 12 16 24q0 26 -35 26q-32 0 -37 -27l-118 12q10 56 55 88.5t113 32.5zM585 500v-500h-203v49q-79 -59 -170 -59
q-77 0 -125 41.5t-48 117.5v351h203v-289q0 -27 14.5 -42t39.5 -15q48 0 86 29v317h203z" />
    <glyph glyph-name="Uhornacute" unicode="&#x1ee8;" horiz-adv-x="766" 
d="M625 928l-158 -178h-174l124 178h208zM766 740h177v-38q0 -167 -232 -174v-203q0 -168 -84 -251.5t-242 -83.5t-241.5 83.5t-83.5 251.5v375h218v-375q0 -136 108 -136t108 136v375h217v-79q23 0 39 16t16 38v65z" />
    <glyph glyph-name="uhornacute" unicode="&#x1ee9;" horiz-adv-x="600" 
d="M631 553h156v-38q0 -85 -47 -126.5t-155 -47.5v-341h-203v49q-79 -59 -170 -59q-77 0 -125 41.5t-48 117.5v351h203v-289q0 -27 14.5 -42t39.5 -15q48 0 86 29v317h203v-66q20 4 33 19t13 35v65zM554 728l-158 -178h-174l123 178h209z" />
    <glyph glyph-name="Uhorngrave" unicode="&#x1eea;" horiz-adv-x="766" 
d="M350 928l124 -178h-174l-158 178h208zM766 740h177v-38q0 -167 -232 -174v-203q0 -168 -84 -251.5t-242 -83.5t-241.5 83.5t-83.5 251.5v375h218v-375q0 -136 108 -136t108 136v375h217v-79q23 0 39 16t16 38v65z" />
    <glyph glyph-name="uhorngrave" unicode="&#x1eeb;" horiz-adv-x="626" 
d="M280 728l124 -178h-174l-158 178h208zM632 553h156v-38q0 -84 -46.5 -126t-155.5 -48v-341h-203v49q-79 -59 -170 -59q-77 0 -125 41.5t-48 117.5v351h203v-289q0 -27 14.5 -42t39.5 -15q48 0 86 29v317h203v-66q20 4 33 19t13 35v65z" />
    <glyph glyph-name="Uhornhookabove" unicode="&#x1eec;" horiz-adv-x="766" 
d="M385 1020q70 0 112 -33t42 -90q0 -32 -16 -55.5t-53 -51.5q-23 -12 -30 -39h-111q-2 29 3 46q5 19 19 33q15 15 41 34q21 19 12.5 34.5t-31.5 15.5q-34 0 -37 -27l-118 11q9 57 54.5 89.5t112.5 32.5zM766 740h177v-38q0 -167 -232 -174v-203q0 -168 -84 -251.5
t-242 -83.5t-241.5 83.5t-83.5 251.5v375h218v-375q0 -136 108 -136t108 136v375h217v-79q23 0 39 16t16 38v65z" />
    <glyph glyph-name="uhornhookabove" unicode="&#x1eed;" horiz-adv-x="626" 
d="M315 819q69 0 111.5 -33t42.5 -90q0 -32 -16 -55t-53 -51q-5 -5 -14.5 -12.5t-12.5 -12.5t-3 -15h-112q-1 26 4 46q5 23 19 33q4 4 20.5 17.5t19.5 16.5q16 12 16 24q0 26 -35 26q-32 0 -37 -27l-118 12q10 56 55 88.5t113 32.5zM631 553h156v-38q0 -85 -47 -126.5
t-155 -47.5v-341h-203v49q-79 -59 -170 -59q-77 0 -125 41.5t-48 117.5v351h203v-289q0 -27 14.5 -42t39.5 -15q48 0 86 29v317h203v-66q20 4 33 19t13 35v65z" />
    <glyph glyph-name="Uhorntilde" unicode="&#x1eee;" horiz-adv-x="766" 
d="M273 924q27 6 46 3t58 -17q67 -23 86 -22q25 1 34 33l75 -9q10 -62 -9 -103.5t-61 -52.5q-27 -6 -46 -3q-22 3 -57 16l-20 7q-42 15 -48 16q-10 2 -22 -1q-22 -6 -30 -32l-75 8q-11 62 8 104t61 53zM766 740h177v-38q0 -167 -232 -174v-203q0 -168 -84 -251.5t-242 -83.5
t-241.5 83.5t-83.5 251.5v375h218v-375q0 -136 108 -136t108 136v375h217v-79q23 0 39 16t16 38v65z" />
    <glyph glyph-name="uhorntilde" unicode="&#x1eef;" horiz-adv-x="626" 
d="M203 724q27 6 46.5 3t56.5 -17q67 -23 87 -22q25 2 33 33l75 -9q11 -62 -8 -103.5t-61 -52.5q-28 -6 -47 -3q-22 3 -57 16l-19 7q-42 15 -48 16q-10 2 -22 -1q-23 -6 -31 -32l-75 8q-10 62 9 104t61 53zM632 553h156v-38q0 -85 -47 -126.5t-155 -47.5v-341h-203v49
q-79 -59 -170 -59q-77 0 -125 41.5t-48 117.5v351h203v-289q0 -27 14.5 -42t39.5 -15q48 0 86 29v317h203v-66q20 4 33 19t13 35v65z" />
    <glyph glyph-name="Uhorndotbelow" unicode="&#x1ef0;" horiz-adv-x="766" 
d="M766 740h177v-38q0 -167 -232 -174v-203q0 -168 -84 -251.5t-242 -83.5t-241.5 83.5t-83.5 251.5v375h218v-375q0 -136 108 -136t108 136v375h217v-79q23 0 39 16t16 38v65zM326 -109q24 24 59.5 24t58.5 -23q24 -24 24 -59.5t-24 -58.5q-23 -24 -58.5 -24t-59.5 24
q-23 23 -23 58.5t23 58.5z" />
    <glyph glyph-name="uhorndotbelow" unicode="&#x1ef1;" horiz-adv-x="626" 
d="M631 553h156v-38q0 -85 -47 -126.5t-155 -47.5v-341h-203v49q-79 -59 -170 -59q-77 0 -125 41.5t-48 117.5v351h203v-289q0 -27 14.5 -42t39.5 -15q48 0 86 29v317h203v-66q20 4 33 19t13 35v65zM256 -109q24 24 59.5 24t58.5 -23q24 -24 24 -59.5t-24 -58.5
q-23 -24 -58.5 -24t-59.5 24q-23 23 -23 58.5t23 58.5z" />
    <glyph glyph-name="Ygrave" unicode="&#x1ef2;" horiz-adv-x="802" 
d="M782 700l-272 -463v-237h-218v234l-272 466h260l122 -233l123 233h257zM366 928l123 -178h-174l-158 178h209z" />
    <glyph glyph-name="ygrave" unicode="&#x1ef3;" horiz-adv-x="625" 
d="M291 728l123 -178h-174l-158 178h209zM240 500l86 -262l79 262h211l-203 -544q-60 -161 -218 -161q-74 -1 -185 40l56 132q69 -27 109 -22q36 4 59 36l3 4l-211 515h214z" />
    <glyph glyph-name="Ydotbelow" unicode="&#x1ef4;" horiz-adv-x="802" 
d="M782 700l-272 -463v-237h-218v234l-272 466h260l122 -233l123 233h257zM342 -108q24 23 59 23t59 -23q24 -24 24 -59.5t-24 -58.5q-24 -24 -59 -24t-59 24q-24 23 -24 58.5t24 59.5z" />
    <glyph glyph-name="ydotbelow" unicode="&#x1ef5;" horiz-adv-x="625" 
d="M240 500l86 -262l79 262h211l-203 -544q-60 -161 -218 -161q-74 -1 -185 40l56 132q69 -27 109 -22q36 4 59 36l3 4l-211 515h214zM580 -167q0 -36 -23.5 -59.5t-59.5 -23.5q-53 -4 -75 51t16 91q36 38 91 16t51 -75z" />
    <glyph glyph-name="Yhookabove" unicode="&#x1ef6;" horiz-adv-x="802" 
d="M399 1020q70 0 112 -33t42 -90q0 -32 -16 -55.5t-53 -51.5q-23 -12 -30 -39h-111q-2 29 3 46q3 11 9 20t10.5 13.5t19 16t21.5 17.5q21 19 12.5 34.5t-31.5 15.5q-34 0 -37 -27l-118 11q9 57 54.5 89.5t112.5 32.5zM781 700l-272 -463v-237h-218v234l-272 466h260
l122 -233l123 233h257z" />
    <glyph glyph-name="yhookabove" unicode="&#x1ef7;" horiz-adv-x="625" 
d="M324 819q70 0 112 -33t42 -90q0 -32 -16 -55t-53 -51q-4 -4 -14 -12t-13 -13.5t-3 -14.5h-112q-1 26 4 46q5 23 19 33q4 4 20.5 17.5t19.5 16.5q16 12 16 24q0 26 -35 26q-33 0 -37 -27l-118 12q10 56 55 88.5t113 32.5zM239 500l86 -262l79 262h211l-203 -544
q-60 -161 -218 -161q-74 -1 -185 40l56 132q69 -27 109 -22q36 4 59 36l3 4l-211 515h214z" />
    <glyph glyph-name="Ytilde" unicode="&#x1ef8;" horiz-adv-x="802" 
d="M288 924q27 6 46 3t58 -17q67 -23 86 -22q25 1 34 33l75 -9q10 -62 -9 -103.5t-61 -52.5q-27 -6 -46 -3q-22 3 -57 16l-19 7l-48 16q-11 2 -23 -1q-22 -6 -30 -32l-75 8q-11 61 8 103.5t61 53.5zM782 700l-272 -463v-237h-218v234l-272 466h260l122 -233l123 233h257z
" />
    <glyph glyph-name="ytilde" unicode="&#x1ef9;" horiz-adv-x="625" 
d="M213 724q27 6 46 3t58 -17q67 -23 86 -22q25 1 34 33l75 -9q10 -62 -9 -103.5t-61 -52.5q-27 -6 -46 -3q-22 3 -57 16l-19 7l-48 16q-11 2 -23 -1q-22 -6 -30 -32l-75 8q-11 61 8 103.5t61 53.5zM240 500l86 -262l79 262h211l-203 -544q-60 -161 -218 -161
q-74 -1 -185 40l56 132q69 -27 109 -22q36 4 59 36l3 4l-211 515h214z" />
    <glyph glyph-name="endash" unicode="&#x2013;" horiz-adv-x="514" 
d="M484 344v-169h-454v169h454z" />
    <glyph glyph-name="emdash" unicode="&#x2014;" horiz-adv-x="683" 
d="M653 344v-168h-623v168h623z" />
    <glyph glyph-name="quoteleft" unicode="&#x2018;" horiz-adv-x="262" 
d="M184 820l57 -26l-58 -142q26 -11 42.5 -33.5t16.5 -47.5q0 -38 -31.5 -64.5t-75.5 -26.5t-75 26.5t-31 64.5q0 25 16 47z" />
    <glyph glyph-name="quoteright" unicode="&#x2019;" horiz-adv-x="262" 
d="M232 729q0 -27 -16 -47l-139 -202l-57 25l58 143q-27 11 -43 32.5t-16 48.5q0 38 31 64.5t75 26.5t75.5 -26.5t31.5 -64.5z" />
    <glyph glyph-name="quotesinglbase" unicode="&#x201a;" horiz-adv-x="262" 
d="M232 80q0 -23 -14 -45l-141 -205l-57 26l58 143q-59 25 -59 81q0 38 31 64.5t75 26.5t75.5 -26.5t31.5 -64.5z" />
    <glyph glyph-name="quotedblleft" unicode="&#x201c;" horiz-adv-x="525" 
d="M184 820l57 -26l-58 -142q26 -11 42.5 -33.5t16.5 -47.5q0 -38 -31.5 -64.5t-75.5 -26.5t-75 26.5t-31 64.5q0 25 16 47zM446 820l58 -26l-58 -142q27 -11 43 -33t16 -48q0 -38 -31.5 -64.5t-75.5 -26.5t-75 26.5t-31 64.5q0 25 15 47z" />
    <glyph glyph-name="quotedblright" unicode="&#x201d;" horiz-adv-x="525" 
d="M494 729q0 -26 -15 -47l-139 -202l-58 25l59 143q-59 25 -59 81q0 38 31 64.5t75 26.5t75 -26.5t31 -64.5zM125 820q44 0 75.5 -26.5t31.5 -64.5q0 -27 -16 -47l-139 -202l-57 25l58 143q-59 25 -59 81q0 38 31 64.5t75 26.5z" />
    <glyph glyph-name="quotedblbase" unicode="&#x201e;" horiz-adv-x="525" 
d="M232 80q0 -23 -14 -45l-141 -205l-57 26l58 143q-59 25 -59 81q0 38 31 64.5t75 26.5t75.5 -26.5t31.5 -64.5zM388 171q44 0 75 -26.5t31 -64.5q0 -23 -14 -45l-140 -205l-58 26l59 143q-59 25 -59 81q0 38 31 64.5t75 26.5z" />
    <glyph glyph-name="dagger" unicode="&#x2020;" horiz-adv-x="534" 
d="M352 710v-181h153v-153h-153v-529h-170v529h-152v153h152v181h170z" />
    <glyph glyph-name="daggerdbl" unicode="&#x2021;" horiz-adv-x="534" 
d="M352 710v-181h153v-153h-153v-195h153v-153h-153v-181h-170v181h-152v153h152v195h-152v153h152v181h170z" />
    <glyph glyph-name="bullet" unicode="&#x2022;" horiz-adv-x="437" 
d="M85 442q56 56 133 56q78 0 134 -56q55 -55 55 -133q0 -79 -55 -134t-134 -55q-78 0 -133 55t-55 134q0 78 55 133z" />
    <glyph glyph-name="ellipsis" unicode="&#x2026;" horiz-adv-x="871" 
d="M135 171q44 0 75.5 -26.5t31.5 -64.5q2 -28 -18 -51t-48.5 -33t-61 -6t-54.5 25q-24 19 -29 47.5t6.5 52.5t38 41t59.5 15zM435 171q33 2 59.5 -15t38 -41t6.5 -52.5t-29 -47.5q-22 -21 -54.5 -25t-61 6t-48.5 33t-18 51q0 38 31.5 64.5t75.5 26.5zM734 171
q33 2 59.5 -15t38 -41t6.5 -52.5t-29 -47.5q-22 -21 -54.5 -25t-61 6t-48.5 33t-18 51q0 38 31.5 64.5t75.5 26.5z" />
    <glyph glyph-name="perthousand" unicode="&#x2030;" horiz-adv-x="1361" 
d="M832 717l-538 -734h-179l537 734h180zM208 710q87 0 137 -54t50 -147q0 -92 -50 -147t-137 -55t-137.5 54.5t-50.5 147.5q0 92 50 146.5t138 54.5zM242 566q-13 22 -34.5 22t-34.5 -22q-13 -20 -13 -58q0 -36 13 -58q13 -21 34.5 -21t34.5 21q13 22 13 58q0 38 -13 58z
M739 -9q-87 0 -137.5 55t-50.5 146q0 92 50 147q49 55 138 55t138 -55q50 -55 50 -147q0 -93 -50.5 -147t-137.5 -54zM1154 -9q-88 0 -138 54.5t-50 146.5t50 147q49 55 137 55q89 0 138 -55q50 -55 50 -147q0 -93 -50 -147t-137 -54zM691 192q0 -36 13.5 -57.5t34.5 -21.5
t34.5 21.5t13.5 57.5t-13.5 58t-34.5 22t-34.5 -22t-13.5 -58zM1154 272q-21 0 -34.5 -22t-13.5 -58t13 -57.5t35 -21.5q21 0 34 21.5t13 57.5t-13 58t-34 22z" />
    <glyph glyph-name="guilsinglleft" unicode="&#x2039;" horiz-adv-x="392" 
d="M223 510l150 -77l-129 -168l129 -168l-152 -75l-191 243z" />
    <glyph glyph-name="guilsinglright" unicode="&#x203a;" horiz-adv-x="392" 
d="M170 510l193 -245l-192 -243l-151 75l129 168l-129 168z" />
    <glyph glyph-name="fraction" unicode="&#x2044;" horiz-adv-x="689" 
d="M659 717l-463 -734h-167l462 734h168z" />
    <glyph glyph-name="zerosuperior" unicode="&#x2070;" horiz-adv-x="373" 
d="M60 695q46 51 126 51t127 -51q47 -52 47 -133t-47 -133q-47 -51 -127 -51t-126 51q-47 52 -47 133t47 133zM225 562q0 69 -39 69q-38 0 -38 -69t38 -69q39 0 39 69z" />
    <glyph glyph-name="foursuperior" unicode="&#x2074;" horiz-adv-x="362" 
d="M314 740v-201h40v-99h-41v-58h-126v58h-163l-16 95l162 205h144zM187 613l-51 -74h51v74z" />
    <glyph glyph-name="fivesuperior" unicode="&#x2075;" horiz-adv-x="339" 
d="M310 740v-93h-147l-1 -27q18 2 28 2q58 0 96.5 -29.5t38.5 -89.5q0 -58 -44 -93q-43 -33 -104 -33q-47 0 -93 20t-75 54l62 70q34 -40 83 -40q38 0 38 33q0 12 -10 19.5t-25 7.5q-26 1 -42 -19l-83 42l11 176h267z" />
    <glyph glyph-name="sixsuperior" unicode="&#x2076;" horiz-adv-x="333" 
d="M182 746q74 0 131 -42l-56 -85q-31 23 -61 23q-37 0 -45 -41l-1 -2q26 9 55 9q57 0 88.5 -31t31.5 -72q0 -49 -41 -88q-40 -39 -108 -39q-49 0 -83 17t-50.5 45t-23.5 56t-7 58q0 89 44.5 141t125.5 51zM175 540q-31 0 -36 -29q4 -40 36 -40q13 0 23 10t10 24t-10 24.5
t-23 10.5z" />
    <glyph glyph-name="sevensuperior" unicode="&#x2077;" horiz-adv-x="313" 
d="M308 740v-96l-147 -262h-149l142 246h-144v112h298z" />
    <glyph glyph-name="eightsuperior" unicode="&#x2078;" horiz-adv-x="344" 
d="M319 644q0 -45 -40 -73q51 -31 51 -84q0 -46 -45.5 -77.5t-113.5 -31.5q-70 0 -114 31q-45 31 -45 78q0 53 51 84q-40 28 -40 73q0 44 43 72q44 30 105 30t105 -30q43 -28 43 -72zM138 628q0 -18 16 -26t32.5 0t16.5 26q0 11 -10 20t-23 9q-12 0 -22 -9t-10 -20zM171 530
q-15 0 -25 -9t-10 -22q0 -12 10.5 -21.5t24.5 -9.5t24.5 9.5t10.5 21.5q0 13 -10 22t-25 9z" />
    <glyph glyph-name="ninesuperior" unicode="&#x2079;" horiz-adv-x="333" 
d="M157 746q49 0 83.5 -17t51 -45.5t23 -56t6.5 -57.5q0 -90 -44.5 -141.5t-124.5 -50.5q-75 0 -131 41l55 86q31 -23 62 -23q38 0 45 40v3q-25 -9 -55 -9q-55 0 -87.5 29.5t-32.5 73.5q0 49 40 88t109 39zM158 653q-13 0 -23 -10.5t-10 -23.5q0 -15 10.5 -25t22.5 -10
q14 0 24.5 8t11.5 21q-4 40 -36 40z" />
    <glyph glyph-name="zeroinferior" unicode="&#x2080;" horiz-adv-x="373" 
d="M60 171q46 51 126 51t127 -51q47 -52 47 -133t-47 -133q-47 -51 -127 -51t-126 51q-47 52 -47 133t47 133zM225 38q0 69 -39 69q-38 0 -38 -69t38 -69q39 0 39 69z" />
    <glyph glyph-name="oneinferior" unicode="&#x2081;" horiz-adv-x="234" 
d="M217 218v-358h-133v241l-55 -12l-24 99l112 30h100z" />
    <glyph glyph-name="twoinferior" unicode="&#x2082;" horiz-adv-x="328" 
d="M169 223q60 0 103 -33.5t43 -91.5q0 -32 -18.5 -59t-61.5 -61l-15 -11h99v-107h-310v94l152 110q18 14 18 27q0 18 -20 18q-33 0 -69 -42l-83 71q24 40 69.5 62.5t92.5 22.5z" />
    <glyph glyph-name="threeinferior" unicode="&#x2083;" horiz-adv-x="336" 
d="M314 217v-90l-63 -50l10 -5q29 -12 45.5 -36t16.5 -54q0 -57 -42 -92.5t-109 -35.5q-85 0 -164 62l73 75q36 -32 75 -31q33 0 33 27q0 21 -32 21q-16 0 -50 -8l-19 66l67 45h-119v106h278z" />
    <glyph glyph-name="fourinferior" unicode="&#x2084;" horiz-adv-x="362" 
d="M314 218v-201h40v-99h-41v-58h-126v58h-163l-16 95l162 205h144zM187 91l-51 -74h51v74z" />
    <glyph glyph-name="fiveinferior" unicode="&#x2085;" horiz-adv-x="339" 
d="M310 217v-93h-147l-1 -27q18 2 28 2q58 0 96.5 -29.5t38.5 -89.5q0 -59 -44 -92q-43 -34 -104 -34q-47 0 -93 20t-75 54l62 70q34 -40 83 -40q38 0 38 33q0 12 -10 19.5t-25 7.5q-26 1 -42 -19l-83 42l11 176h267z" />
    <glyph glyph-name="sixinferior" unicode="&#x2086;" horiz-adv-x="333" 
d="M182 222q73 0 131 -41l-56 -86q-31 23 -61 23q-38 0 -45 -40l-1 -3q26 9 55 9q55 0 88 -30t32 -73q0 -49 -41 -88q-40 -39 -108 -39q-49 0 -83 17t-50.5 45t-23.5 56t-7 58q0 90 44.5 141.5t125.5 50.5zM175 16q-31 0 -36 -29q4 -40 36 -40q20 0 28 17t0 34.5t-28 17.5z
" />
    <glyph glyph-name="seveninferior" unicode="&#x2087;" horiz-adv-x="313" 
d="M308 218v-96l-147 -262h-149l142 246h-144v112h298z" />
    <glyph glyph-name="eightinferior" unicode="&#x2088;" horiz-adv-x="344" 
d="M172 222q62 0 105 -30q43 -28 43 -72q0 -45 -40 -73q51 -31 51 -84q0 -46 -45.5 -77.5t-113.5 -31.5t-113.5 31.5t-45.5 77.5q0 53 51 84q-40 28 -40 73q0 43 43 72.5t105 29.5zM139 104q0 -18 16.5 -26t32.5 0t16 26q0 11 -10 20t-23 9q-12 0 -22 -9t-10 -20zM137 -25
q0 -12 10.5 -21.5t24.5 -9.5t24.5 9.5t10.5 21.5q0 19 -17.5 26.5t-35 0t-17.5 -26.5z" />
    <glyph glyph-name="nineinferior" unicode="&#x2089;" horiz-adv-x="333" 
d="M157 222q49 0 83.5 -17t51 -45t23 -55.5t6.5 -58.5q0 -89 -44.5 -141t-124.5 -51q-76 0 -131 42l55 85q31 -23 62 -23q37 0 45 41v2q-25 -9 -55 -9q-55 0 -87.5 30t-32.5 73q0 49 40 88q41 39 109 39zM158 129q-13 0 -23 -10t-10 -24t10 -24.5t23 -10.5q14 0 24.5 8
t11.5 21q-4 40 -36 40z" />
    <glyph glyph-name="Euro" unicode="&#x20ac;" horiz-adv-x="701" 
d="M439 178q46 0 78 31l154 -94q-100 -125 -254 -125q-108 0 -197 68q-86 68 -121 177h-74v101h57v14v19h-57v101h76q34 104 121 173q86 67 195 67q154 0 254 -125l-154 -94q-32 31 -78 31q-59 0 -96 -52h111v-101h-145l-1 -19q0 -9 1 -14h145v-101h-114q38 -57 99 -57z" />
    <glyph glyph-name="trademark" unicode="&#x2122;" horiz-adv-x="923" 
d="M369 700v-116h-107v-286h-135v286h-107v116h349zM893 700v-402h-132v209l-92 -154h-48l-91 154v-209h-133v402h169l79 -130l79 130h169z" />
    <glyph glyph-name="oneeighth" unicode="&#x215b;" horiz-adv-x="759" 
d="M659 717l-463 -734h-161l462 734h162zM217 700v-358h-133v241l-55 -12l-24 98l112 31h100zM735 260q0 -45 -40 -73q51 -31 51 -84q0 -47 -46 -78q-44 -31 -114 -31q-69 0 -113 31q-45 31 -45 78q0 52 50 84q-39 28 -39 73q0 44 43 72q44 30 105 30t105 -30q43 -28 43 -72
zM587 273q-13 0 -23 -9t-10 -20q0 -18 16 -26t32.5 0t16.5 26q0 11 -10 20t-22 9zM551 115q0 -12 10.5 -21.5t24.5 -9.5q15 0 25.5 9.5t10.5 21.5q0 19 -18 26.5t-35.5 0t-17.5 -26.5z" />
    <glyph glyph-name="threeeighths" unicode="&#x215c;" horiz-adv-x="811" 
d="M714 717l-462 -734h-162l463 734h161zM314 700v-90l-63 -50l10 -5q62 -27 62 -90q0 -57 -42 -92.5t-109 -35.5q-85 0 -164 62l73 75q36 -32 75 -31q33 0 33 27q0 21 -32 21q-16 0 -50 -8l-19 66l67 45h-119v106h278zM787 260q0 -45 -40 -73q51 -31 51 -84q0 -47 -46 -78
q-44 -31 -114 -31q-69 0 -113 31q-45 31 -45 78q0 53 51 84q-40 28 -40 73q0 44 43 72q44 30 105 30t105 -30q43 -28 43 -72zM606 244q0 -12 10 -21t23 -9q12 0 22 9t10 21q0 11 -10 20t-23 9q-12 0 -22 -9t-10 -20zM603 115q0 -12 11 -21.5t25 -9.5t24.5 9.5t10.5 21.5
q0 19 -18 26.5t-35.5 0t-17.5 -26.5z" />
    <glyph glyph-name="fiveeighths" unicode="&#x215d;" horiz-adv-x="809" 
d="M711 717l-462 -734h-161l462 734h161zM310 700v-93h-147l-1 -27q18 2 28 2q60 0 97.5 -30.5t37.5 -88.5t-44 -93q-43 -33 -104 -33q-47 0 -93 20t-75 54l62 70q34 -40 83 -40q38 0 38 33q0 12 -10 19.5t-25 7.5q-26 1 -42 -19l-83 42l11 176h267zM784 260q0 -44 -39 -73
q50 -32 50 -84q0 -47 -45 -78q-44 -31 -114 -31q-69 0 -113 31q-45 31 -45 78q0 52 50 84q-39 28 -39 73q0 44 42 72q43 30 105 30q63 0 105 -30q43 -28 43 -72zM604 244q0 -13 9.5 -21.5t22.5 -8.5q14 0 23.5 8.5t9.5 21.5q0 11 -10 20t-23 9q-12 0 -22 -9t-10 -20z
M601 115q0 -12 10.5 -21.5t24.5 -9.5q15 0 25.5 9.5t10.5 21.5q0 19 -18 26.5t-35.5 0t-17.5 -26.5z" />
    <glyph glyph-name="seveneighths" unicode="&#x215e;" horiz-adv-x="730" 
d="M634 717l-463 -734h-161l462 734h162zM309 700v-96l-147 -262h-149l142 246h-144v112h298zM706 260q0 -44 -39 -73q50 -32 50 -84q0 -47 -45 -78q-44 -31 -114 -31q-69 0 -113 31q-45 31 -45 78q0 52 50 84q-39 28 -39 73q0 44 43 72q44 30 105 30q62 0 104 -30
q43 -28 43 -72zM559 273q-13 0 -23 -9t-10 -20q0 -18 16 -26t32.5 0t16.5 26q0 11 -10 20t-22 9zM559 146q-15 0 -25.5 -9t-10.5 -22q0 -12 10.5 -21.5t24.5 -9.5q15 0 25.5 9.5t10.5 21.5q0 13 -10.5 22t-24.5 9z" />
    <glyph glyph-name="partialdiff" unicode="&#x2202;" horiz-adv-x="700" 
 />
    <glyph glyph-name="emptyset" unicode="&#x2205;" horiz-adv-x="700" 
 />
    <glyph glyph-name="product" unicode="&#x220f;" horiz-adv-x="700" 
 />
    <glyph glyph-name="summation" unicode="&#x2211;" horiz-adv-x="700" 
 />
    <glyph glyph-name="minus" unicode="&#x2212;" horiz-adv-x="570" 
d="M540 372v-154h-510v154h510z" />
    <glyph glyph-name="radical" unicode="&#x221a;" horiz-adv-x="700" 
 />
    <glyph glyph-name="infinity" unicode="&#x221e;" horiz-adv-x="700" 
 />
    <glyph glyph-name="integral" unicode="&#x222b;" horiz-adv-x="700" 
 />
    <glyph glyph-name="approxequal" unicode="&#x2248;" horiz-adv-x="544" 
d="M137 495q36 7 60 3q22 -3 74 -20l16 -6q53 -19 68 -22t32 1q30 7 39 40l96 -11q14 -77 -10.5 -129.5t-78.5 -66.5q-34 -7 -61 -4q-23 4 -73 21l-15 6q-50 18 -70 22q-14 3 -31 -1q-30 -7 -39 -40l-96 11q-14 77 10.5 129.5t78.5 66.5zM137 249q36 7 60 3q22 -3 74 -20
l16 -6q53 -19 68 -22t32 1q30 7 39 40l96 -11q14 -77 -10.5 -129t-78.5 -67q-34 -7 -61 -4q-23 4 -73 21l-16 5q-59 21 -69 23q-14 3 -31 -1q-30 -7 -39 -40l-96 10q-14 77 10 129.5t79 67.5z" />
    <glyph glyph-name="notequal" unicode="&#x2260;" horiz-adv-x="550" 
d="M530 321h-149l-33 -69h182v-155h-256l-55 -117h-179l55 117h-75v155h149l33 69h-182v155h256l55 117h179l-55 -117h75v-155z" />
    <glyph glyph-name="lessequal" unicode="&#x2264;" horiz-adv-x="570" 
d="M540 621v-184l-275 -82l275 -82v-184l-510 184v164zM540 59v-155h-510v155h510z" />
    <glyph glyph-name="greaterequal" unicode="&#x2265;" horiz-adv-x="570" 
d="M30 621l510 -184v-164l-510 -184v184l275 82l-275 82v184zM540 59v-155h-510v155h510z" />
    <glyph glyph-name="lozenge" unicode="&#x25ca;" horiz-adv-x="600" 
 />
    <glyph glyph-name="NULL" horiz-adv-x="0" 
 />
    <glyph glyph-name="CR" horiz-adv-x="333" 
 />
    <glyph glyph-name="A.sc" horiz-adv-x="644" 
d="M443 500l191 -500h-225l-21 76h-132l-21 -76h-225l192 500h241zM322 313l-27 -99h55z" />
    <glyph glyph-name="AE.sc" horiz-adv-x="793" 
d="M202 500h571v-152h-250v-29h233v-132h-233v-36h253v-151h-454v76h-66l-21 -76h-225zM322 313l-27 -99h27v99z" />
    <glyph glyph-name="Aacute.sc" horiz-adv-x="644" 
d="M563 728l-159 -178h-173l123 178h209zM443 500l191 -500h-225l-21 76h-132l-21 -76h-225l192 500h241zM322 313l-27 -99h55z" />
    <glyph glyph-name="Abreve.sc" horiz-adv-x="644" 
d="M393 734h133q0 -76 -58 -125t-142 -49q-85 0 -143 49t-58 125h133q0 -24 19 -38.5t49 -14.5q29 0 48 14t19 39zM442 500l191 -500h-225l-21 76h-132l-21 -76h-225l192 500h241zM321 313l-27 -99h55z" />
    <glyph glyph-name="Acaron.sc" horiz-adv-x="644" 
d="M551 728l-124 -178h-211l-124 178h168l61 -74l62 74h168zM442 500l191 -500h-225l-21 76h-132l-21 -76h-225l192 500h241zM321 313l-27 -99h55z" />
    <glyph glyph-name="Acircumflex.sc" horiz-adv-x="644" 
d="M428 728l123 -178h-167l-62 74l-62 -74h-167l123 178h212zM442 500l191 -500h-225l-21 76h-132l-21 -76h-225l192 500h241zM321 313l-27 -99h55z" />
    <glyph glyph-name="Acircumflexdotbelow.sc" horiz-adv-x="644" 
d="M428 728l123 -178h-167l-62 74l-62 -74h-167l123 178h212zM442 500l191 -500h-225l-21 76h-132l-21 -76h-225l192 500h241zM321 313l-27 -99h55zM262 -108q24 23 59 23t59 -23q24 -24 24 -59.5t-24 -58.5q-24 -24 -59 -24t-59 24q-24 23 -24 58.5t24 59.5z" />
    <glyph glyph-name="Adieresis.sc" horiz-adv-x="644" 
d="M442 500l191 -500h-225l-21 76h-132l-21 -76h-225l192 500h241zM321 313l-27 -99h55zM160 706q24 24 59.5 24t58.5 -24q24 -23 24 -58.5t-24 -59.5q-23 -23 -58.5 -23t-59.5 23q-23 24 -23 59.5t23 58.5zM365 706q24 24 59.5 24t58.5 -24q24 -23 24 -58.5t-24 -59.5
q-23 -23 -58.5 -23t-59.5 23q-23 24 -23 59.5t23 58.5z" />
    <glyph glyph-name="Adieresismacron.sc" horiz-adv-x="687" 
d="M522 875v-125h-361v125h361zM180 706q24 24 59.5 24t58.5 -24q24 -23 24 -58.5t-24 -59.5q-23 -23 -58.5 -23t-59.5 23q-23 24 -23 59.5t23 58.5zM385 706q24 24 59.5 24t58.5 -24q24 -23 24 -58.5t-24 -59.5q-23 -23 -58.5 -23t-59.5 23q-23 24 -23 59.5t23 58.5z
M462 500l191 -500h-225l-21 76h-132l-21 -76h-225l192 500h241zM341 313l-27 -99h55z" />
    <glyph glyph-name="Agrave.sc" horiz-adv-x="644" 
d="M442 500l191 -500h-225l-21 76h-132l-21 -76h-225l192 500h241zM321 313l-27 -99h55zM287 728l123 -178h-174l-158 178h209z" />
    <glyph glyph-name="Amacron.sc" horiz-adv-x="644" 
d="M443 500l191 -500h-225l-21 76h-132l-21 -76h-225l192 500h241zM322 313l-27 -99h55zM503 710v-125h-361v125h361z" />
    <glyph glyph-name="Aogonek.sc" horiz-adv-x="687" 
d="M463 500l191 -500h-115l-5 -7q-32 -45 -21 -72q7 -21 38 -26q15 -3 36 2l23 -91q-42 -16 -98 -16q-88 0 -117 48q-31 57 27 151l7 11l-21 76h-132l-21 -76h-225l192 500h241zM342 313l-27 -99h55z" />
    <glyph glyph-name="Aring.sc" horiz-adv-x="644" 
d="M222 744q43 41 101 41t101 -41q42 -40 42 -99t-42 -99q-43 -41 -101 -41t-101 41q-42 40 -42 99t42 99zM357 678q-14 14 -34 14t-34 -14q-14 -13 -14 -33t14 -34q14 -13 34 -13t34 13q14 14 14 34t-14 33zM443 500l191 -500h-225l-21 76h-132l-21 -76h-225l192 500h241z
M322 313l-27 -99h55z" />
    <glyph glyph-name="Atilde.sc" horiz-adv-x="644" 
d="M210 724q27 6 46 3t58 -17q67 -23 86 -22q25 1 34 33l75 -9q10 -62 -9 -103.5t-61 -52.5q-27 -6 -46 -3q-22 3 -57 16l-19 7l-48 16q-11 2 -23 -1q-22 -6 -30 -32l-75 8q-11 61 8 103.5t61 53.5zM443 500l191 -500h-225l-21 76h-132l-21 -76h-225l192 500h241zM322 313
l-27 -99h55z" />
    <glyph glyph-name="B.sc" horiz-adv-x="543" 
d="M35 0v500h296q81 0 129 -36t48 -98q0 -66 -54 -103q72 -39 72 -119q0 -59 -44.5 -101.5t-140.5 -42.5h-306zM236 356v-44h44q27 0 27 22t-27 22h-44zM236 193v-49h56q29 0 29 24q0 25 -29 25h-56z" />
    <glyph glyph-name="Bdotbelow.sc" horiz-adv-x="543" 
d="M35 0v500h296q81 0 129 -36t48 -98q0 -66 -54 -103q72 -39 72 -119q0 -59 -44.5 -101.5t-140.5 -42.5h-306zM236 356v-44h44q27 0 27 22t-27 22h-44zM236 193v-49h56q29 0 29 24q0 25 -29 25h-56zM203 -109q24 24 59.5 24t58.5 -23q24 -24 24 -59.5t-24 -58.5
q-23 -24 -58.5 -24t-59.5 24q-23 23 -23 58.5t23 58.5z" />
    <glyph glyph-name="C.sc" horiz-adv-x="551" 
d="M300 510q74 0 138 -36q65 -35 98 -89l-165 -93q-16 29 -31 40t-39 11q-33 0 -53.5 -26t-20.5 -67t20.5 -67t53.5 -26q24 0 39 11t31 40l165 -93q-34 -54 -98 -89.5t-138 -35.5q-114 0 -197 77q-83 78 -83 183t83 182q83 78 197 78z" />
    <glyph glyph-name="Cacute.sc" horiz-adv-x="551" 
d="M527 728l-158 -178h-174l124 178h208zM300 510q74 0 138 -36q65 -35 98 -89l-165 -93q-16 29 -31 40t-39 11q-33 0 -53.5 -26t-20.5 -67t20.5 -67t53.5 -26q24 0 39 11t31 40l165 -93q-34 -54 -98 -89.5t-138 -35.5q-114 0 -197 77q-83 78 -83 183t83 182q83 78 197 78z
" />
    <glyph glyph-name="Ccaron.sc" horiz-adv-x="551" 
d="M516 728l-123 -178h-212l-123 178h167l62 -74l62 74h167zM300 510q74 0 138 -36q65 -35 98 -89l-165 -93q-16 29 -31 40t-39 11q-33 0 -53.5 -26t-20.5 -67t20.5 -67t53.5 -26q24 0 39 11t31 40l165 -93q-33 -54 -98 -90q-65 -35 -138 -35q-114 0 -197 77q-83 78 -83 183
t83 182q83 78 197 78z" />
    <glyph glyph-name="Ccedilla.sc" horiz-adv-x="551" 
d="M300 510q74 0 138 -36q65 -35 98 -89l-165 -93q-16 29 -31 40t-39 11q-33 0 -53.5 -26t-20.5 -67t20.5 -67t53.5 -26q23 0 38 11t32 40l165 -93q-25 -40 -67.5 -70.5t-95.5 -44.5q-25 -7 -52 -9l-16 -32q16 -2 29 -6q28 -10 45.5 -34t17.5 -54q0 -49 -36 -75t-94 -26
q-64 0 -114 28l25 70q22 -12 53 -12q21 1 33.5 12.5t13.5 27.5q0 13 -8.5 23t-22.5 11q-13 0 -22 -4l-22 20l29 58q-89 22 -152 94q-60 70 -60 158q0 105 83 182q83 78 197 78z" />
    <glyph glyph-name="Cdotaccent.sc" horiz-adv-x="551" 
d="M300 510q74 0 138 -36q65 -35 98 -89l-165 -93q-16 29 -31 40t-39 11q-33 0 -53.5 -26t-20.5 -67t20.5 -67t53.5 -26q24 0 39 11t31 40l165 -93q-34 -54 -98 -89.5t-138 -35.5q-114 0 -197 77q-83 78 -83 183t83 182q83 78 197 78zM228 706q24 24 59.5 24t58.5 -24
q24 -23 24 -58.5t-24 -59.5q-23 -23 -58.5 -23t-59.5 23q-23 24 -23 59.5t23 58.5z" />
    <glyph glyph-name="D.sc" horiz-adv-x="575" 
d="M35 0v500h239q115 0 198 -74t83 -176q0 -103 -83 -177q-82 -73 -198 -73h-239zM268 342h-32v-184h32q36 0 59.5 25.5t23.5 66.5t-23.5 66.5t-59.5 25.5z" />
    <glyph glyph-name="Dcaron.sc" horiz-adv-x="575" 
d="M503 728l-124 -178h-211l-124 178h168l61 -74l62 74h168zM35 0v500h239q115 0 198 -74t83 -176q0 -103 -83 -177q-82 -73 -198 -73h-239zM268 342h-32v-184h32q36 0 59.5 25.5t23.5 66.5t-23.5 66.5t-59.5 25.5z" />
    <glyph glyph-name="Dcircumflexbelow.sc" horiz-adv-x="575" 
d="M35 0v500h239q115 0 198 -74t83 -176q0 -103 -83 -177q-82 -73 -198 -73h-239zM268 342h-32v-184h32q36 0 59.5 25.5t23.5 66.5t-23.5 66.5t-59.5 25.5zM379 -72l123 -178h-167l-62 74l-61 -74h-168l124 178h211z" />
    <glyph glyph-name="Dcroat.sc" horiz-adv-x="575" 
d="M35 309v191h239q115 0 198 -74t83 -176q0 -103 -83 -177q-82 -73 -198 -73h-239v191h-41v118h41zM236 191v-33h32q36 0 59.5 25.5t23.5 66.5t-23.5 66.5t-59.5 25.5h-32v-33h46v-118h-46z" />
    <glyph glyph-name="Ddotbelow.sc" horiz-adv-x="575" 
d="M35 0v500h239q115 0 198 -74t83 -176q0 -103 -83 -177q-82 -73 -198 -73h-239zM268 342h-32v-184h32q36 0 59.5 25.5t23.5 66.5t-23.5 66.5t-59.5 25.5zM214 -109q24 24 59.5 24t58.5 -23q24 -24 24 -59.5t-24 -58.5q-23 -24 -58.5 -24t-59.5 24q-23 23 -23 58.5t23 58.5
z" />
    <glyph glyph-name="Dlinebelow.sc" horiz-adv-x="575" 
d="M35 0v500h239q115 0 198 -74t83 -176q0 -103 -83 -177q-82 -73 -198 -73h-239zM268 342h-32v-184h32q36 0 59.5 25.5t23.5 66.5t-23.5 66.5t-59.5 25.5zM454 -80v-125h-361v125h361z" />
    <glyph glyph-name="E.sc" horiz-adv-x="506" 
d="M486 500v-152h-250v-29h233v-132h-233v-36h253v-151h-454v500h451z" />
    <glyph glyph-name="Eacute.sc" horiz-adv-x="506" 
d="M497 728l-159 -178h-173l123 178h209zM486 500v-152h-250v-29h233v-132h-233v-36h253v-151h-454v500h451z" />
    <glyph glyph-name="Ecaron.sc" horiz-adv-x="506" 
d="M486 728l-124 -178h-211l-124 178h168l61 -74l62 74h168zM486 500v-152h-250v-29h233v-132h-233v-36h253v-151h-454v500h451z" />
    <glyph glyph-name="Ecircumflex.sc" horiz-adv-x="506" 
d="M362 728l123 -178h-167l-62 74l-62 -74h-167l123 178h212zM485 500v-152h-250v-29h233v-132h-233v-36h253v-151h-454v500h451z" />
    <glyph glyph-name="Ecircumflexdotbelow.sc" horiz-adv-x="506" 
d="M362 728l123 -178h-167l-62 74l-62 -74h-167l123 178h212zM485 500v-152h-250v-29h233v-132h-233v-36h253v-151h-454v500h451zM193 -108q24 23 59 23t59 -23q24 -24 24 -59.5t-24 -58.5q-24 -24 -59 -24t-59 24q-24 23 -24 58.5t24 59.5z" />
    <glyph glyph-name="Edieresis.sc" horiz-adv-x="506" 
d="M486 500v-152h-250v-29h233v-132h-233v-36h253v-151h-454v500h451zM95 706q24 24 59.5 24t58.5 -24q24 -23 24 -58.5t-24 -59.5q-23 -23 -58.5 -23t-59.5 23q-23 24 -23 59.5t23 58.5zM300 706q24 24 59.5 24t58.5 -24q24 -23 24 -58.5t-24 -59.5q-23 -23 -58.5 -23
t-59.5 23q-23 24 -23 59.5t23 58.5z" />
    <glyph glyph-name="Edotaccent.sc" horiz-adv-x="506" 
d="M198 706q24 24 59 24t59 -24q24 -23 24 -58.5t-24 -59.5q-24 -23 -59 -23t-59 23q-24 24 -24 59.5t24 58.5zM486 500v-152h-250v-29h233v-132h-233v-36h253v-151h-454v500h451z" />
    <glyph glyph-name="Edotbelow.sc" horiz-adv-x="506" 
d="M486 500v-152h-250v-29h233v-132h-233v-36h253v-151h-454v500h451zM194 -108q24 23 59 23t59 -23q24 -24 24 -59.5t-24 -58.5q-24 -24 -59 -24t-59 24q-24 23 -24 58.5t24 59.5z" />
    <glyph glyph-name="Egrave.sc" horiz-adv-x="506" 
d="M486 500v-152h-250v-29h233v-132h-233v-36h253v-151h-454v500h451zM222 728l123 -178h-174l-158 178h209z" />
    <glyph glyph-name="Emacron.sc" horiz-adv-x="506" 
d="M486 500v-152h-250v-29h233v-132h-233v-36h253v-151h-454v500h451zM437 710v-125h-361v125h361z" />
    <glyph glyph-name="Eogonek.sc" horiz-adv-x="506" 
d="M486 500v-152h-250v-29h233v-132h-233v-36h253v-151h-58l-6 -10q-21 -35 -12 -58q8 -23 38 -26q15 -3 36 2l23 -91q-42 -16 -98 -16q-88 0 -117 48q-30 54 21 141l6 10h-287v500h451z" />
    <glyph glyph-name="Eth.sc" horiz-adv-x="575" 
d="M35 309v191h239q115 0 198 -74t83 -176q0 -103 -83 -177q-82 -73 -198 -73h-239v191h-41v118h41zM236 191v-33h32q36 0 59.5 25.5t23.5 66.5t-23.5 66.5t-59.5 25.5h-32v-33h46v-118h-46z" />
    <glyph glyph-name="Etilde.sc" horiz-adv-x="506" 
d="M144 724q27 6 46 3t58 -17q67 -23 86 -22q25 1 34 33l75 -9q10 -62 -9 -103.5t-61 -52.5q-27 -6 -46 -3q-22 3 -57 16l-19 7l-48 16q-11 2 -23 -1q-22 -6 -30 -32l-75 8q-11 61 8 103.5t61 53.5zM486 500v-152h-250v-29h233v-132h-233v-36h253v-151h-454v500h451z" />
    <glyph glyph-name="F.sc" horiz-adv-x="488" 
d="M471 500v-154h-235v-45h214v-142h-214v-159h-201v500h436z" />
    <glyph glyph-name="G.sc" horiz-adv-x="574" 
d="M314 510q59 0 118.5 -22.5t98.5 -61.5l-122 -111q-46 32 -92 32q-41 0 -65.5 -25t-24.5 -72q0 -41 21.5 -67t55.5 -26q28 0 52 9v21h-66v105h254v-220q-46 -37 -110 -59.5t-130 -22.5q-115 0 -200 77q-84 78 -84 183q0 77 43 139t110.5 93t140.5 28z" />
    <glyph glyph-name="Gbreve.sc" horiz-adv-x="574" 
d="M365 734h133q0 -76 -58 -125t-142 -49q-85 0 -143 49t-58 125h133q0 -24 19 -38.5t49 -14.5q29 0 48 14t19 39zM313 510q59 0 118.5 -22.5t98.5 -61.5l-122 -111q-46 32 -92 32q-41 0 -65.5 -25t-24.5 -72q0 -41 21.5 -67t55.5 -26q28 0 52 9v21h-66v105h254v-220
q-46 -37 -110 -59.5t-130 -22.5q-115 0 -200 77q-84 78 -84 183q0 77 43 139t110.5 93t140.5 28z" />
    <glyph glyph-name="Gcaron.sc" horiz-adv-x="574" 
d="M524 728l-124 -178h-211l-124 178h168l61 -74l62 74h168zM314 510q59 0 118.5 -22.5t98.5 -61.5l-122 -111q-46 32 -92 32q-41 0 -65.5 -25t-24.5 -72q0 -41 21.5 -67t55.5 -26q28 0 52 9v21h-66v105h254v-220q-46 -37 -110 -59.5t-130 -22.5q-115 0 -200 77
q-84 78 -84 183q0 77 43 139t110.5 93t140.5 28z" />
    <glyph glyph-name="Gcommaaccent.sc" horiz-adv-x="574" 
d="M314 510q59 0 118.5 -22.5t98.5 -61.5l-122 -111q-46 32 -92 32q-41 0 -65.5 -25t-24.5 -72q0 -41 21.5 -67t55.5 -26q28 0 52 9v21h-66v105h254v-220q-46 -37 -110 -59.5t-130 -22.5q-115 0 -200 77q-84 78 -84 183q0 77 43 139t110.5 93t140.5 28zM389 -127
q0 -21 -12 -39l-122 -178l-50 23l51 123q-51 24 -51 71q0 33 27 56t65 23t65 -23t27 -56z" />
    <glyph glyph-name="Gdotaccent.sc" horiz-adv-x="574" 
d="M236 706q24 24 59 24t59 -24q24 -23 24 -58.5t-24 -59.5q-24 -23 -59 -23t-59 23q-24 24 -24 59.5t24 58.5zM314 510q59 0 118.5 -22.5t98.5 -61.5l-122 -111q-46 32 -92 32q-41 0 -65.5 -25t-24.5 -72q0 -41 21.5 -67t55.5 -26q28 0 52 9v21h-66v105h254v-220
q-46 -37 -110 -59.5t-130 -22.5q-115 0 -200 77q-84 78 -84 183q0 77 43 139t110.5 93t140.5 28z" />
    <glyph glyph-name="H.sc" horiz-adv-x="600" 
d="M565 500v-500h-203v168h-124v-168h-203v500h203v-165h124v165h203z" />
    <glyph glyph-name="Hbar.sc" horiz-adv-x="600" 
d="M600 464v-97h-35v-367h-203v168h-124v-168h-203v367h-35v97h35v36h203v-36h124v36h203v-36h35zM362 335v32h-124v-32h124z" />
    <glyph glyph-name="Hdotbelow.sc" horiz-adv-x="600" 
d="M565 500v-500h-203v168h-124v-168h-203v500h203v-165h124v165h203zM242 -108q24 23 59 23t59 -23q24 -24 24 -59.5t-24 -58.5q-24 -24 -59 -24t-59 24q-24 23 -24 58.5t24 59.5z" />
    <glyph glyph-name="I.sc" horiz-adv-x="273" 
d="M238 500v-500h-203v500h203z" />
    <glyph glyph-name="IJ.sc" horiz-adv-x="754" 
d="M238 500v-500h-203v500h203zM515 500h204v-282q0 -122 -56.5 -175t-172.5 -53q-163 0 -207 104l162 88q10 -22 34 -22q15 0 25.5 11.5t10.5 29.5v299z" />
    <glyph glyph-name="Iacute.sc" horiz-adv-x="273" 
d="M376 728l-159 -178h-173l123 178h209zM237 500v-500h-203v500h203z" />
    <glyph glyph-name="Icircumflex.sc" horiz-adv-x="273" 
d="M243 728l123 -178h-167l-62 74l-62 -74h-167l123 178h212zM238 500v-500h-203v500h203z" />
    <glyph glyph-name="Idieresis.sc" horiz-adv-x="273" 
d="M34 565q-35 0 -58.5 23.5t-23.5 59.5t24 58q23 24 58.5 24t58.5 -24q24 -22 24 -59q0 -35 -23.5 -58.5t-59.5 -23.5zM180 706q24 24 59.5 24t58.5 -24q24 -23 24 -58.5t-24 -59.5q-23 -23 -58.5 -23t-59.5 23q-23 24 -23 59.5t23 58.5zM238 500v-500h-203v500h203z" />
    <glyph glyph-name="Idieresisacute.sc" horiz-adv-x="273" 
d="M377 928l-159 -178h-173l123 178h209zM34 545q-35 0 -58.5 23.5t-23.5 58.5q0 37 24 59q23 24 58.5 24t58.5 -24q24 -22 24 -59q0 -35 -23.5 -58.5t-59.5 -23.5zM180 686q24 24 59.5 24t58.5 -24q24 -23 24 -58.5t-24 -59.5q-23 -23 -58.5 -23t-59.5 23q-23 24 -23 59.5
t23 58.5zM238 500v-500h-203v500h203z" />
    <glyph glyph-name="Idotaccent.sc" horiz-adv-x="273" 
d="M78 706q24 24 59 24t59 -24q24 -23 24 -58.5t-24 -59.5q-24 -23 -59 -23t-59 23q-24 24 -24 59.5t24 58.5zM238 500v-500h-203v500h203z" />
    <glyph glyph-name="Igrave.sc" horiz-adv-x="273" 
d="M239 500v-500h-203v500h203zM103 728l123 -178h-174l-158 178h209z" />
    <glyph glyph-name="Imacron.sc" horiz-adv-x="273" 
d="M318 710v-125h-361v125h361zM239 500v-500h-203v500h203z" />
    <glyph glyph-name="Iogonek.sc" horiz-adv-x="273" 
d="M238 500v-500l-4 -7q-32 -46 -22 -72q9 -21 39 -26q14 -3 35 2l23 -91q-42 -16 -98 -16q-89 0 -116 48q-31 57 27 151l6 11h-93v500h203z" />
    <glyph glyph-name="Itilde.sc" horiz-adv-x="273" 
d="M35 724q27 6 46 3t58 -17q67 -23 86 -22q25 1 34 33l75 -9q10 -62 -9 -103.5t-61 -52.5q-27 -6 -46 -3q-22 3 -57 16l-19 7l-48 16q-11 2 -23 -1q-22 -6 -30 -32l-75 8q-11 61 8 103.5t61 53.5zM249 500v-500h-203v500h203z" />
    <glyph glyph-name="J.sc" horiz-adv-x="480" 
d="M242 500h203v-282q0 -122 -56 -175t-172 -53q-165 0 -207 104l161 88q10 -22 34 -22q15 0 26 11.5t11 29.5v299z" />
    <glyph glyph-name="K.sc" horiz-adv-x="590" 
d="M577 500l-175 -212l178 -288h-249l-62 126l-31 -36v-90h-203v500h203v-121l80 121h259z" />
    <glyph glyph-name="Kcommaaccent.sc" horiz-adv-x="590" 
d="M577 500l-175 -212l178 -288h-249l-62 126l-31 -36v-90h-203v500h203v-121l80 121h259zM387 -127q0 -21 -12 -39l-122 -178l-50 23l51 123q-51 24 -51 71q0 33 27 56t65 23t65 -23t27 -56z" />
    <glyph glyph-name="L.sc" horiz-adv-x="483" 
d="M238 500v-345h235v-155h-438v500h203z" />
    <glyph glyph-name="Lacute.sc" horiz-adv-x="483" 
d="M481 728l-159 -178h-173l123 178h209zM237 500v-345h235v-155h-438v500h203z" />
    <glyph glyph-name="Lcaron.sc" horiz-adv-x="483" 
d="M417 510q39 0 66 -23t27 -55q0 -22 -12 -40l-123 -177l-49 22l50 124q-23 10 -37 29t-14 41q0 34 27 56.5t65 22.5zM238 500v-345h235v-155h-438v500h203z" />
    <glyph glyph-name="Lcircumflexbelow.sc" horiz-adv-x="483" 
d="M237 500v-345h235v-155h-438v500h203zM357 -72l123 -178h-167l-62 74l-62 -74h-167l123 178h212z" />
    <glyph glyph-name="Lcommaaccent.sc" horiz-adv-x="483" 
d="M238 500v-345h235v-155h-438v500h203zM344 -127q0 -21 -12 -39l-122 -178l-50 23l51 123q-23 10 -37 29t-14 42q0 33 27 56t65 23t65 -23t27 -56z" />
    <glyph glyph-name="Ldot.sc" horiz-adv-x="483" 
d="M238 500v-345h235v-155h-438v500h203zM377 391q43 0 74.5 -26.5t31.5 -64.5q2 -38 -31.5 -64.5t-75 -26.5t-75.5 26q-31 27 -31 65t31.5 64.5t75.5 26.5z" />
    <glyph glyph-name="Lslash.sc" horiz-adv-x="483" 
d="M238 155h235v-155h-438v171l-44 -18v166l44 18v163h203v-78l65 27v-165l-65 -27v-102z" />
    <glyph glyph-name="M.sc" horiz-adv-x="733" 
d="M698 500v-500h-201v210l-91 -154h-84l-91 154v-210h-201v500h252l82 -135l82 135h252z" />
    <glyph glyph-name="Macute.sc" horiz-adv-x="733" 
d="M604 728l-159 -178h-173l123 178h209zM698 500v-500h-201v210l-91 -154h-84l-91 154v-210h-201v500h252l82 -135l82 135h252z" />
    <glyph glyph-name="N.sc" horiz-adv-x="590" 
d="M560 500v-500h-209l-120 173v-173h-201v500h209l121 -173v173h200z" />
    <glyph glyph-name="Nacute.sc" horiz-adv-x="590" 
d="M535 728l-159 -178h-173l123 178h209zM560 500v-500h-209l-120 173v-173h-201v500h209l121 -173v173h200z" />
    <glyph glyph-name="Ncaron.sc" horiz-adv-x="590" 
d="M524 728l-124 -178h-211l-124 178h168l61 -74l62 74h168zM560 500v-500h-209l-120 173v-173h-201v500h209l121 -173v173h200z" />
    <glyph glyph-name="Ncircumflexbelow.sc" horiz-adv-x="590" 
d="M560 500v-500h-209l-120 173v-173h-201v500h209l121 -173v173h200zM401 -72l123 -178h-167l-62 74l-62 -74h-167l123 178h212z" />
    <glyph glyph-name="Ncommaaccent.sc" horiz-adv-x="590" 
d="M560 500v-500h-209l-120 173v-173h-201v500h209l121 -173v173h200zM387 -127q0 -21 -12 -39l-122 -178l-50 23l51 123q-23 10 -37 29t-14 42q0 33 27 56t65 23t65 -23t27 -56z" />
    <glyph glyph-name="Ndotaccent.sc" horiz-adv-x="590" 
d="M236 706q24 24 59 24t59 -24q24 -23 24 -58.5t-24 -59.5q-24 -23 -59 -23t-59 23q-24 24 -24 59.5t24 58.5zM560 500v-500h-209l-120 173v-173h-201v500h209l121 -173v173h200z" />
    <glyph glyph-name="Ndotbelow.sc" horiz-adv-x="590" 
d="M560 500v-500h-209l-120 173v-173h-201v500h209l121 -173v173h200zM236 -108q24 23 59 23t59 -23q24 -24 24 -59.5t-24 -58.5q-24 -24 -59 -24t-59 24q-24 23 -24 58.5t24 59.5z" />
    <glyph glyph-name="Ntilde.sc" horiz-adv-x="590" 
d="M182 724q27 6 46 3t58 -17q67 -23 86 -22q25 1 34 33l75 -9q10 -62 -9 -103.5t-61 -52.5q-27 -6 -46 -3q-22 3 -57 16l-19 7l-48 16q-11 2 -23 -1q-22 -6 -30 -32l-75 8q-11 61 8 103.5t61 53.5zM560 500v-500h-209l-120 173v-173h-201v500h209l121 -173v173h200z" />
    <glyph glyph-name="O.sc" horiz-adv-x="602" 
d="M302 510q116 0 198 -78q83 -77 83 -182t-83 -183q-83 -77 -198 -77t-198 77q-83 78 -83 183q-2 105 81 182q82 78 200 78zM302 157q34 0 54 26t20 67t-20 67t-54 26t-54 -26t-20 -67q0 -42 20 -67.5t54 -25.5z" />
    <glyph glyph-name="OE.sc" horiz-adv-x="865" 
d="M302 510q48 0 94 -15v5h450v-152h-250v-29h233v-132h-233v-36h253v-151h-453v5q-46 -15 -94 -15q-115 0 -198 77q-83 78 -83 183q-2 105 81 182q82 78 200 78zM228 250q0 -42 20 -67.5t54 -25.5q35 0 54 25q20 26 20 68q0 41 -20 67t-54 26t-54 -25.5t-20 -67.5z" />
    <glyph glyph-name="Oacute.sc" horiz-adv-x="602" 
d="M542 728l-159 -178h-173l123 178h209zM302 510q116 0 198 -78q83 -77 83 -182t-83 -183q-83 -77 -198 -77t-198 77q-83 78 -83 183q-2 105 81 182q82 78 200 78zM302 157q34 0 54 26t20 67t-20 67t-54 26t-54 -26t-20 -67q0 -42 20 -67.5t54 -25.5z" />
    <glyph glyph-name="Ocaron.sc" horiz-adv-x="602" 
d="M531 728l-124 -178h-211l-124 178h168l61 -74l62 74h168zM302 510q116 0 198 -78q83 -77 83 -182t-83 -183q-83 -77 -198 -77t-198 77q-83 78 -83 183q-2 105 81 182q82 78 200 78zM302 157q34 0 54 26t20 67t-20 67t-54 26t-54 -26t-20 -67q0 -42 20 -67.5t54 -25.5z
" />
    <glyph glyph-name="Ocircumflex.sc" horiz-adv-x="602" 
d="M408 728l123 -178h-167l-62 74l-62 -74h-167l123 178h212zM302 510q116 0 198 -78q83 -77 83 -182t-83 -183q-83 -77 -198 -77t-198 77q-83 78 -83 183q-2 105 81 182q82 78 200 78zM302 157q34 0 54 26t20 67t-20 67t-54 26t-54 -26t-20 -67q0 -42 20 -67.5t54 -25.5z
" />
    <glyph glyph-name="Ocircumflexdotbelow.sc" horiz-adv-x="602" 
d="M408 728l123 -178h-167l-62 74l-62 -74h-167l123 178h212zM302 510q116 0 198 -78q83 -77 83 -182t-83 -183q-83 -77 -198 -77t-198 77q-83 78 -83 183q-2 105 81 182q82 78 200 78zM302 157q34 0 54 26t20 67t-20 67t-54 26t-54 -26t-20 -67q0 -42 20 -67.5t54 -25.5z
M243 -108q24 23 59 23t58 -23q24 -24 24 -59.5t-24 -58.5q-23 -24 -58 -24t-59 24q-24 23 -24 58.5t24 59.5z" />
    <glyph glyph-name="Odieresis.sc" horiz-adv-x="602" 
d="M140 706q24 24 59.5 24t58.5 -24q24 -23 24 -58.5t-24 -59.5q-23 -23 -58.5 -23t-59.5 23q-23 24 -23 59.5t23 58.5zM345 706q24 24 59.5 24t58.5 -24q24 -23 24 -58.5t-24 -59.5q-23 -23 -58.5 -23t-59.5 23q-23 24 -23 59.5t23 58.5zM302 510q116 0 198 -78
q83 -77 83 -182t-83 -183q-83 -77 -198 -77t-198 77q-83 78 -83 183q-2 105 81 182q82 78 200 78zM228 250q0 -41 20 -67t54 -26t54 26t20 67q0 42 -20 67.5t-54 25.5t-54 -25.5t-20 -67.5z" />
    <glyph glyph-name="Odotbelow.sc" horiz-adv-x="602" 
d="M302 510q116 0 198 -78q83 -77 83 -182t-83 -183q-83 -77 -198 -77t-198 77q-83 78 -83 183q-2 105 81 182q82 78 200 78zM302 157q34 0 54 26t20 67t-20 67t-54 26t-54 -26t-20 -67q0 -42 20 -67.5t54 -25.5zM243 -108q24 23 59 23t58 -23q24 -24 24 -59.5t-24 -58.5
q-23 -24 -58 -24t-59 24q-24 23 -24 58.5t24 59.5z" />
    <glyph glyph-name="Ograve.sc" horiz-adv-x="602" 
d="M302 510q116 0 198 -78q83 -77 83 -182t-83 -183q-83 -77 -198 -77t-198 77q-83 78 -83 183q-2 105 81 182q82 78 200 78zM302 157q34 0 54 26t20 67t-20 67t-54 26t-54 -26t-20 -67q0 -42 20 -67.5t54 -25.5zM267 728l123 -178h-174l-158 178h209z" />
    <glyph glyph-name="Ohungarumlaut.sc" horiz-adv-x="602" 
d="M416 728l-158 -178h-174l124 178h208zM681 728l-159 -178h-173l123 178h209zM302 510q116 0 198 -78q83 -77 83 -182t-83 -183q-83 -77 -198 -77t-198 77q-83 78 -83 183q-2 105 81 182q82 78 200 78zM302 157q34 0 54 26t20 67t-20 67t-54 26t-54 -26t-20 -67
q0 -42 20 -67.5t54 -25.5z" />
    <glyph glyph-name="Omacron.sc" horiz-adv-x="602" 
d="M302 510q116 0 198 -78q83 -77 83 -182t-83 -183q-83 -77 -198 -77t-198 77q-83 78 -83 183q-2 105 81 182q82 78 200 78zM302 157q34 0 54 26t20 67t-20 67t-54 26t-54 -26t-20 -67q0 -42 20 -67.5t54 -25.5zM482 710v-125h-361v125h361z" />
    <glyph glyph-name="Omacronacute.sc" horiz-adv-x="602" 
d="M542 928l-159 -178h-173l123 178h209zM482 710v-125h-361v125h361zM302 510q116 0 198 -78q83 -77 83 -182t-83 -183q-83 -77 -198 -77t-198 77q-83 78 -83 183q-2 105 81 182q82 78 200 78zM302 157q34 0 54 26t20 67t-20 67t-54 26t-54 -26t-20 -67q0 -42 20 -67.5
t54 -25.5z" />
    <glyph glyph-name="Omacrongrave.sc" horiz-adv-x="602" 
d="M267 928l123 -178h-174l-158 178h209zM482 710v-125h-361v125h361zM302 510q116 0 198 -78q83 -77 83 -182t-83 -183q-83 -77 -198 -77t-198 77q-83 78 -83 183q-2 105 81 182q82 78 200 78zM302 157q34 0 54 26t20 67t-20 67t-54 26t-54 -26t-20 -67q0 -42 20 -67.5
t54 -25.5z" />
    <glyph glyph-name="Oslash.sc" horiz-adv-x="602" 
d="M391 550h109l-41 -86q57 -36 90.5 -93.5t33.5 -120.5q0 -105 -83 -183q-83 -77 -198 -77q-32 0 -66 8l-23 -48h-109l41 86q-57 36 -90.5 93.5t-33.5 120.5q-2 105 81 182q82 78 200 78q31 0 66 -8zM228 250q0 -19 4 -32l60 125q-30 -4 -47 -29.5t-17 -63.5zM372 282
l-60 -125q30 4 47 29.5t17 63.5q0 19 -4 32z" />
    <glyph glyph-name="Oslashacute.sc" horiz-adv-x="602" 
d="M502 728l-159 -178h-173l123 178h209zM391 550h109l-41 -86q57 -36 90.5 -93.5t33.5 -120.5q0 -105 -83 -183q-83 -77 -198 -77q-32 0 -66 8l-23 -48h-109l41 86q-57 36 -90.5 93.5t-33.5 120.5q-2 105 81 182q82 78 200 78q31 0 66 -8zM228 250q0 -19 4 -32l60 125
q-30 -4 -47 -29.5t-17 -63.5zM372 282l-60 -125q30 4 47 29.5t17 63.5q0 19 -4 32z" />
    <glyph glyph-name="Otilde.sc" horiz-adv-x="602" 
d="M189 724q27 6 46 3t58 -17q67 -23 86 -22q25 1 34 33l75 -9q10 -62 -9 -103.5t-61 -52.5q-27 -6 -46 -3q-22 3 -57 16l-19 7l-48 16q-11 2 -23 -1q-22 -6 -30 -32l-75 8q-11 61 8 103.5t61 53.5zM302 510q116 0 198 -78q83 -77 83 -182t-83 -183q-83 -77 -198 -77
t-198 77q-83 78 -83 183q-2 105 81 182q82 78 200 78zM302 343q-34 0 -54 -25.5t-20 -67.5t20 -67.5t54 -25.5t54 25.5t20 67.5t-20 67.5t-54 25.5z" />
    <glyph glyph-name="Otildeacute.sc" horiz-adv-x="602" 
d="M542 928l-159 -178h-173l123 178h209zM189 724q27 6 46 3t58 -17q67 -23 86 -22q25 1 34 33l75 -9q10 -62 -9 -103.5t-61 -52.5q-27 -6 -46 -3q-22 3 -57 16l-19 7l-48 16q-11 2 -23 -1q-22 -6 -30 -32l-75 8q-11 61 8 103.5t61 53.5zM302 510q116 0 198 -78
q83 -77 83 -182t-83 -183q-83 -77 -198 -77t-198 77q-83 78 -83 183q-2 105 81 182q82 78 200 78zM302 343q-34 0 -54 -25.5t-20 -67.5t20 -67.5t54 -25.5t54 25.5t20 67.5t-20 67.5t-54 25.5z" />
    <glyph glyph-name="P.sc" horiz-adv-x="551" 
d="M35 0v500h247q249 0 249 -198q0 -96 -62.5 -145t-184.5 -49h-46v-108h-203zM285 338h-46v-83h46q52 0 52 41q0 42 -52 42z" />
    <glyph glyph-name="Q.sc" horiz-adv-x="602" 
d="M302 510q112 2 198 -78t83 -182q0 -90 -64 -163l59 -59l-69 -63l-63 63q-68 -38 -144 -38q-115 0 -198 77q-83 78 -83 183q-2 105 81 182q82 78 200 78zM302 157q9 0 14 1l-34 34l68 64l25 -24q1 6 1 18q0 41 -20 67t-54 26t-54 -26t-20 -67q0 -42 20 -67.5t54 -25.5z
" />
    <glyph glyph-name="R.sc" horiz-adv-x="568" 
d="M35 0v500h252q132 0 195 -47t63 -146q0 -115 -90 -162l103 -145h-228l-80 115h-5h-7v-115h-203zM238 332v-70h58q46 0 46 35q0 19 -10.5 27t-35.5 8h-58z" />
    <glyph glyph-name="Racute.sc" horiz-adv-x="568" 
d="M524 728l-159 -178h-173l123 178h209zM35 0v500h252q132 0 195 -47t63 -146q0 -115 -90 -162l103 -145h-228l-80 115h-5h-7v-115h-203zM238 332v-70h58q46 0 46 35q0 19 -10.5 27t-35.5 8h-58z" />
    <glyph glyph-name="Rcaron.sc" horiz-adv-x="568" 
d="M513 728l-124 -178h-211l-124 178h168l61 -74l62 74h168zM35 0v500h252q132 0 195 -47t63 -146q0 -115 -90 -162l103 -145h-228l-80 115h-5h-7v-115h-203zM238 332v-70h58q46 0 46 35q0 19 -10.5 27t-35.5 8h-58z" />
    <glyph glyph-name="Rcommaaccent.sc" horiz-adv-x="568" 
d="M35 0v500h252q132 0 195 -47t63 -146q0 -115 -90 -162l103 -145h-228l-80 115h-5h-7v-115h-203zM238 332v-70h58q46 0 46 35q0 19 -10.5 27t-35.5 8h-58zM376 -127q0 -21 -12 -39l-122 -178l-50 23l51 123q-23 10 -37 29t-14 42q0 33 27 56t65 23t65 -23t27 -56z" />
    <glyph glyph-name="S.sc" horiz-adv-x="521" 
d="M260 510q143 0 236 -65l-71 -132q-42 23 -89 39q-48 16 -77 16q-20 0 -20 -9q0 -3 1.5 -5.5t14.5 -7t40 -11.5q83 -24 122 -43q86 -41 86 -125q0 -81 -61.5 -129t-165.5 -48q-158 0 -267 79l76 127q36 -23 91 -41t89 -20q35 -3 35 10q0 8 -11.5 14t-46.5 16
q-70 16 -121 37q-45 20 -66 48t-23 75q0 82 65 129q64 46 163 46z" />
    <glyph glyph-name="Sacute.sc" horiz-adv-x="521" 
d="M499 728l-159 -178h-173l123 178h209zM260 510q143 0 236 -65l-71 -132q-42 23 -89 39q-48 16 -77 16q-20 0 -20 -9q0 -3 1.5 -5.5t14.5 -7t40 -11.5q83 -24 122 -43q86 -41 86 -125q0 -81 -61.5 -129t-165.5 -48q-158 0 -267 79l76 127q36 -23 91 -41t89 -20
q35 -3 35 10q0 8 -11.5 14t-46.5 16q-70 16 -121 37q-45 20 -66 48t-23 75q0 82 65 129q64 46 163 46z" />
    <glyph glyph-name="Scaron.sc" horiz-adv-x="521" 
d="M488 728l-124 -178h-211l-124 178h168l61 -74l62 74h168zM260 510q143 0 236 -65l-71 -132q-42 23 -89 39q-48 16 -77 16q-20 0 -20 -9q0 -3 1.5 -5.5t14.5 -7t40 -11.5q83 -24 122 -43q86 -41 86 -125q0 -81 -61.5 -129t-165.5 -48q-158 0 -267 79l76 127q36 -23 91 -41
t89 -20q35 -3 35 10q0 8 -11.5 14t-46.5 16q-70 16 -121 37q-45 20 -66 48t-23 75q0 82 65 129q64 46 163 46z" />
    <glyph glyph-name="Scedilla.sc" horiz-adv-x="521" 
d="M260 510q143 0 236 -65l-71 -132q-42 23 -89 39q-48 16 -77 16q-20 0 -20 -9q0 -3 1.5 -5.5t14.5 -7t40 -11.5q83 -24 122 -43q86 -41 86 -125q0 -73 -51.5 -120t-138.5 -55l-8 -1l-16 -32q16 -2 29 -6q63 -25 63 -88q0 -49 -36 -75t-94 -26q-64 0 -114 28l25 70
q22 -12 53 -12q21 1 33.5 12.5t13.5 27.5q0 13 -8.5 23t-22.5 11q-13 0 -22 -4l-22 20l26 54q-119 14 -204 75l76 127q36 -23 91 -41t89 -20q35 -3 35 10q0 8 -11.5 14t-46.5 16q-70 16 -121 37q-45 20 -66 48t-23 75q0 82 65 129q64 46 163 46z" />
    <glyph glyph-name="Scommaaccent.sc" horiz-adv-x="521" 
d="M260 510q143 0 236 -65l-71 -132q-42 23 -89 39q-48 16 -77 16q-20 0 -20 -9q0 -3 1.5 -5.5t14.5 -7t40 -11.5q83 -24 122 -43q86 -41 86 -125q0 -81 -61.5 -129t-165.5 -48q-158 0 -267 79l76 127q36 -23 91 -41t89 -20q35 -3 35 10q0 8 -11.5 14t-46.5 16
q-70 16 -121 37q-45 20 -66 48t-23 75q0 82 65 129q64 46 163 46zM351 -127q0 -21 -12 -39l-122 -178l-50 23l51 123q-51 24 -51 71q0 33 27 56t65 23t65 -23t27 -56z" />
    <glyph glyph-name="Sdotbelow.sc" horiz-adv-x="521" 
d="M260 510q143 0 236 -65l-71 -132q-42 23 -89 39q-48 16 -77 16q-20 0 -20 -9q0 -3 1.5 -5.5t14.5 -7t40 -11.5q83 -24 122 -43q86 -41 86 -125q0 -81 -61.5 -129t-165.5 -48q-158 0 -267 79l76 127q36 -23 91 -41t89 -20q35 -3 35 10q0 8 -11.5 14t-46.5 16
q-70 16 -121 37q-45 20 -66 48t-23 75q0 82 65 129q64 46 163 46zM200 -108q24 23 59 23t59 -23q24 -24 24 -59.5t-24 -58.5q-24 -24 -59 -24t-59 24q-24 23 -24 58.5t24 59.5z" />
    <glyph glyph-name="T.sc" horiz-adv-x="499" 
d="M489 500v-146h-137v-354h-204v354h-138v146h479z" />
    <glyph glyph-name="T_h" horiz-adv-x="1219" 
d="M20 700h816v-249q79 59 170 59q78 0 125.5 -41.5t47.5 -117.5v-351h-203v289q0 27 -14.5 42t-38.5 15q-47 0 -87 -29v-317h-203v515h-202v-515h-218v515h-193v185z" />
    <glyph glyph-name="Tbar.sc" horiz-adv-x="499" 
d="M352 354v-59h78v-125h-78v-170h-204v170h-79v125h79v59h-138v146h479v-146h-137z" />
    <glyph glyph-name="Tcaron.sc" horiz-adv-x="499" 
d="M479 728l-124 -178h-211l-124 178h168l61 -74l62 74h168zM489 500v-146h-137v-354h-204v354h-138v146h479z" />
    <glyph glyph-name="Tcedilla.sc" horiz-adv-x="499" 
d="M489 500v-146h-137v-354h-51l-21 -41q16 -2 29 -6q28 -10 45.5 -34t17.5 -54q0 -49 -36 -75t-94 -26q-64 0 -114 28l25 70q23 -12 53 -12q21 1 33.5 12.5t13.5 27.5q0 13 -8.5 23t-22.5 11q-13 0 -22 -4l-22 20l29 60h-59v354h-138v146h479z" />
    <glyph glyph-name="Tcircumflexbelow.sc" horiz-adv-x="499" 
d="M489 500v-146h-137v-354h-204v354h-138v146h479zM356 -72l123 -178h-167l-62 74l-62 -74h-167l123 178h212z" />
    <glyph glyph-name="Tdotbelow.sc" horiz-adv-x="499" 
d="M489 500v-146h-137v-354h-204v354h-138v146h479zM191 -108q24 23 59 23t59 -23q24 -24 24 -59.5t-24 -58.5q-24 -24 -59 -24t-59 24q-24 23 -24 58.5t24 59.5z" />
    <glyph glyph-name="Thorn.sc" horiz-adv-x="551" 
d="M239 500v-36h43q249 0 249 -198q0 -96 -63 -145t-184 -49h-46v-72h-203v500h204zM285 302h-46v-83h46q52 0 52 41q0 42 -52 42z" />
    <glyph glyph-name="Tlinebelow.sc" horiz-adv-x="499" 
d="M489 500v-146h-137v-354h-204v354h-138v146h479zM430 -80v-125h-360v125h360z" />
    <glyph glyph-name="U.sc" horiz-adv-x="578" 
d="M345 500h203v-257q0 -124 -67 -188.5t-189 -64.5q-123 0 -190 64.5t-67 188.5v257h203v-257q0 -83 53 -83q54 0 54 83v257z" />
    <glyph glyph-name="Uacute.sc" horiz-adv-x="578" 
d="M528 728l-159 -178h-173l123 178h209zM344 500h203v-257q0 -124 -67 -188.5t-189 -64.5q-123 0 -190 64.5t-67 188.5v257h203v-257q0 -83 53 -83q54 0 54 83v257z" />
    <glyph glyph-name="Ucaron.sc" horiz-adv-x="578" 
d="M518 728l-124 -178h-211l-124 178h168l61 -74l62 74h168zM345 500h203v-257q0 -124 -67 -188.5t-189 -64.5q-123 0 -190 64.5t-67 188.5v257h203v-257q0 -83 53 -83q54 0 54 83v257z" />
    <glyph glyph-name="Ucircumflex.sc" horiz-adv-x="578" 
d="M395 728l123 -178h-167l-62 74l-62 -74h-167l123 178h212zM345 500h203v-257q0 -124 -67 -188.5t-189 -64.5q-123 0 -190 64.5t-67 188.5v257h203v-257q0 -83 53 -83q54 0 54 83v257z" />
    <glyph glyph-name="Udieresis.sc" horiz-adv-x="578" 
d="M345 500h203v-257q0 -124 -67 -188.5t-189 -64.5q-123 0 -190 64.5t-67 188.5v257h203v-257q0 -83 53 -83q54 0 54 83v257zM127 706q24 24 59.5 24t58.5 -24q24 -23 24 -58.5t-24 -59.5q-23 -23 -58.5 -23t-59.5 23q-23 24 -23 59.5t23 58.5zM332 706q24 24 59.5 24
t58.5 -24q24 -23 24 -58.5t-24 -59.5q-23 -23 -58.5 -23t-59.5 23q-23 24 -23 59.5t23 58.5z" />
    <glyph glyph-name="Udieresisacute.sc" horiz-adv-x="578" 
d="M528 928l-159 -178h-173l123 178h209zM126 686q24 24 59.5 24t58.5 -24q24 -23 24 -58.5t-24 -59.5q-23 -23 -58.5 -23t-59.5 23q-23 24 -23 59.5t23 58.5zM331 686q24 24 59.5 24t58.5 -24q24 -23 24 -58.5t-24 -59.5q-23 -23 -58.5 -23t-59.5 23q-23 24 -23 59.5
t23 58.5zM344 500h203v-257q0 -124 -67 -188.5t-189 -64.5q-123 0 -190 64.5t-67 188.5v257h203v-257q0 -83 53 -83q54 0 54 83v257z" />
    <glyph glyph-name="Udieresiscaron.sc" horiz-adv-x="578" 
d="M518 928l-124 -178h-211l-124 178h168l61 -74l62 74h168zM127 686q24 24 59.5 24t58.5 -24q24 -23 24 -58.5t-24 -59.5q-23 -23 -58.5 -23t-59.5 23q-23 24 -23 59.5t23 58.5zM332 686q24 24 59.5 24t58.5 -24q24 -23 24 -58.5t-24 -59.5q-23 -23 -58.5 -23t-59.5 23
q-23 24 -23 59.5t23 58.5zM345 500h203v-257q0 -124 -67 -188.5t-189 -64.5q-123 0 -190 64.5t-67 188.5v257h203v-257q0 -83 53 -83q54 0 54 83v257z" />
    <glyph glyph-name="Udieresisgrave.sc" horiz-adv-x="578" 
d="M345 500h203v-257q0 -124 -67 -188.5t-189 -64.5q-123 0 -190 64.5t-67 188.5v257h203v-257q0 -83 53 -83q54 0 54 83v257zM127 686q24 24 59.5 24t58.5 -24q24 -23 24 -58.5t-24 -59.5q-23 -23 -58.5 -23t-59.5 23q-23 24 -23 59.5t23 58.5zM332 686q24 24 59.5 24
t58.5 -24q24 -23 24 -58.5t-24 -59.5q-23 -23 -58.5 -23t-59.5 23q-23 24 -23 59.5t23 58.5zM254 928l123 -178h-174l-158 178h209z" />
    <glyph glyph-name="Udieresismacron.sc" horiz-adv-x="578" 
d="M345 500h203v-257q0 -124 -67 -188.5t-189 -64.5q-123 0 -190 64.5t-67 188.5v257h203v-257q0 -83 53 -83q54 0 54 83v257zM127 686q24 24 59.5 24t58.5 -24q24 -23 24 -58.5t-24 -59.5q-23 -23 -58.5 -23t-59.5 23q-23 24 -23 59.5t23 58.5zM332 686q24 24 59.5 24
t58.5 -24q24 -23 24 -58.5t-24 -59.5q-23 -23 -58.5 -23t-59.5 23q-23 24 -23 59.5t23 58.5zM469 875v-125h-361v125h361z" />
    <glyph glyph-name="Udotbelow.sc" horiz-adv-x="578" 
d="M345 500h203v-257q0 -124 -67 -188.5t-189 -64.5q-123 0 -190 64.5t-67 188.5v257h203v-257q0 -83 53 -83q54 0 54 83v257zM232 -109q24 24 59.5 24t58.5 -23q24 -24 24 -59.5t-24 -58.5q-23 -24 -58.5 -24t-59.5 24q-23 23 -23 58.5t23 58.5z" />
    <glyph glyph-name="Ugrave.sc" horiz-adv-x="578" 
d="M345 500h203v-257q0 -124 -67 -188.5t-189 -64.5q-123 0 -190 64.5t-67 188.5v257h203v-257q0 -83 53 -83q54 0 54 83v257zM254 728l123 -178h-174l-158 178h209z" />
    <glyph glyph-name="Uhungarumlaut.sc" horiz-adv-x="578" 
d="M402 728l-158 -178h-174l124 178h208zM667 728l-159 -178h-173l123 178h209zM344 500h203v-257q0 -124 -67 -188.5t-189 -64.5q-123 0 -190 64.5t-67 188.5v257h203v-257q0 -83 53 -83q54 0 54 83v257z" />
    <glyph glyph-name="Umacron.sc" horiz-adv-x="578" 
d="M345 500h203v-257q0 -124 -67 -188.5t-189 -64.5q-123 0 -190 64.5t-67 188.5v257h203v-257q0 -83 53 -83q54 0 54 83v257zM469 710v-125h-361v125h361z" />
    <glyph glyph-name="Uogonek.sc" horiz-adv-x="578" 
d="M345 500h203v-257q0 -157 -106 -218l-3 -5q-32 -46 -22 -72q9 -23 39 -26q14 -3 35 2l23 -91q-42 -16 -98 -16q-89 0 -116 48q-25 46 9 119l3 6q-30 0 -57 3q-111 12 -165.5 73t-54.5 177v257h203v-257q0 -83 53 -83q54 0 54 83v257z" />
    <glyph glyph-name="Uring.sc" horiz-adv-x="578" 
d="M289 785q59 0 101 -41.5t42 -98.5q0 -59 -42 -99q-43 -41 -101 -41t-101 41q-42 40 -42 99t42 99q43 41 101 41zM289 692q-20 0 -34 -13.5t-14 -33.5q0 -31 29.5 -43t52.5 9q22 23 10 52t-44 29zM345 500h203v-257q0 -124 -67 -188.5t-189 -64.5q-123 0 -190 64.5
t-67 188.5v257h203v-257q0 -83 53 -83q54 0 54 83v257z" />
    <glyph glyph-name="Utilde.sc" horiz-adv-x="578" 
d="M176 724q27 6 46 3t58 -17q67 -23 86 -22q25 1 34 33l75 -9q10 -62 -9 -103.5t-61 -52.5q-27 -6 -46 -3q-22 3 -57 16l-19 7l-48 16q-11 2 -23 -1q-22 -6 -30 -32l-75 8q-11 61 8 103.5t61 53.5zM345 500h203v-257q0 -124 -67 -188.5t-189 -64.5q-123 0 -190 64.5
t-67 188.5v257h203v-257q0 -83 53 -83q54 0 54 83v257z" />
    <glyph glyph-name="V.sc" horiz-adv-x="632" 
d="M621 500l-185 -500h-241l-186 500h225l81 -305l81 305h225z" />
    <glyph glyph-name="W.sc" horiz-adv-x="866" 
d="M856 500l-162 -500h-208l-53 187l-54 -187h-207l-162 500h223l50 -190l51 190h198l51 -190l50 190h223z" />
    <glyph glyph-name="Wacute.sc" horiz-adv-x="866" 
d="M673 728l-159 -178h-173l123 178h209zM856 500l-162 -500h-208l-53 187l-54 -187h-207l-162 500h223l50 -190l51 190h198l51 -190l50 190h223z" />
    <glyph glyph-name="Wcircumflex.sc" horiz-adv-x="866" 
d="M538 728l123 -178h-167l-62 74l-62 -74h-167l123 178h212zM855 500l-162 -500h-208l-53 187l-54 -187h-207l-162 500h223l50 -190l51 190h198l51 -190l50 190h223z" />
    <glyph glyph-name="Wdieresis.sc" horiz-adv-x="866" 
d="M855 500l-162 -500h-208l-53 187l-54 -187h-207l-162 500h223l50 -190l51 190h198l51 -190l50 190h223zM270 706q24 24 59.5 24t58.5 -24q24 -23 24 -58.5t-24 -59.5q-23 -23 -58.5 -23t-59.5 23q-23 24 -23 59.5t23 58.5zM475 706q24 24 59.5 24t58.5 -24
q24 -23 24 -58.5t-24 -59.5q-23 -23 -58.5 -23t-59.5 23q-23 24 -23 59.5t23 58.5z" />
    <glyph glyph-name="Wgrave.sc" horiz-adv-x="866" 
d="M855 500l-162 -500h-208l-53 187l-54 -187h-207l-162 500h223l50 -190l51 190h198l51 -190l50 190h223zM397 728l123 -178h-174l-158 178h209z" />
    <glyph glyph-name="X.sc" horiz-adv-x="607" 
d="M590 500l-163 -244l170 -256h-240l-55 105l-55 -105h-237l170 254l-163 246h241l47 -94l48 94h237z" />
    <glyph glyph-name="Y.sc" horiz-adv-x="616" 
d="M605 500l-196 -332v-168h-204v166l-196 334h236l63 -136l63 136h234z" />
    <glyph glyph-name="Yacute.sc" horiz-adv-x="616" 
d="M547 728l-159 -178h-173l123 178h209zM605 500l-196 -332v-168h-204v166l-196 334h236l63 -136l63 136h234z" />
    <glyph glyph-name="Ycircumflex.sc" horiz-adv-x="616" 
d="M414 728l123 -178h-167l-62 74l-62 -74h-167l123 178h212zM606 500l-196 -332v-168h-204v166l-196 334h236l63 -136l63 136h234z" />
    <glyph glyph-name="Ydieresis.sc" horiz-adv-x="616" 
d="M606 500l-196 -332v-168h-204v166l-196 334h236l63 -136l63 136h234zM146 706q24 24 59.5 24t58.5 -24q24 -23 24 -58.5t-24 -59.5q-23 -23 -58.5 -23t-59.5 23q-23 24 -23 59.5t23 58.5zM351 706q24 24 59.5 24t58.5 -24q24 -23 24 -58.5t-24 -59.5q-23 -23 -58.5 -23
t-59.5 23q-23 24 -23 59.5t23 58.5z" />
    <glyph glyph-name="Ygrave.sc" horiz-adv-x="616" 
d="M606 500l-196 -332v-168h-204v166l-196 334h236l63 -136l63 136h234zM273 728l123 -178h-174l-158 178h209z" />
    <glyph glyph-name="Z.sc" horiz-adv-x="519" 
d="M493 500v-111l-198 -238h206v-151h-485v113l190 236h-173v151h460z" />
    <glyph glyph-name="Zacute.sc" horiz-adv-x="519" 
d="M505 728l-159 -178h-173l123 178h209zM493 500v-111l-198 -238h206v-151h-485v113l190 236h-173v151h460z" />
    <glyph glyph-name="Zcaron.sc" horiz-adv-x="519" 
d="M494 728l-124 -178h-211l-124 178h168l61 -74l62 74h168zM493 500v-111l-198 -238h206v-151h-485v113l190 236h-173v151h460z" />
    <glyph glyph-name="Zdotaccent.sc" horiz-adv-x="519" 
d="M206 706q24 24 59 24t59 -24q24 -23 24 -58.5t-24 -59.5q-24 -23 -59 -23t-59 23q-24 24 -24 59.5t24 58.5zM493 500v-111l-198 -238h206v-151h-485v113l190 236h-173v151h460z" />
    <glyph glyph-name="a.ss01" horiz-adv-x="639" 
d="M390 500h203v-500h-203v58q-65 -68 -151 -68q-98 0 -154 74t-56 186t56 186t154 74q86 0 151 -68v58zM315 338q-36 0 -61 -26t-25 -62t25 -62t61 -26q51 0 75 47v82q-24 47 -75 47z" />
    <glyph glyph-name="aacute.ss01" horiz-adv-x="639" 
d="M565 728l-159 -178h-173l123 178h209zM390 500h203v-500h-203v58q-65 -68 -151 -68q-98 0 -154 74t-56 186t56 186t154 74q86 0 151 -68v58zM315 338q-36 0 -61 -26t-25 -62t25 -62t61 -26q51 0 75 47v82q-24 47 -75 47z" />
    <glyph glyph-name="abreve.ss01" horiz-adv-x="639" 
d="M396 734h133q0 -76 -58 -125t-142 -49q-85 0 -143 49t-58 125h133q0 -24 19 -38.5t49 -14.5q29 0 48 14t19 39zM390 500h203v-500h-203v58q-65 -68 -151 -68q-98 0 -154 74t-56 186t56 186t154 74q86 0 151 -68v58zM315 338q-35 0 -60.5 -25.5t-25.5 -62.5q0 -36 25 -62
t61 -26q51 0 75 47v82q-24 47 -75 47z" />
    <glyph glyph-name="acaron.ss01" horiz-adv-x="639" 
d="M554 728l-124 -178h-211l-124 178h168l61 -74l62 74h168zM390 500h203v-500h-203v58q-65 -68 -151 -68q-98 0 -154 74t-56 186t56 186t154 74q86 0 151 -68v58zM315 338q-35 0 -60.5 -25.5t-25.5 -62.5q0 -36 25 -62t61 -26q51 0 75 47v82q-24 47 -75 47z" />
    </font>
</defs>
</svg>
